# This file uses centimeters as units for non-parametric coordinates.

mtllib mesh.mtl
g default
v -25.000000 -50.000000 0.000000
v 25.000000 -50.000000 0.000000
v -49.436874 -0.000000 0.000000
v 49.436874 -0.000000 0.000000
v -49.436874 -0.000000 -50.000000
v 49.436874 -0.000000 -50.000000
v -49.436874 -0.000000 -100.000000
v 49.436874 -0.000000 -100.000000
v -49.436874 -0.000000 -150.000000
v 49.436874 -0.000000 -150.000000
v -25.000000 -50.000000 -150.000000
v 25.000000 -50.000000 -150.000000
v -25.000000 -50.000000 -100.000000
v 25.000000 -50.000000 -100.000000
v -25.000000 -50.000000 -50.000000
v 25.000000 -50.000000 -50.000000
v -25.000000 50.000000 0.000000
v 25.000000 50.000000 0.000000
v -25.000000 50.000000 -150.000000
v 25.000000 50.000000 -150.000000
v -25.000000 50.000000 -100.000000
v 25.000000 50.000000 -100.000000
v -25.000000 50.000000 -50.000000
v 25.000000 50.000000 -50.000000
vt 0.047725 0.393581
vt 0.047761 0.683351
vt 0.694350 0.041893
vt 0.354725 0.663160
vt 0.308154 0.393589
vt 0.694308 0.275113
vt 0.047761 0.683315
vt 0.047814 0.393541
vt 0.047733 0.393577
vt 0.047797 0.393549
vt 0.047765 0.393563
vt 0.047762 0.683347
vt 0.047761 0.683333
vt 0.047761 0.683311
vt 0.047761 0.683318
vt 0.991348 0.663061
vt 0.308101 0.683358
vt 0.308101 0.683336
vt 0.512018 0.341199
vt 0.833955 0.341149
vt 0.461131 0.041851
vt 0.461089 0.275070
vt 0.308065 0.393549
vt 0.308102 0.683318
vt 0.461131 0.041851
vt 0.461089 0.275070
vt 0.308138 0.393581
vt 0.308102 0.683351
vt 0.694309 0.275112
vt 0.694351 0.041893
vt 0.308073 0.393552
vt 0.308102 0.683322
vt 0.694309 0.275112
vt 0.694350 0.041893
vt 0.308144 0.393584
vt 0.308101 0.683354
vt 0.308105 0.393567
vt 0.461131 0.041851
vt 0.047804 0.393546
vt 0.461089 0.275070
vt 0.512118 0.985072
vt 0.834055 0.985022
vt 0.059940 0.048018
vt 0.059939 0.280775
vt 0.292696 0.280776
vt 0.292698 0.048019
vt 0.059940 0.048018
vt 0.059939 0.280775
vt 0.292696 0.280776
vt 0.292698 0.048019
vt 0.059940 0.048018
vt 0.059939 0.280775
vt 0.292696 0.280776
vt 0.292698 0.048019
vt 0.308058 0.973123
vt 0.047718 0.973085
vt 0.308130 0.973091
vt 0.047790 0.973117
vt 0.308097 0.973106
vt 0.047757 0.973103
vt 0.308048 0.973128
vt 0.047708 0.973080
vt 0.308065 0.973120
vt 0.047725 0.973088
vt 0.308137 0.973088
vt 0.047797 0.973120
vn 0.000000 0.000000 1.000000
vn 0.000000 0.000000 1.000000
vn 0.000000 0.000000 1.000000
vn 0.000000 0.000000 1.000000
vn 0.000000 1.000000 0.000000
vn 0.000000 1.000000 0.000000
vn 0.000000 1.000000 0.000000
vn 0.000000 1.000000 0.000000
vn 0.000000 1.000000 0.000000
vn 0.000000 1.000000 0.000000
vn 0.000000 1.000000 0.000000
vn 0.000000 1.000000 0.000000
vn -0.898438 0.439100 0.000000
vn -0.898438 0.439100 0.000000
vn -0.898438 0.439100 0.000000
vn -0.898438 0.439100 0.000000
vn -0.898438 0.439100 0.000000
vn -0.898438 0.439100 0.000000
vn -0.898438 0.439100 0.000000
vn -0.898438 0.439100 0.000000
vn 0.898438 0.439100 0.000000
vn 0.898438 0.439100 0.000000
vn 0.898438 0.439100 0.000000
vn 0.898438 0.439100 0.000000
vn 0.898438 0.439100 0.000000
vn 0.898438 0.439100 0.000000
vn 0.898438 0.439100 0.000000
vn 0.898438 0.439100 0.000000
vn 0.000000 0.000000 1.000000
vn 0.000000 0.000000 1.000000
vn 0.000000 -1.000000 0.000000
vn 0.000000 -1.000000 0.000000
vn 0.000000 -1.000000 0.000000
vn 0.000000 -1.000000 0.000000
vn 0.000000 -1.000000 0.000000
vn 0.000000 -1.000000 0.000000
vn 0.000000 -1.000000 0.000000
vn 0.000000 -1.000000 0.000000
vn -0.898438 -0.439100 0.000000
vn -0.898438 -0.439100 0.000000
vn -0.898438 -0.439100 0.000000
vn -0.898438 -0.439100 0.000000
vn -0.898438 -0.439100 0.000000
vn -0.898438 -0.439100 0.000000
vn -0.898438 -0.439100 0.000000
vn -0.898438 -0.439100 0.000000
vn 0.898438 -0.439100 0.000000
vn 0.898438 -0.439100 0.000000
vn 0.898438 -0.439100 0.000000
vn 0.898438 -0.439100 0.000000
vn 0.898438 -0.439100 0.000000
vn 0.898438 -0.439100 0.000000
vn 0.898438 -0.439100 0.000000
vn 0.898438 -0.439100 0.000000
s 1
g pCube1
usemtl initialShadingGroup
f 9/4/1 11/19/2 12/20/3 10/16/4
s 2
f 11/40/5 13/25/6 14/34/7 12/6/8
f 13/26/6 15/21/9 16/30/10 14/33/7
f 15/22/9 1/38/11 2/3/12 16/29/10
s 3
f 14/35/13 8/36/14 10/7/15 12/39/16
f 16/31/17 6/32/18 8/12/14 14/9/13
f 2/37/19 4/18/20 6/13/18 16/11/17
s 4
f 11/5/21 9/17/22 7/14/23 13/8/24
f 13/27/24 7/28/23 5/15/25 15/10/26
f 15/23/26 5/24/25 3/2/27 1/1/28
s 1
f 9/4/1 10/16/4 20/42/29 19/41/30
s 5
f 19/43/31 20/46/32 22/45/33 21/44/34
f 21/47/34 22/50/33 24/49/35 23/48/36
f 23/51/36 24/54/35 18/53/37 17/52/38
s 6
f 22/55/39 20/56/40 10/7/41 8/36/42
f 24/57/43 22/58/39 8/12/42 6/32/44
f 18/59/45 24/60/43 6/13/44 4/18/46
s 7
f 19/61/47 21/62/48 7/14/49 9/17/50
f 21/63/48 23/64/51 5/15/52 7/28/49
f 23/65/51 17/66/53 3/2/54 5/24/52
