# This file uses centimeters as units for non-parametric coordinates.

mtllib floor.mtl
g default
v -0.500000 -1.000000 0.500000
v 0.500000 -1.000000 0.500000
v 1.500000 -1.000000 0.500000
v 2.500000 -1.000000 0.500000
v -0.500000 0.000000 0.500000
v 0.500000 0.000000 0.500000
v 1.500000 0.000000 0.500000
v 2.500000 0.000000 0.500000
v -0.500000 0.000000 -24.500000
v 0.500000 0.000000 -24.500000
v 1.500000 0.000000 -24.500000
v 2.500000 0.000000 -24.500000
v -0.500000 -1.000000 -24.500000
v 0.500000 -1.000000 -24.500000
v 1.500000 -1.000000 -24.500000
v 2.500000 -1.000000 -24.500000
vt 0.218616 0.139160
vt 0.240769 0.128080
vt 0.251847 0.128078
vt 0.262924 0.128077
vt 0.229694 0.139159
vt 0.240771 0.139157
vt 0.251848 0.139156
vt 0.262925 0.139154
vt 0.229731 0.416090
vt 0.240808 0.416088
vt 0.251885 0.416087
vt 0.262962 0.416086
vt 0.229732 0.427167
vt 0.240809 0.427166
vt 0.251887 0.427164
vt 0.262964 0.427163
vt 0.274040 0.416084
vt 0.218653 0.416091
vt 0.274003 0.139153
vt 0.229692 0.128081
vn 0.000000 0.000000 1.000000
vn 0.000000 0.000000 1.000000
vn 0.000000 0.000000 1.000000
vn 0.000000 0.000000 1.000000
vn 0.000000 0.000000 1.000000
vn 0.000000 0.000000 1.000000
vn 0.000000 0.000000 1.000000
vn 0.000000 0.000000 1.000000
vn 0.000000 0.000000 1.000000
vn 0.000000 0.000000 1.000000
vn 0.000000 0.000000 1.000000
vn 0.000000 0.000000 1.000000
vn 0.000000 1.000000 0.000000
vn 0.000000 1.000000 0.000000
vn 0.000000 1.000000 0.000000
vn 0.000000 1.000000 0.000000
vn 0.000000 1.000000 0.000000
vn 0.000000 1.000000 0.000000
vn 0.000000 1.000000 0.000000
vn 0.000000 1.000000 0.000000
vn 0.000000 1.000000 0.000000
vn 0.000000 1.000000 0.000000
vn 0.000000 1.000000 0.000000
vn 0.000000 1.000000 0.000000
vn 0.000000 0.000000 -1.000000
vn 0.000000 0.000000 -1.000000
vn 0.000000 0.000000 -1.000000
vn 0.000000 0.000000 -1.000000
vn 0.000000 0.000000 -1.000000
vn 0.000000 0.000000 -1.000000
vn 0.000000 0.000000 -1.000000
vn 0.000000 0.000000 -1.000000
vn 0.000000 0.000000 -1.000000
vn 0.000000 0.000000 -1.000000
vn 0.000000 0.000000 -1.000000
vn 0.000000 0.000000 -1.000000
vn 1.000000 0.000000 0.000000
vn 1.000000 0.000000 0.000000
vn 1.000000 0.000000 0.000000
vn 1.000000 0.000000 0.000000
vn -1.000000 0.000000 0.000000
vn -1.000000 0.000000 0.000000
vn -1.000000 0.000000 0.000000
vn -1.000000 0.000000 0.000000
s off
g floor obstacle
usemtl pCube1SG
f 1/20/1 2/2/2 6/6/3 5/5/4
f 2/2/5 3/3/6 7/7/7 6/6/8
f 3/3/9 4/4/10 8/8/11 7/7/12
f 5/5/13 6/6/14 10/10/15 9/9/16
f 6/6/17 7/7/18 11/11/19 10/10/20
f 7/7/21 8/8/22 12/12/23 11/11/24
f 9/9/25 10/10/26 14/14/27 13/13/28
f 10/10/29 11/11/30 15/15/31 14/14/32
f 11/11/33 12/12/34 16/16/35 15/15/36
f 4/19/37 16/17/38 12/12/39 8/8/40
f 13/18/41 1/1/42 5/5/43 9/9/44
