# This file uses centimeters as units for non-parametric coordinates.

mtllib ad_sign_free_side.mtl
g default
v -1.220473 2.997775 0.100000
v -1.500000 2.718248 0.100000
v -1.500000 2.718248 -0.100000
v -1.220473 2.997775 -0.100000
v 1.500000 2.718248 0.100000
v 1.220473 2.997775 0.100000
v 1.220473 2.997775 -0.100000
v 1.500000 2.718248 -0.100000
v -1.500000 1.679527 0.100000
v -1.220473 1.400000 0.100000
v -1.220473 1.400000 -0.100000
v -1.500000 1.679527 -0.100000
v 1.220473 1.400000 0.100000
v 1.500000 1.679527 0.100000
v 1.500000 1.679527 -0.100000
v 1.220473 1.400000 -0.100000
v -1.400000 1.779527 0.100000
v -1.120473 1.500000 0.100000
v 1.120473 1.500000 0.100000
v 1.400000 1.779527 0.100000
v 1.400000 2.618247 0.100000
v 1.120473 2.897775 0.100000
v -1.120473 2.897775 0.100000
v -1.400000 2.618247 0.100000
v -1.400000 2.618248 -0.100000
v -1.120473 2.897775 -0.100000
v 1.120473 2.897775 -0.100000
v 1.400000 2.618248 -0.100000
v 1.400000 1.779527 -0.100000
v 1.120473 1.500000 -0.100000
v -1.120473 1.500000 -0.100000
v -1.400000 1.779527 -0.100000
v -1.400000 1.779527 0.052504
v -1.120473 1.500000 0.052504
v 1.400000 1.779527 0.052504
v 1.120473 1.500000 0.052504
v 1.120473 2.897775 0.052504
v 1.400000 2.618247 0.052504
v -1.400000 2.618247 0.052504
v -1.120473 2.897775 0.052504
v -0.050000 1.167496 0.020503
v -0.020503 1.167496 0.050000
v 0.020503 1.167496 0.050000
v 0.050000 1.167496 0.020503
v -0.020503 1.167496 -0.050000
v -0.050000 1.167496 -0.020503
v 0.050000 1.167496 -0.020503
v 0.020503 1.167496 -0.050000
v -0.050000 0.352765 0.020503
v -0.050000 0.352765 -0.020503
v -0.020503 0.352765 -0.050000
v 0.020503 0.352765 -0.050000
v 0.050000 0.352765 -0.020503
v 0.050000 0.352765 0.020503
v 0.020503 0.352765 0.050000
v -0.020503 0.352765 0.050000
v 0.027220 0.345711 0.066218
v -0.027220 0.345711 0.066218
v -0.027220 0.345711 -0.066218
v 0.027220 0.345711 -0.066218
v 0.066217 0.345711 -0.027220
v 0.066217 0.345711 0.027220
v -0.066217 0.345711 0.027220
v -0.066217 0.345711 -0.027220
v -0.027220 0.103713 0.066218
v 0.027220 0.103713 0.066218
v 0.066217 0.103713 0.027220
v 0.066217 0.103713 -0.027220
v 0.027220 0.103713 -0.066218
v -0.027220 0.103713 -0.066218
v -0.066217 0.103713 -0.027220
v -0.066217 0.103713 0.027220
v -0.046073 0.103713 0.111654
v 0.046073 0.103713 0.111654
v -0.046073 -0.053497 0.111654
v 0.046073 -0.053497 0.111654
v 0.111654 -0.053497 0.046073
v 0.111654 0.103713 0.046073
v 0.111654 0.103713 -0.046073
v 0.111654 -0.053497 -0.046073
v 0.046073 0.103713 -0.111654
v 0.046073 -0.053497 -0.111654
v -0.046073 -0.053497 -0.111654
v -0.046073 0.103713 -0.111654
v -0.111654 0.103713 -0.046073
v -0.111654 -0.053497 -0.046073
v -0.111654 0.103713 0.046073
v -0.111654 -0.053497 0.046073
v -0.064913 1.171915 0.026618
v -0.064913 1.171915 -0.026618
v -0.026618 1.171915 0.064913
v 0.026618 1.171915 0.064913
v 0.064913 1.171915 0.026618
v 0.064913 1.171915 -0.026618
v -0.026618 1.171915 -0.064913
v 0.026618 1.171915 -0.064913
v -0.064913 1.470122 0.026618
v -0.064913 1.470122 -0.026618
v -0.026618 1.470122 0.064913
v 0.026618 1.470122 0.064913
v 0.064913 1.470122 0.026618
v 0.064913 1.470122 -0.026618
v -0.026618 1.470122 -0.064913
v 0.026618 1.470122 -0.064913
vt 0.470698 0.043853
vt 0.504935 0.009613
vt 0.779421 0.009603
vt 0.813660 0.043840
vt 0.813664 0.146572
vt 0.779427 0.180812
vt 0.504941 0.180822
vt 0.470702 0.146585
vt 0.965590 0.723360
vt 0.965590 0.733109
vt 0.996944 0.705540
vt 0.977793 0.735791
vt 0.982321 0.590200
vt 0.969949 0.574504
vt 0.969949 0.564754
vt 0.965175 0.559880
vt 0.913388 0.723360
vt 0.913388 0.733109
vt 0.918162 0.737984
vt 0.917747 0.574504
vt 0.917747 0.564754
vt 0.891267 0.587710
vt 0.886392 0.592324
vt 0.919073 0.716485
vt 0.908016 0.593372
vt 0.964264 0.581379
vt 0.975320 0.704492
vt 0.982321 0.710153
vt 0.992070 0.590200
vt 0.891267 0.707664
vt 0.901016 0.587710
vt 0.901016 0.707664
vt 0.905837 0.593372
vt 0.964264 0.579283
vt 0.977499 0.704492
vt 0.919073 0.718580
vt 0.992070 0.710153
vt 0.995782 0.578185
vt 0.905544 0.562072
vt 0.887555 0.719679
vt 0.905837 0.702663
vt 0.908016 0.702663
vt 0.922796 0.579283
vt 0.922796 0.581379
vt 0.977499 0.595201
vt 0.975320 0.595201
vt 0.960540 0.718580
vt 0.960540 0.716485
vt 0.896197 0.580746
vt 0.891411 0.575799
vt 0.886392 0.702434
vt 0.892479 0.714846
vt 0.996944 0.595430
vt 0.990857 0.583018
vt 0.987140 0.717118
vt 0.991925 0.722064
vt 0.923131 0.559880
vt 0.910427 0.566964
vt 0.906248 0.729146
vt 0.901246 0.733892
vt 0.977089 0.568717
vt 0.982090 0.563972
vt 0.960206 0.737984
vt 0.972910 0.730900
vt 0.416282 0.593302
vt 0.397134 0.593301
vt 0.397141 0.508187
vt 0.416289 0.508189
vt 0.320052 0.508181
vt 0.339199 0.508183
vt 0.339193 0.593296
vt 0.320045 0.593295
vt 0.454826 0.593306
vt 0.435678 0.593304
vt 0.435686 0.508190
vt 0.454833 0.508192
vt 0.377737 0.593300
vt 0.358589 0.593298
vt 0.358597 0.508185
vt 0.377744 0.508186
vt 0.474223 0.593307
vt 0.474230 0.508194
vt 0.671301 0.632653
vt 0.671301 0.687364
vt 0.668548 0.687364
vt 0.668548 0.632653
vt 0.674102 0.632653
vt 0.674102 0.687364
vt 0.676856 0.687364
vt 0.676856 0.632653
vt 0.654637 0.632653
vt 0.657438 0.632653
vt 0.657438 0.687364
vt 0.654637 0.687364
vt 0.660191 0.632653
vt 0.660191 0.687364
vt 0.662993 0.687364
vt 0.662993 0.632653
vt 0.665746 0.632653
vt 0.665746 0.687364
vt 0.413918 0.599523
vt 0.399496 0.599521
vt 0.336830 0.599516
vt 0.322408 0.599515
vt 0.452464 0.599525
vt 0.438041 0.599524
vt 0.375374 0.599519
vt 0.360952 0.599518
vt 0.394771 0.599521
vt 0.380100 0.599520
vt 0.433315 0.599524
vt 0.418644 0.599523
vt 0.356226 0.599518
vt 0.341555 0.599516
vt 0.471860 0.599527
vt 0.457188 0.599526
vt 0.433413 0.465078
vt 0.411290 0.465080
vt 0.411286 0.427338
vt 0.433408 0.427335
vt 0.455675 0.427333
vt 0.455679 0.465075
vt 0.477802 0.465072
vt 0.477797 0.427330
vt 0.500067 0.465070
vt 0.500063 0.427327
vt 0.344632 0.427346
vt 0.344637 0.465088
vt 0.322514 0.465091
vt 0.322510 0.427349
vt 0.366903 0.465086
vt 0.366898 0.427343
vt 0.389025 0.465083
vt 0.389020 0.427341
vt 0.428888 0.475987
vt 0.415818 0.475988
vt 0.451168 0.475990
vt 0.437927 0.475991
vt 0.473276 0.475981
vt 0.460206 0.475983
vt 0.495556 0.475984
vt 0.482316 0.475986
vt 0.340112 0.475997
vt 0.327042 0.475999
vt 0.362391 0.476000
vt 0.349151 0.476002
vt 0.384500 0.475992
vt 0.371430 0.475994
vt 0.406779 0.475995
vt 0.393539 0.475996
vt 0.526716 0.494415
vt 0.540531 0.494416
vt 0.542592 0.499657
vt 0.524655 0.499656
vt 0.562898 0.494417
vt 0.576714 0.494418
vt 0.578774 0.499658
vt 0.560837 0.499657
vt 0.599081 0.494419
vt 0.612896 0.494420
vt 0.614956 0.499660
vt 0.597020 0.499659
vt 0.490534 0.494414
vt 0.504349 0.494415
vt 0.506409 0.499655
vt 0.488473 0.499655
vt 0.544687 0.494431
vt 0.558742 0.494431
vt 0.580870 0.494432
vt 0.594924 0.494433
vt 0.508505 0.494429
vt 0.522559 0.494430
vt 0.617052 0.494434
vt 0.631106 0.494435
vt 0.633202 0.499661
vt 0.542587 0.600126
vt 0.524651 0.600125
vt 0.578769 0.600128
vt 0.560833 0.600127
vt 0.614951 0.600130
vt 0.597015 0.600128
vt 0.506405 0.600124
vt 0.488468 0.600124
vt 0.633197 0.600130
vn 0.000000 0.000000 1.000000
vn 0.000000 0.000000 1.000000
vn 0.000000 0.000000 1.000000
vn 0.000000 0.000000 1.000000
vn 0.000000 0.000000 1.000000
vn 0.000000 0.000000 1.000000
vn 0.000000 0.000000 1.000000
vn 0.000000 0.000000 1.000000
vn -0.707107 0.707107 0.000000
vn -0.707107 0.707107 0.000000
vn -0.707107 0.707107 0.000000
vn -0.707107 0.707107 0.000000
vn -0.000000 0.000000 -1.000000
vn 0.000000 0.000000 -1.000000
vn 0.000000 0.000000 -1.000000
vn -0.000000 0.000000 -1.000000
vn -0.000000 0.000000 1.000000
vn -0.000000 0.000000 1.000000
vn -0.000000 0.000000 1.000000
vn -0.000000 0.000000 1.000000
vn 0.707107 0.707107 0.000000
vn 0.707107 0.707107 0.000000
vn 0.707107 0.707107 0.000000
vn 0.707107 0.707107 0.000000
vn -0.000000 0.000000 -1.000000
vn -0.000000 0.000000 -1.000000
vn -0.000000 0.000000 -1.000000
vn -0.000000 0.000000 -1.000000
vn 0.000000 0.000000 1.000000
vn 0.000000 0.000000 1.000000
vn 0.000000 0.000000 1.000000
vn 0.000000 0.000000 1.000000
vn -0.707107 -0.707107 0.000000
vn -0.707107 -0.707107 0.000000
vn -0.707107 -0.707107 0.000000
vn -0.707107 -0.707107 0.000000
vn -0.000000 0.000000 -1.000000
vn -0.000000 0.000000 -1.000000
vn -0.000000 0.000000 -1.000000
vn -0.000000 0.000000 -1.000000
vn 0.000000 0.000000 1.000000
vn -0.000000 0.000000 1.000000
vn -0.000000 0.000000 1.000000
vn 0.000000 0.000000 1.000000
vn 0.707107 -0.707107 0.000000
vn 0.707107 -0.707107 0.000000
vn 0.707107 -0.707107 0.000000
vn 0.707107 -0.707107 0.000000
vn -0.000000 0.000000 -1.000000
vn -0.000000 0.000000 -1.000000
vn -0.000000 0.000000 -1.000000
vn -0.000000 0.000000 -1.000000
vn 0.707107 0.707107 0.000000
vn 0.707107 0.707107 0.000000
vn 0.707107 0.707107 0.000000
vn 0.707107 0.707107 0.000000
vn -0.707107 0.707107 0.000000
vn -0.707107 0.707107 0.000000
vn -0.707107 0.707107 0.000000
vn -0.707107 0.707107 0.000000
vn -0.707107 -0.707106 0.000000
vn -0.707107 -0.707106 0.000000
vn -0.707107 -0.707106 0.000000
vn -0.707107 -0.707106 0.000000
vn 0.707107 -0.707106 0.000000
vn 0.707107 -0.707106 0.000000
vn 0.707107 -0.707106 0.000000
vn 0.707107 -0.707106 0.000000
vn 0.000000 1.000000 0.000000
vn 0.000000 1.000000 0.000000
vn 0.000000 1.000000 0.000000
vn 0.000000 1.000000 0.000000
vn 0.000000 -1.000000 0.000000
vn 0.000000 -1.000000 0.000000
vn 0.000000 -1.000000 0.000000
vn 0.000000 -1.000000 0.000000
vn 1.000000 0.000000 0.000000
vn 1.000000 0.000000 0.000000
vn 1.000000 0.000000 0.000000
vn 1.000000 0.000000 0.000000
vn -1.000000 0.000000 0.000000
vn -1.000000 0.000000 0.000000
vn -1.000000 0.000000 0.000000
vn -1.000000 0.000000 0.000000
vn 0.000000 1.000000 0.000000
vn 0.000000 1.000000 0.000000
vn 0.000000 1.000000 0.000000
vn 0.000000 1.000000 0.000000
vn -1.000000 0.000000 0.000000
vn -1.000000 0.000000 0.000000
vn -1.000000 0.000000 0.000000
vn -1.000000 0.000000 0.000000
vn 0.000000 -1.000000 0.000000
vn 0.000000 -1.000000 0.000000
vn 0.000000 -1.000000 0.000000
vn 0.000000 -1.000000 0.000000
vn 1.000000 0.000000 0.000000
vn 1.000000 0.000000 0.000000
vn 1.000000 0.000000 0.000000
vn 1.000000 0.000000 0.000000
vn -0.000000 0.000000 1.000000
vn -0.000000 0.000000 1.000000
vn -0.000000 0.000000 1.000000
vn -0.000000 0.000000 1.000000
vn 0.000000 0.000000 1.000000
vn 0.000000 0.000000 1.000000
vn 0.000000 0.000000 1.000000
vn 0.000000 0.000000 1.000000
vn 0.000000 0.000000 -1.000000
vn 0.000000 0.000000 -1.000000
vn 0.000000 0.000000 -1.000000
vn 0.000000 0.000000 -1.000000
vn 1.000000 0.000000 0.000000
vn 1.000000 0.000000 0.000000
vn 1.000000 0.000000 0.000000
vn 1.000000 0.000000 0.000000
vn -1.000000 0.000000 0.000000
vn -1.000000 0.000000 0.000000
vn -1.000000 0.000000 0.000000
vn -1.000000 0.000000 0.000000
vn -0.707107 0.000000 0.707107
vn -0.707107 0.000000 0.707107
vn -0.707107 0.000000 0.707107
vn -0.707107 0.000000 0.707107
vn 0.707107 0.000000 0.707107
vn 0.707107 0.000000 0.707107
vn 0.707107 0.000000 0.707107
vn 0.707107 0.000000 0.707107
vn -0.707107 0.000000 -0.707107
vn -0.707107 0.000000 -0.707107
vn -0.707107 0.000000 -0.707107
vn -0.707107 0.000000 -0.707107
vn 0.707107 0.000000 -0.707107
vn 0.707107 0.000000 -0.707107
vn 0.707107 0.000000 -0.707107
vn 0.707107 0.000000 -0.707107
vn -1.000000 0.000000 0.000000
vn -1.000000 0.000000 0.000000
vn -1.000000 0.000000 0.000000
vn -1.000000 0.000000 0.000000
vn -0.707107 0.000000 -0.707107
vn -0.707107 0.000000 -0.707107
vn -0.707107 0.000000 -0.707107
vn -0.707106 0.000000 -0.707107
vn 0.000000 0.000000 -1.000000
vn 0.000000 0.000000 -1.000000
vn 0.000000 0.000000 -1.000000
vn 0.000000 0.000000 -1.000000
vn 0.707107 0.000000 -0.707107
vn 0.707107 0.000000 -0.707107
vn 0.707107 0.000000 -0.707107
vn 0.707107 0.000000 -0.707107
vn 1.000000 0.000000 0.000000
vn 1.000000 0.000000 0.000000
vn 1.000000 0.000000 0.000000
vn 1.000000 0.000000 0.000000
vn 0.707107 0.000000 0.707107
vn 0.707106 0.000000 0.707107
vn 0.707106 0.000000 0.707107
vn 0.707106 0.000000 0.707107
vn 0.000000 0.000000 1.000000
vn 0.000000 0.000000 1.000000
vn 0.000000 0.000000 1.000000
vn 0.000000 0.000000 1.000000
vn -0.707107 0.000000 0.707107
vn -0.707106 0.000000 0.707107
vn -0.707107 0.000000 0.707107
vn -0.707107 0.000000 0.707107
vn 0.143743 0.927884 0.344049
vn -0.143743 0.927884 0.344048
vn -0.143743 0.927884 0.344048
vn 0.143743 0.927884 0.344049
vn -0.143743 0.927884 -0.344049
vn 0.143743 0.927884 -0.344049
vn 0.143743 0.927884 -0.344048
vn -0.143743 0.927884 -0.344049
vn 0.344049 0.927884 -0.143743
vn 0.344049 0.927884 0.143743
vn 0.344049 0.927884 0.143743
vn 0.344049 0.927884 -0.143743
vn -0.344049 0.927884 0.143743
vn -0.344049 0.927884 -0.143743
vn -0.344049 0.927884 -0.143743
vn -0.344049 0.927884 0.143743
vn 0.000000 0.000000 1.000000
vn 0.000000 0.000000 1.000000
vn 0.000000 0.000000 1.000000
vn 0.000000 0.000000 1.000000
vn 0.707107 0.000000 0.707107
vn 0.707107 0.000000 0.707107
vn 0.707107 0.000000 0.707107
vn 0.707107 0.000000 0.707107
vn 1.000000 0.000000 0.000000
vn 1.000000 0.000000 0.000000
vn 1.000000 0.000000 0.000000
vn 1.000000 0.000000 0.000000
vn 0.707107 0.000000 -0.707107
vn 0.707107 0.000000 -0.707107
vn 0.707107 0.000000 -0.707107
vn 0.707107 0.000000 -0.707107
vn -0.000000 0.000000 -1.000000
vn -0.000000 0.000000 -1.000000
vn -0.000000 0.000000 -1.000000
vn -0.000000 0.000000 -1.000000
vn -0.707107 0.000000 -0.707107
vn -0.707107 0.000000 -0.707107
vn -0.707107 0.000000 -0.707107
vn -0.707107 0.000000 -0.707107
vn -1.000000 0.000000 0.000000
vn -1.000000 0.000000 0.000000
vn -1.000000 0.000000 0.000000
vn -1.000000 0.000000 0.000000
vn -0.707107 0.000000 0.707107
vn -0.707107 0.000000 0.707107
vn -0.707107 0.000000 0.707107
vn -0.707107 0.000000 0.707107
vn 0.000000 1.000000 -0.000000
vn 0.000000 1.000000 -0.000000
vn 0.000000 1.000000 -0.000000
vn 0.000000 1.000000 -0.000000
vn 0.000000 1.000000 0.000000
vn 0.000000 1.000000 0.000000
vn 0.000000 1.000000 0.000000
vn 0.000000 1.000000 0.000000
vn 0.000000 1.000000 0.000000
vn 0.000000 1.000000 0.000000
vn 0.000000 1.000000 0.000000
vn 0.000000 1.000000 0.000000
vn 0.000000 1.000000 0.000000
vn 0.000000 1.000000 0.000000
vn 0.000000 1.000000 -0.000000
vn 0.000000 1.000000 -0.000000
vn -0.284120 -0.958789 0.000000
vn -0.284120 -0.958789 0.000000
vn -0.284120 -0.958789 0.000000
vn -0.284120 -0.958789 0.000000
vn 0.000000 -0.958790 0.284116
vn 0.000000 -0.958790 0.284116
vn 0.000000 -0.958790 0.284116
vn 0.000000 -0.958790 0.284116
vn 0.284120 -0.958789 0.000000
vn 0.284120 -0.958789 0.000000
vn 0.284120 -0.958789 0.000000
vn 0.284120 -0.958789 0.000000
vn 0.000000 -0.958790 -0.284116
vn 0.000000 -0.958790 -0.284116
vn 0.000000 -0.958790 -0.284116
vn 0.000000 -0.958790 -0.284116
vn -0.201447 -0.958560 0.201447
vn -0.201447 -0.958560 0.201447
vn -0.201447 -0.958560 0.201447
vn -0.201447 -0.958560 0.201447
vn 0.201447 -0.958561 0.201447
vn 0.201447 -0.958561 0.201446
vn 0.201447 -0.958561 0.201446
vn 0.201447 -0.958561 0.201447
vn -0.201447 -0.958561 -0.201447
vn -0.201447 -0.958561 -0.201446
vn -0.201447 -0.958561 -0.201446
vn -0.201447 -0.958561 -0.201447
vn 0.201447 -0.958560 -0.201447
vn 0.201447 -0.958560 -0.201447
vn 0.201447 -0.958560 -0.201447
vn 0.201447 -0.958560 -0.201447
vn -1.000000 0.000000 0.000000
vn -1.000000 0.000000 0.000000
vn -1.000000 0.000000 0.000000
vn -1.000000 0.000000 0.000000
vn 0.000000 0.000000 1.000000
vn 0.000000 0.000000 1.000000
vn 0.000000 0.000000 1.000000
vn 0.000000 0.000000 1.000000
vn 1.000000 0.000000 0.000000
vn 1.000000 0.000000 0.000000
vn 1.000000 0.000000 0.000000
vn 1.000000 0.000000 0.000000
vn 0.000000 0.000000 -1.000000
vn 0.000000 0.000000 -1.000000
vn 0.000000 0.000000 -1.000000
vn 0.000000 0.000000 -1.000000
vn -0.707106 0.000000 0.707107
vn -0.707106 0.000000 0.707107
vn -0.707106 0.000000 0.707107
vn -0.707106 0.000000 0.707107
vn 0.707106 0.000000 0.707107
vn 0.707106 0.000000 0.707107
vn 0.707106 0.000000 0.707107
vn 0.707106 0.000000 0.707107
vn -0.707106 0.000000 -0.707107
vn -0.707106 0.000000 -0.707107
vn -0.707106 0.000000 -0.707107
vn -0.707106 0.000000 -0.707107
vn 0.707106 0.000000 -0.707107
vn 0.707106 0.000000 -0.707107
vn 0.707106 0.000000 -0.707107
vn 0.707106 0.000000 -0.707107
s 1
g panneau_1poutre decor1 group1
usemtl lambert2SG
f 37/6/1 36/3/2 35/4/3 38/5/4
s 2
f 1/28/5 2/9/6 24/47/7 23/35/8
s off
f 2/9/9 1/28/10 4/55/11 3/64/12
s 3
f 3/64/13 4/55/14 26/56/15 25/12/16
s 2
f 5/14/17 6/13/18 22/45/19 21/34/20
s off
f 6/13/21 5/14/22 8/61/23 7/54/24
s 3
f 7/54/25 8/61/26 28/62/27 27/38/28
s 2
f 9/17/29 10/32/30 18/41/31 17/36/32
s off
f 10/32/33 9/17/34 12/59/35 11/52/36
s 3
f 11/52/37 12/59/38 32/60/39 31/40/40
s 2
f 13/31/41 14/20/42 20/43/43 19/33/44
s off
f 14/20/45 13/31/46 16/49/47 15/58/48
s 3
f 15/58/49 16/49/50 30/50/51 29/39/52
s off
f 17/36/53 18/41/54 34/42/55 33/24/56
f 19/33/57 20/43/58 35/44/59 36/25/60
f 21/34/61 22/45/62 37/46/63 38/26/64
f 23/35/65 24/47/66 39/48/67 40/27/68
f 1/28/69 6/13/70 7/29/71 4/37/72
f 11/30/73 16/22/74 13/31/75 10/32/76
f 14/20/77 15/21/78 8/15/79 5/14/80
f 12/18/81 9/17/82 2/9/83 3/10/84
s 2
f 10/32/30 13/31/41 19/33/44 18/41/31
f 14/20/42 5/14/17 21/34/20 20/43/43
f 6/13/18 1/28/5 23/35/8 22/45/19
f 2/9/6 9/17/29 17/36/32 24/47/7
s 3
f 4/37/14 7/29/25 27/53/28 26/11/15
f 8/15/26 15/21/49 29/57/52 28/16/27
f 16/22/50 11/30/37 31/51/40 30/23/51
f 12/18/38 3/10/13 25/63/16 32/19/39
s off
f 18/41/85 19/33/86 36/25/87 34/42/88
f 20/43/89 21/34/90 38/26/91 35/44/92
f 22/45/93 23/35/94 40/27/95 37/46/96
f 24/47/97 17/36/98 33/24/99 39/48/100
s 1
f 40/7/101 34/2/102 36/3/2 37/6/1
f 33/1/103 34/2/102 40/7/101 39/8/104
s off
f 57/65/105 58/66/106 65/67/107 66/68/108
f 69/69/109 70/70/110 59/71/111 60/72/112
f 61/73/113 62/74/114 67/75/115 68/76/116
f 63/77/117 64/78/118 71/79/119 72/80/120
f 72/80/121 65/67/122 58/66/123 63/77/124
f 66/68/125 67/75/126 62/74/127 57/65/128
f 64/78/129 59/71/130 70/70/131 71/79/132
f 60/81/133 61/73/134 68/76/135 69/82/136
f 46/83/137 50/84/138 49/85/139 41/86/140
f 46/83/141 45/87/142 51/88/143 50/84/144
f 52/89/145 51/88/146 45/87/147 48/90/148
f 48/91/149 47/92/150 53/93/151 52/94/152
f 44/95/153 54/96/154 53/93/155 47/92/156
f 55/97/157 54/96/158 44/95/159 43/98/160
f 42/99/161 56/100/162 55/97/163 43/98/164
f 49/85/165 56/100/166 42/99/167 41/86/168
s 6
f 55/101/169 56/102/170 58/66/171 57/65/172
f 51/103/173 52/104/174 60/72/175 59/71/176
f 53/105/177 54/106/178 62/74/179 61/73/180
f 49/107/181 50/108/182 64/78/183 63/77/184
f 56/109/170 49/110/181 63/77/184 58/66/171
f 54/111/178 55/112/169 57/65/172 62/74/179
f 50/113/182 51/114/173 59/71/176 64/78/183
f 52/115/174 53/116/177 61/73/180 60/81/175
s off
f 74/117/185 73/118/186 75/119/187 76/120/188
f 76/120/189 77/121/190 78/122/191 74/117/192
f 79/123/193 78/122/194 77/121/195 80/124/196
f 81/125/197 79/123/198 80/124/199 82/126/200
f 83/127/201 84/128/202 81/129/203 82/130/204
f 85/131/205 84/128/206 83/127/207 86/132/208
f 87/133/209 85/131/210 86/132/211 88/134/212
f 88/134/213 75/119/214 73/118/215 87/133/216
s 8
f 66/135/217 65/136/218 73/118/219 74/117/220
f 67/137/221 66/138/217 74/117/220 78/122/222
f 68/139/223 67/140/221 78/122/222 79/123/224
f 69/141/225 68/142/223 79/123/224 81/125/226
f 70/143/227 69/144/225 81/129/226 84/128/228
f 71/145/229 70/146/227 84/128/228 85/131/230
f 72/147/231 71/148/229 85/131/230 87/133/232
f 65/149/218 72/150/231 87/133/232 73/118/219
s off
f 46/151/233 41/152/234 89/153/235 90/154/236
f 42/155/237 43/156/238 92/157/239 91/158/240
f 44/159/241 47/160/242 94/161/243 93/162/244
f 48/163/245 45/164/246 95/165/247 96/166/248
f 41/167/249 42/168/250 91/158/251 89/153/252
f 43/169/253 44/170/254 93/162/255 92/157/256
f 45/171/257 46/172/258 90/154/259 95/165/260
f 47/173/261 48/174/262 96/175/263 94/161/264
f 90/154/265 89/153/266 97/176/267 98/177/268
f 91/158/269 92/157/270 100/178/271 99/179/272
f 93/162/273 94/161/274 102/180/275 101/181/276
f 96/166/277 95/165/278 103/182/279 104/183/280
f 89/153/281 91/158/282 99/179/283 97/176/284
f 92/157/285 93/162/286 101/181/287 100/178/288
f 95/165/289 90/154/290 98/177/291 103/182/292
f 94/161/293 96/175/294 104/184/295 102/180/296
