# This file uses centimeters as units for non-parametric coordinates.

mtllib ad_sign_free_center.mtl
g default
v -0.050000 1.167496 0.020503
v -0.020503 1.167496 0.050000
v 0.020503 1.167496 0.050000
v 0.050000 1.167496 0.020503
v -0.020503 1.167496 -0.050000
v -0.050000 1.167496 -0.020503
v 0.050000 1.167496 -0.020503
v 0.020503 1.167496 -0.050000
v -0.049999 0.352765 0.020503
v -0.049999 0.352765 -0.020503
v -0.020501 0.352765 -0.050000
v 0.020504 0.352765 -0.050000
v 0.050001 0.352765 -0.020503
v 0.050001 0.352765 0.020503
v 0.020504 0.352765 0.050000
v -0.020501 0.352765 0.050000
v 0.027222 0.345711 0.066218
v -0.027219 0.345711 0.066218
v -0.027219 0.345711 -0.066218
v 0.027222 0.345711 -0.066218
v 0.066219 0.345711 -0.027220
v 0.066219 0.345711 0.027220
v -0.066216 0.345711 0.027220
v -0.066216 0.345711 -0.027220
v -0.027219 0.103713 0.066218
v 0.027222 0.103713 0.066218
v 0.066219 0.103713 0.027220
v 0.066219 0.103713 -0.027220
v 0.027222 0.103713 -0.066218
v -0.027219 0.103713 -0.066218
v -0.066216 0.103713 -0.027220
v -0.066216 0.103713 0.027220
v -0.046073 0.103713 0.111654
v 0.046074 0.103713 0.111654
v -0.046073 -0.053497 0.111654
v 0.046074 -0.053497 0.111654
v 0.111654 -0.053497 0.046073
v 0.111654 0.103713 0.046073
v 0.111654 0.103713 -0.046073
v 0.111654 -0.053497 -0.046073
v 0.046074 0.103713 -0.111654
v 0.046074 -0.053497 -0.111654
v -0.046073 -0.053497 -0.111654
v -0.046073 0.103713 -0.111654
v -0.111654 0.103713 -0.046073
v -0.111654 -0.053497 -0.046073
v -0.111654 0.103713 0.046073
v -0.111654 -0.053497 0.046073
v -0.064913 1.171915 0.026618
v -0.064913 1.171915 -0.026618
v -0.026618 1.171915 0.064913
v 0.026618 1.171915 0.064913
v 0.064914 1.171915 0.026618
v 0.064914 1.171915 -0.026618
v -0.026618 1.171915 -0.064913
v 0.026618 1.171915 -0.064913
v -0.064913 1.470122 0.026618
v -0.064913 1.470122 -0.026618
v -0.026618 1.470122 0.064913
v 0.026618 1.470122 0.064913
v 0.064914 1.470122 0.026618
v 0.064914 1.470122 -0.026618
v -0.026618 1.470122 -0.064913
v 0.026618 1.470122 -0.064913
v 1.950000 1.167496 0.020503
v 1.979497 1.167496 0.050000
v 2.020503 1.167496 0.050000
v 2.050000 1.167496 0.020503
v 1.979497 1.167496 -0.050000
v 1.950000 1.167496 -0.020503
v 2.050000 1.167496 -0.020503
v 2.020503 1.167496 -0.050000
v 1.950000 0.352765 0.020503
v 1.950000 0.352765 -0.020503
v 1.979497 0.352765 -0.050000
v 2.020503 0.352765 -0.050000
v 2.050000 0.352765 -0.020503
v 2.050000 0.352765 0.020503
v 2.020503 0.352765 0.050000
v 1.979497 0.352765 0.050000
v 2.027220 0.345711 0.066218
v 1.972780 0.345711 0.066218
v 1.972780 0.345711 -0.066218
v 2.027220 0.345711 -0.066218
v 2.066217 0.345711 -0.027220
v 2.066217 0.345711 0.027220
v 1.933782 0.345711 0.027220
v 1.933782 0.345711 -0.027220
v 1.972780 0.103713 0.066218
v 2.027220 0.103713 0.066218
v 2.066217 0.103713 0.027220
v 2.066217 0.103713 -0.027220
v 2.027220 0.103713 -0.066218
v 1.972780 0.103713 -0.066218
v 1.933782 0.103713 -0.027220
v 1.933782 0.103713 0.027220
v 1.953926 0.103713 0.111654
v 2.046073 0.103713 0.111654
v 1.953926 -0.053497 0.111654
v 2.046073 -0.053497 0.111654
v 2.111654 -0.053497 0.046073
v 2.111654 0.103713 0.046073
v 2.111654 0.103713 -0.046073
v 2.111654 -0.053497 -0.046073
v 2.046073 0.103713 -0.111654
v 2.046073 -0.053497 -0.111654
v 1.953926 -0.053497 -0.111654
v 1.953926 0.103713 -0.111654
v 1.888346 0.103713 -0.046073
v 1.888346 -0.053497 -0.046073
v 1.888346 0.103713 0.046073
v 1.888346 -0.053497 0.046073
v 1.935086 1.171915 0.026618
v 1.935086 1.171915 -0.026618
v 1.973382 1.171915 0.064913
v 2.026618 1.171915 0.064913
v 2.064913 1.171915 0.026618
v 2.064913 1.171915 -0.026618
v 1.973382 1.171915 -0.064913
v 2.026618 1.171915 -0.064913
v 1.935086 1.470122 0.026618
v 1.935086 1.470122 -0.026618
v 1.973382 1.470122 0.064913
v 2.026618 1.470122 0.064913
v 2.064913 1.470122 0.026618
v 2.064913 1.470122 -0.026618
v 1.973382 1.470122 -0.064913
v 2.026618 1.470122 -0.064913
v -0.220473 2.997775 0.100000
v -0.500000 2.718248 0.100000
v -0.500000 2.718248 -0.100000
v -0.220473 2.997775 -0.100000
v 2.500000 2.718248 0.100000
v 2.220473 2.997775 0.100000
v 2.220473 2.997775 -0.100000
v 2.500000 2.718248 -0.100000
v -0.500000 1.679527 0.100000
v -0.220473 1.399999 0.100000
v -0.220473 1.399999 -0.100000
v -0.500000 1.679527 -0.100000
v 2.220473 1.399999 0.100000
v 2.500000 1.679527 0.100000
v 2.500000 1.679527 -0.100000
v 2.220473 1.399999 -0.100000
v -0.400000 1.779527 0.100000
v -0.120473 1.500000 0.100000
v 2.120473 1.500000 0.100000
v 2.400000 1.779527 0.100000
v 2.400000 2.618247 0.100000
v 2.120473 2.897775 0.100000
v -0.120473 2.897775 0.100000
v -0.400000 2.618247 0.100000
v -0.400000 2.618248 -0.100000
v -0.120473 2.897775 -0.100000
v 2.120473 2.897775 -0.100000
v 2.400000 2.618248 -0.100000
v 2.400000 1.779527 -0.100000
v 2.120473 1.500000 -0.100000
v -0.120473 1.500000 -0.100000
v -0.400000 1.779527 -0.100000
v -0.400000 1.779527 0.052504
v -0.120473 1.500000 0.052504
v 2.400000 1.779527 0.052504
v 2.120473 1.500000 0.052504
v 2.120473 2.897775 0.052504
v 2.400000 2.618247 0.052504
v -0.400000 2.618247 0.052504
v -0.120473 2.897775 0.052504
vt 0.416283 0.593302
vt 0.397135 0.593301
vt 0.406780 0.475995
vt 0.428889 0.475987
vt 0.495556 0.475984
vt 0.340112 0.475997
vt 0.339194 0.593298
vt 0.474224 0.593305
vt 0.454828 0.593304
vt 0.435680 0.593303
vt 0.451168 0.475989
vt 0.473276 0.475981
vt 0.377739 0.593300
vt 0.358592 0.593299
vt 0.362391 0.476000
vt 0.384500 0.475992
vt 0.526716 0.494416
vt 0.356228 0.599519
vt 0.375376 0.599520
vt 0.544688 0.494431
vt 0.508506 0.494429
vt 0.336831 0.599518
vt 0.471862 0.599525
vt 0.490534 0.494414
vt 0.617052 0.494434
vt 0.452465 0.599524
vt 0.599081 0.494419
vt 0.433317 0.599523
vt 0.413920 0.599522
vt 0.580870 0.494433
vt 0.562898 0.494417
vt 0.394773 0.599521
vt 0.433413 0.465077
vt 0.411291 0.465080
vt 0.411286 0.427338
vt 0.433409 0.427335
vt 0.455675 0.427333
vt 0.455679 0.465075
vt 0.477802 0.465072
vt 0.477797 0.427330
vt 0.322515 0.465091
vt 0.500063 0.427328
vt 0.344633 0.427346
vt 0.344637 0.465088
vt 0.366903 0.465086
vt 0.366898 0.427343
vt 0.389025 0.465083
vt 0.389021 0.427340
vt 0.542591 0.499657
vt 0.524655 0.499656
vt 0.578773 0.499659
vt 0.560838 0.499658
vt 0.614956 0.499661
vt 0.597020 0.499660
vt 0.506409 0.499655
vt 0.488474 0.499654
vt 0.542586 0.600126
vt 0.524650 0.600125
vt 0.578768 0.600128
vt 0.560832 0.600127
vt 0.614950 0.600130
vt 0.597015 0.600129
vt 0.506404 0.600124
vt 0.488468 0.600123
vt 0.633202 0.499662
vt 0.633197 0.600131
vt 0.654637 0.632653
vt 0.500067 0.465070
vt 0.322510 0.427348
vt 0.320051 0.508183
vt 0.320047 0.593297
vt 0.676856 0.687364
vt 0.377743 0.508187
vt 0.397140 0.508187
vt 0.358595 0.508185
vt 0.339199 0.508185
vt 0.474230 0.508191
vt 0.327042 0.475998
vt 0.454832 0.508190
vt 0.435685 0.508189
vt 0.416288 0.508188
vt 0.665746 0.687364
vt 0.668548 0.687364
vt 0.662993 0.687364
vt 0.660191 0.687364
vt 0.657438 0.687364
vt 0.654637 0.687364
vt 0.322409 0.599517
vt 0.674102 0.687364
vt 0.671301 0.687364
vt 0.676856 0.632653
vt 0.631107 0.494435
vt 0.657438 0.632653
vt 0.671301 0.632653
vt 0.674102 0.632653
vt 0.660191 0.632653
vt 0.662993 0.632653
vt 0.665746 0.632653
vt 0.668548 0.632653
vt 0.504349 0.494414
vt 0.612896 0.494420
vt 0.594924 0.494433
vt 0.576714 0.494418
vt 0.558742 0.494431
vt 0.522560 0.494429
vt 0.540531 0.494416
vt 0.393539 0.475996
vt 0.371430 0.475993
vt 0.349151 0.476002
vt 0.482315 0.475986
vt 0.460206 0.475983
vt 0.437927 0.475991
vt 0.415818 0.475988
vt 0.360954 0.599519
vt 0.380101 0.599520
vt 0.438043 0.599523
vt 0.457190 0.599524
vt 0.341557 0.599518
vt 0.399498 0.599521
vt 0.418646 0.599522
vt 0.416283 0.593302
vt 0.397135 0.593301
vt 0.397139 0.508187
vt 0.416287 0.508188
vt 0.320051 0.508183
vt 0.339198 0.508185
vt 0.339194 0.593298
vt 0.320047 0.593297
vt 0.454828 0.593304
vt 0.435680 0.593302
vt 0.435684 0.508189
vt 0.454832 0.508190
vt 0.377739 0.593300
vt 0.358591 0.593299
vt 0.358595 0.508186
vt 0.377743 0.508186
vt 0.474224 0.593304
vt 0.474228 0.508191
vt 0.671301 0.632653
vt 0.671301 0.687363
vt 0.668548 0.687363
vt 0.668548 0.632653
vt 0.674102 0.632653
vt 0.674102 0.687363
vt 0.676856 0.687363
vt 0.676856 0.632653
vt 0.654637 0.632653
vt 0.657438 0.632653
vt 0.657438 0.687363
vt 0.654637 0.687363
vt 0.660192 0.632653
vt 0.660192 0.687363
vt 0.662993 0.687363
vt 0.662993 0.632653
vt 0.665746 0.632653
vt 0.665746 0.687363
vt 0.413921 0.599522
vt 0.399498 0.599521
vt 0.336832 0.599518
vt 0.322409 0.599517
vt 0.452465 0.599523
vt 0.438043 0.599523
vt 0.375376 0.599520
vt 0.360953 0.599519
vt 0.394773 0.599521
vt 0.380101 0.599520
vt 0.433317 0.599522
vt 0.418646 0.599522
vt 0.356229 0.599519
vt 0.341557 0.599518
vt 0.471861 0.599524
vt 0.457190 0.599524
vt 0.433413 0.465078
vt 0.411290 0.465080
vt 0.411286 0.427338
vt 0.433409 0.427335
vt 0.455675 0.427333
vt 0.455679 0.465076
vt 0.477801 0.465073
vt 0.477798 0.427330
vt 0.500067 0.465071
vt 0.500063 0.427328
vt 0.344632 0.427345
vt 0.344636 0.465088
vt 0.322514 0.465090
vt 0.322510 0.427347
vt 0.366902 0.465085
vt 0.366898 0.427343
vt 0.389024 0.465083
vt 0.389020 0.427340
vt 0.428888 0.475987
vt 0.415818 0.475988
vt 0.451167 0.475990
vt 0.437927 0.475991
vt 0.473276 0.475982
vt 0.460206 0.475984
vt 0.495556 0.475985
vt 0.482316 0.475987
vt 0.340111 0.475996
vt 0.327041 0.475998
vt 0.362390 0.475999
vt 0.349150 0.476001
vt 0.384499 0.475992
vt 0.371430 0.475993
vt 0.406779 0.475995
vt 0.393538 0.475996
vt 0.526717 0.494415
vt 0.540532 0.494416
vt 0.542593 0.499656
vt 0.524657 0.499655
vt 0.562900 0.494417
vt 0.576714 0.494419
vt 0.578775 0.499659
vt 0.560839 0.499658
vt 0.599082 0.494420
vt 0.612897 0.494421
vt 0.614957 0.499662
vt 0.597021 0.499660
vt 0.490535 0.494412
vt 0.504350 0.494413
vt 0.506410 0.499654
vt 0.488474 0.499652
vt 0.544689 0.494430
vt 0.558743 0.494431
vt 0.580871 0.494433
vt 0.594925 0.494434
vt 0.508506 0.494428
vt 0.522562 0.494429
vt 0.617054 0.494435
vt 0.631107 0.494436
vt 0.633203 0.499663
vt 0.542585 0.600126
vt 0.524650 0.600124
vt 0.578768 0.600128
vt 0.560831 0.600127
vt 0.614949 0.600131
vt 0.597013 0.600129
vt 0.506403 0.600123
vt 0.488468 0.600122
vt 0.633196 0.600132
vt 0.472212 0.225001
vt 0.506455 0.190767
vt 0.780941 0.190806
vt 0.815174 0.225049
vt 0.815160 0.327781
vt 0.780917 0.362015
vt 0.506431 0.361976
vt 0.472197 0.327733
vt 0.965590 0.723360
vt 0.965590 0.733109
vt 0.996944 0.705539
vt 0.977793 0.735791
vt 0.982321 0.590200
vt 0.969949 0.574504
vt 0.969949 0.564754
vt 0.965175 0.559880
vt 0.913388 0.723360
vt 0.913388 0.733109
vt 0.918162 0.737984
vt 0.917747 0.574504
vt 0.917747 0.564754
vt 0.891267 0.587711
vt 0.886392 0.592324
vt 0.919073 0.716485
vt 0.908016 0.593372
vt 0.964264 0.581379
vt 0.975320 0.704492
vt 0.982321 0.710153
vt 0.992070 0.590200
vt 0.891267 0.707664
vt 0.901016 0.587711
vt 0.901016 0.707664
vt 0.905837 0.593372
vt 0.964264 0.579283
vt 0.977499 0.704492
vt 0.919073 0.718580
vt 0.992070 0.710153
vt 0.995781 0.578185
vt 0.905544 0.562072
vt 0.887555 0.719679
vt 0.905837 0.702663
vt 0.908016 0.702663
vt 0.922796 0.579283
vt 0.922796 0.581379
vt 0.977499 0.595201
vt 0.975320 0.595201
vt 0.960540 0.718580
vt 0.960540 0.716485
vt 0.896197 0.580746
vt 0.891412 0.575799
vt 0.886392 0.702434
vt 0.892479 0.714846
vt 0.996944 0.595430
vt 0.990857 0.583018
vt 0.987140 0.717118
vt 0.991925 0.722064
vt 0.923131 0.559880
vt 0.910427 0.566964
vt 0.906248 0.729146
vt 0.901246 0.733892
vt 0.977088 0.568717
vt 0.982090 0.563972
vt 0.960206 0.737984
vt 0.972910 0.730900
vn 0.000000 0.000000 1.000000
vn 0.000000 0.000000 1.000000
vn 0.000000 0.000000 1.000000
vn 0.000000 0.000000 1.000000
vn 0.000000 0.000000 -1.000000
vn 0.000000 0.000000 -1.000000
vn 0.000000 0.000000 -1.000000
vn 0.000000 0.000000 -1.000000
vn 1.000000 0.000000 0.000000
vn 1.000000 0.000000 0.000000
vn 1.000000 0.000000 0.000000
vn 1.000000 0.000000 0.000000
vn -1.000000 0.000000 0.000000
vn -1.000000 0.000000 0.000000
vn -1.000000 0.000000 0.000000
vn -1.000000 0.000000 0.000000
vn -0.707108 0.000000 0.707106
vn -0.707108 0.000000 0.707106
vn -0.707108 0.000000 0.707106
vn -0.707108 0.000000 0.707106
vn 0.707106 0.000000 0.707107
vn 0.707106 0.000000 0.707107
vn 0.707106 0.000000 0.707107
vn 0.707106 0.000000 0.707107
vn -0.707108 0.000000 -0.707106
vn -0.707108 0.000000 -0.707106
vn -0.707108 0.000000 -0.707106
vn -0.707108 0.000000 -0.707106
vn 0.707106 0.000000 -0.707107
vn 0.707106 0.000000 -0.707107
vn 0.707106 0.000000 -0.707107
vn 0.707106 0.000000 -0.707107
vn -1.000000 -0.000002 0.000000
vn -1.000000 -0.000002 0.000000
vn -1.000000 -0.000002 0.000000
vn -1.000000 -0.000002 0.000000
vn -0.707107 -0.000001 -0.707107
vn -0.707107 -0.000001 -0.707107
vn -0.707107 -0.000001 -0.707107
vn -0.707107 -0.000001 -0.707107
vn 0.000000 0.000000 -1.000000
vn 0.000000 0.000000 -1.000000
vn 0.000000 0.000000 -1.000000
vn 0.000000 0.000000 -1.000000
vn 0.707106 0.000001 -0.707107
vn 0.707106 0.000001 -0.707107
vn 0.707106 0.000001 -0.707107
vn 0.707106 0.000001 -0.707107
vn 1.000000 0.000002 0.000000
vn 1.000000 0.000002 0.000000
vn 1.000000 0.000002 0.000000
vn 1.000000 0.000002 0.000000
vn 0.707106 0.000001 0.707107
vn 0.707106 0.000001 0.707107
vn 0.707106 0.000001 0.707107
vn 0.707106 0.000001 0.707107
vn 0.000000 0.000000 1.000000
vn 0.000000 0.000000 1.000000
vn 0.000000 0.000000 1.000000
vn 0.000000 0.000000 1.000000
vn -0.707107 -0.000001 0.707107
vn -0.707107 -0.000001 0.707107
vn -0.707107 -0.000001 0.707107
vn -0.707107 -0.000001 0.707107
vn 0.143742 0.927884 0.344048
vn -0.143743 0.927884 0.344048
vn -0.143743 0.927884 0.344048
vn 0.143743 0.927884 0.344047
vn -0.143743 0.927884 -0.344049
vn 0.143742 0.927884 -0.344048
vn 0.143743 0.927884 -0.344048
vn -0.143743 0.927884 -0.344048
vn 0.344048 0.927884 -0.143743
vn 0.344047 0.927884 0.143742
vn 0.344048 0.927885 0.143742
vn 0.344048 0.927884 -0.143742
vn -0.344049 0.927884 0.143743
vn -0.344049 0.927884 -0.143743
vn -0.344049 0.927884 -0.143743
vn -0.344049 0.927884 0.143743
vn 0.000000 0.000000 1.000000
vn 0.000000 0.000000 1.000000
vn 0.000000 0.000000 1.000000
vn 0.000000 0.000000 1.000000
vn 0.707107 0.000000 0.707106
vn 0.707107 0.000000 0.707106
vn 0.707107 0.000000 0.707106
vn 0.707107 0.000000 0.707106
vn 1.000000 0.000000 0.000000
vn 1.000000 0.000000 0.000000
vn 1.000000 0.000000 0.000000
vn 1.000000 0.000000 0.000000
vn 0.707107 0.000000 -0.707106
vn 0.707107 0.000000 -0.707106
vn 0.707107 0.000000 -0.707106
vn 0.707107 0.000000 -0.707106
vn -0.000000 0.000000 -1.000000
vn -0.000000 0.000000 -1.000000
vn -0.000000 0.000000 -1.000000
vn -0.000000 0.000000 -1.000000
vn -0.707107 0.000000 -0.707107
vn -0.707107 0.000000 -0.707107
vn -0.707107 0.000000 -0.707107
vn -0.707107 0.000000 -0.707107
vn -1.000000 0.000000 0.000000
vn -1.000000 0.000000 0.000000
vn -1.000000 0.000000 0.000000
vn -1.000000 0.000000 0.000000
vn -0.707107 0.000000 0.707107
vn -0.707107 0.000000 0.707107
vn -0.707107 0.000000 0.707107
vn -0.707107 0.000000 0.707107
vn 0.000000 1.000000 0.000000
vn 0.000000 1.000000 0.000000
vn 0.000000 1.000000 0.000000
vn 0.000000 1.000000 0.000000
vn 0.000000 1.000000 0.000000
vn 0.000000 1.000000 0.000000
vn 0.000000 1.000000 0.000000
vn 0.000000 1.000000 0.000000
vn 0.000000 1.000000 0.000000
vn 0.000000 1.000000 0.000000
vn 0.000000 1.000000 -0.000000
vn 0.000000 1.000000 -0.000000
vn 0.000000 1.000000 -0.000000
vn 0.000000 1.000000 -0.000000
vn 0.000000 1.000000 0.000000
vn 0.000000 1.000000 0.000000
vn -0.284120 -0.958789 0.000000
vn -0.284120 -0.958789 0.000000
vn -0.284120 -0.958789 0.000000
vn -0.284120 -0.958789 0.000000
vn 0.000000 -0.958788 0.284121
vn 0.000000 -0.958789 0.284121
vn 0.000000 -0.958789 0.284121
vn 0.000000 -0.958789 0.284121
vn 0.284119 -0.958789 0.000000
vn 0.284119 -0.958789 0.000000
vn 0.284119 -0.958789 0.000000
vn 0.284119 -0.958789 0.000000
vn 0.000000 -0.958789 -0.284118
vn 0.000000 -0.958790 -0.284118
vn 0.000000 -0.958789 -0.284118
vn 0.000000 -0.958789 -0.284118
vn -0.201447 -0.958560 0.201450
vn -0.201447 -0.958560 0.201450
vn -0.201447 -0.958560 0.201450
vn -0.201447 -0.958560 0.201450
vn 0.201447 -0.958560 0.201449
vn 0.201447 -0.958560 0.201449
vn 0.201447 -0.958560 0.201449
vn 0.201447 -0.958560 0.201449
vn -0.201447 -0.958560 -0.201451
vn -0.201447 -0.958560 -0.201451
vn -0.201447 -0.958560 -0.201451
vn -0.201447 -0.958560 -0.201451
vn 0.201447 -0.958560 -0.201449
vn 0.201447 -0.958560 -0.201449
vn 0.201447 -0.958560 -0.201449
vn 0.201447 -0.958560 -0.201449
vn -1.000000 0.000000 0.000000
vn -1.000000 0.000000 0.000000
vn -1.000000 0.000000 0.000000
vn -1.000000 0.000000 0.000000
vn 0.000000 0.000000 1.000000
vn 0.000000 0.000000 1.000000
vn 0.000000 0.000000 1.000000
vn 0.000000 0.000000 1.000000
vn 1.000000 0.000000 0.000000
vn 1.000000 0.000000 0.000000
vn 1.000000 0.000000 0.000000
vn 1.000000 0.000000 0.000000
vn 0.000000 0.000000 -1.000000
vn 0.000000 0.000000 -1.000000
vn 0.000000 0.000000 -1.000000
vn 0.000000 0.000000 -1.000000
vn -0.707106 0.000000 0.707107
vn -0.707106 0.000000 0.707107
vn -0.707106 0.000000 0.707107
vn -0.707106 0.000000 0.707107
vn 0.707106 0.000000 0.707108
vn 0.707106 0.000000 0.707108
vn 0.707106 0.000000 0.707108
vn 0.707106 0.000000 0.707108
vn -0.707106 0.000000 -0.707107
vn -0.707106 0.000000 -0.707107
vn -0.707106 0.000000 -0.707107
vn -0.707106 0.000000 -0.707107
vn 0.707106 0.000000 -0.707108
vn 0.707106 0.000000 -0.707108
vn 0.707106 0.000000 -0.707108
vn 0.707106 0.000000 -0.707108
vn 0.000000 0.000000 1.000000
vn 0.000000 0.000000 1.000000
vn 0.000000 0.000000 1.000000
vn 0.000000 0.000000 1.000000
vn 0.000000 0.000000 -1.000000
vn 0.000000 0.000000 -1.000000
vn 0.000000 0.000000 -1.000000
vn 0.000000 0.000000 -1.000000
vn 1.000000 0.000000 0.000000
vn 1.000000 0.000000 0.000000
vn 1.000000 0.000000 0.000000
vn 1.000000 0.000000 0.000000
vn -1.000000 0.000000 0.000000
vn -1.000000 0.000000 0.000000
vn -1.000000 0.000000 0.000000
vn -1.000000 0.000000 0.000000
vn -0.707106 0.000000 0.707108
vn -0.707106 0.000000 0.707108
vn -0.707106 0.000000 0.707108
vn -0.707106 0.000000 0.707108
vn 0.707108 0.000000 0.707106
vn 0.707108 0.000000 0.707106
vn 0.707108 0.000000 0.707106
vn 0.707108 0.000000 0.707106
vn -0.707106 0.000000 -0.707108
vn -0.707106 0.000000 -0.707108
vn -0.707106 0.000000 -0.707108
vn -0.707106 0.000000 -0.707108
vn 0.707108 0.000000 -0.707106
vn 0.707108 0.000000 -0.707106
vn 0.707108 0.000000 -0.707106
vn 0.707108 0.000000 -0.707106
vn -1.000000 0.000000 0.000000
vn -1.000000 0.000000 0.000000
vn -1.000000 0.000000 0.000000
vn -1.000000 0.000000 0.000000
vn -0.707107 0.000000 -0.707107
vn -0.707107 0.000000 -0.707107
vn -0.707107 0.000000 -0.707107
vn -0.707107 0.000000 -0.707107
vn 0.000000 0.000000 -1.000000
vn 0.000000 0.000000 -1.000000
vn 0.000000 0.000000 -1.000000
vn 0.000000 0.000000 -1.000000
vn 0.707108 0.000000 -0.707105
vn 0.707108 0.000000 -0.707105
vn 0.707108 0.000000 -0.707105
vn 0.707108 0.000000 -0.707105
vn 1.000000 0.000000 0.000000
vn 1.000000 0.000000 0.000000
vn 1.000000 0.000000 0.000000
vn 1.000000 0.000000 0.000000
vn 0.707108 0.000000 0.707105
vn 0.707108 0.000000 0.707105
vn 0.707108 0.000000 0.707105
vn 0.707108 0.000000 0.707105
vn 0.000000 0.000000 1.000000
vn 0.000000 0.000000 1.000000
vn 0.000000 0.000000 1.000000
vn 0.000000 0.000000 1.000000
vn -0.707107 0.000000 0.707107
vn -0.707107 0.000000 0.707107
vn -0.707107 0.000000 0.707107
vn -0.707107 0.000000 0.707107
vn 0.143743 0.927884 0.344048
vn -0.143742 0.927885 0.344047
vn -0.143742 0.927885 0.344047
vn 0.143742 0.927884 0.344049
vn -0.143742 0.927884 -0.344048
vn 0.143743 0.927884 -0.344048
vn 0.143742 0.927884 -0.344049
vn -0.143743 0.927884 -0.344048
vn 0.344050 0.927884 -0.143742
vn 0.344049 0.927884 0.143741
vn 0.344048 0.927884 0.143742
vn 0.344049 0.927884 -0.143742
vn -0.344046 0.927885 0.143742
vn -0.344045 0.927885 -0.143742
vn -0.344046 0.927885 -0.143741
vn -0.344046 0.927885 0.143742
vn 0.000000 0.000000 1.000000
vn 0.000000 0.000000 1.000000
vn 0.000000 0.000000 1.000000
vn 0.000000 0.000000 1.000000
vn 0.707107 0.000000 0.707107
vn 0.707107 0.000000 0.707107
vn 0.707107 0.000000 0.707107
vn 0.707107 0.000000 0.707107
vn 1.000000 0.000000 0.000000
vn 1.000000 0.000000 0.000000
vn 1.000000 0.000000 0.000000
vn 1.000000 0.000000 0.000000
vn 0.707107 0.000000 -0.707107
vn 0.707107 0.000000 -0.707107
vn 0.707107 0.000000 -0.707107
vn 0.707107 0.000000 -0.707107
vn -0.000000 0.000000 -1.000000
vn -0.000000 0.000000 -1.000000
vn -0.000000 0.000000 -1.000000
vn -0.000000 0.000000 -1.000000
vn -0.707107 0.000000 -0.707106
vn -0.707107 0.000000 -0.707106
vn -0.707107 0.000000 -0.707106
vn -0.707107 0.000000 -0.707106
vn -1.000000 0.000000 0.000000
vn -1.000000 0.000000 0.000000
vn -1.000000 0.000000 0.000000
vn -1.000000 0.000000 0.000000
vn -0.707107 0.000000 0.707106
vn -0.707107 0.000000 0.707106
vn -0.707107 0.000000 0.707106
vn -0.707107 0.000000 0.707106
vn 0.000000 1.000000 0.000000
vn 0.000000 1.000000 0.000000
vn 0.000000 1.000000 0.000000
vn 0.000000 1.000000 0.000000
vn 0.000000 1.000000 0.000000
vn 0.000000 1.000000 0.000000
vn 0.000000 1.000000 -0.000000
vn 0.000000 1.000000 -0.000000
vn 0.000000 1.000000 -0.000000
vn 0.000000 1.000000 -0.000000
vn 0.000000 1.000000 0.000000
vn 0.000000 1.000000 0.000000
vn 0.000000 1.000000 0.000000
vn 0.000000 1.000000 0.000000
vn 0.000000 1.000000 0.000000
vn 0.000000 1.000000 0.000000
vn -0.284119 -0.958789 0.000000
vn -0.284119 -0.958789 0.000000
vn -0.284119 -0.958789 0.000000
vn -0.284119 -0.958789 0.000000
vn 0.000000 -0.958788 0.284122
vn 0.000000 -0.958788 0.284122
vn 0.000000 -0.958788 0.284122
vn 0.000000 -0.958788 0.284122
vn 0.284121 -0.958789 0.000000
vn 0.284121 -0.958789 0.000000
vn 0.284121 -0.958789 0.000000
vn 0.284121 -0.958789 0.000000
vn 0.000000 -0.958789 -0.284119
vn 0.000000 -0.958789 -0.284119
vn 0.000000 -0.958789 -0.284119
vn 0.000000 -0.958789 -0.284119
vn -0.201445 -0.958560 0.201450
vn -0.201445 -0.958560 0.201450
vn -0.201445 -0.958560 0.201450
vn -0.201445 -0.958560 0.201450
vn 0.201450 -0.958559 0.201451
vn 0.201450 -0.958559 0.201451
vn 0.201450 -0.958559 0.201451
vn 0.201450 -0.958559 0.201451
vn -0.201445 -0.958561 -0.201448
vn -0.201445 -0.958561 -0.201448
vn -0.201445 -0.958561 -0.201448
vn -0.201445 -0.958561 -0.201448
vn 0.201449 -0.958559 -0.201452
vn 0.201450 -0.958559 -0.201452
vn 0.201450 -0.958559 -0.201452
vn 0.201450 -0.958559 -0.201452
vn -1.000000 0.000000 0.000000
vn -1.000000 0.000000 0.000000
vn -1.000000 0.000000 0.000000
vn -1.000000 0.000000 0.000000
vn 0.000000 0.000000 1.000000
vn 0.000000 0.000000 1.000000
vn 0.000000 0.000000 1.000000
vn 0.000000 0.000000 1.000000
vn 1.000000 0.000000 0.000000
vn 1.000000 0.000000 0.000000
vn 1.000000 0.000000 0.000000
vn 1.000000 0.000000 0.000000
vn 0.000000 0.000000 -1.000000
vn 0.000000 0.000000 -1.000000
vn 0.000000 0.000000 -1.000000
vn 0.000000 0.000000 -1.000000
vn -0.707105 0.000000 0.707108
vn -0.707105 0.000000 0.707108
vn -0.707105 0.000000 0.707108
vn -0.707105 0.000000 0.707108
vn 0.707107 0.000000 0.707106
vn 0.707107 0.000000 0.707106
vn 0.707107 0.000000 0.707106
vn 0.707107 0.000000 0.707106
vn -0.707105 0.000000 -0.707108
vn -0.707105 0.000000 -0.707108
vn -0.707105 0.000000 -0.707108
vn -0.707105 0.000000 -0.707108
vn 0.707107 0.000000 -0.707106
vn 0.707107 0.000000 -0.707106
vn 0.707107 0.000000 -0.707106
vn 0.707107 0.000000 -0.707106
vn 0.000000 0.000000 1.000000
vn 0.000000 0.000000 1.000000
vn 0.000000 0.000000 1.000000
vn 0.000000 0.000000 1.000000
vn 0.000000 0.000000 1.000000
vn 0.000000 0.000000 1.000000
vn 0.000000 0.000000 1.000000
vn 0.000000 0.000000 1.000000
vn -0.707107 0.707107 0.000000
vn -0.707107 0.707107 0.000000
vn -0.707107 0.707107 0.000000
vn -0.707107 0.707107 0.000000
vn -0.000000 0.000000 -1.000000
vn 0.000000 0.000000 -1.000000
vn 0.000000 0.000000 -1.000000
vn -0.000000 0.000000 -1.000000
vn -0.000000 0.000000 1.000000
vn -0.000000 0.000000 1.000000
vn -0.000000 0.000000 1.000000
vn -0.000000 0.000000 1.000000
vn 0.707107 0.707107 0.000000
vn 0.707107 0.707107 0.000000
vn 0.707107 0.707107 0.000000
vn 0.707107 0.707107 0.000000
vn -0.000000 0.000000 -1.000000
vn -0.000000 0.000000 -1.000000
vn -0.000000 0.000000 -1.000000
vn -0.000000 0.000000 -1.000000
vn 0.000000 0.000000 1.000000
vn 0.000000 0.000000 1.000000
vn 0.000000 0.000000 1.000000
vn 0.000000 0.000000 1.000000
vn -0.707109 -0.707105 0.000000
vn -0.707109 -0.707105 0.000000
vn -0.707109 -0.707105 0.000000
vn -0.707109 -0.707105 0.000000
vn 0.000000 0.000000 -1.000000
vn -0.000000 0.000000 -1.000000
vn -0.000000 0.000000 -1.000000
vn 0.000000 0.000000 -1.000000
vn -0.000000 0.000000 1.000000
vn -0.000000 0.000000 1.000000
vn -0.000000 0.000000 1.000000
vn -0.000000 0.000000 1.000000
vn 0.707108 -0.707105 0.000000
vn 0.707108 -0.707105 0.000000
vn 0.707108 -0.707105 0.000000
vn 0.707108 -0.707105 0.000000
vn -0.000000 0.000000 -1.000000
vn -0.000000 0.000000 -1.000000
vn -0.000000 0.000000 -1.000000
vn -0.000000 0.000000 -1.000000
vn 0.707107 0.707107 0.000000
vn 0.707107 0.707107 0.000000
vn 0.707107 0.707107 0.000000
vn 0.707107 0.707107 0.000000
vn -0.707107 0.707107 0.000000
vn -0.707107 0.707107 0.000000
vn -0.707107 0.707107 0.000000
vn -0.707107 0.707107 0.000000
vn -0.707107 -0.707107 0.000000
vn -0.707107 -0.707107 0.000000
vn -0.707107 -0.707107 0.000000
vn -0.707107 -0.707107 0.000000
vn 0.707107 -0.707106 0.000000
vn 0.707107 -0.707106 0.000000
vn 0.707107 -0.707106 0.000000
vn 0.707107 -0.707106 0.000000
vn 0.000000 1.000000 0.000000
vn 0.000000 1.000000 0.000000
vn 0.000000 1.000000 0.000000
vn 0.000000 1.000000 0.000000
vn 0.000000 -1.000000 0.000000
vn 0.000000 -1.000000 0.000000
vn 0.000000 -1.000000 0.000000
vn 0.000000 -1.000000 0.000000
vn 1.000000 0.000000 0.000000
vn 1.000000 0.000000 0.000000
vn 1.000000 0.000000 0.000000
vn 1.000000 0.000000 0.000000
vn -1.000000 0.000000 0.000000
vn -1.000000 0.000000 0.000000
vn -1.000000 0.000000 0.000000
vn -1.000000 0.000000 0.000000
vn 0.000000 1.000000 0.000000
vn 0.000000 1.000000 0.000000
vn 0.000000 1.000000 0.000000
vn 0.000000 1.000000 0.000000
vn -1.000000 0.000000 0.000000
vn -1.000000 0.000000 0.000000
vn -1.000000 0.000000 0.000000
vn -1.000000 0.000000 0.000000
vn 0.000000 -1.000000 0.000000
vn 0.000000 -1.000000 0.000000
vn 0.000000 -1.000000 0.000000
vn 0.000000 -1.000000 0.000000
vn 1.000000 0.000000 0.000000
vn 1.000000 0.000000 0.000000
vn 1.000000 0.000000 0.000000
vn 1.000000 0.000000 0.000000
vn -0.000000 0.000000 1.000000
vn -0.000000 0.000000 1.000000
vn -0.000000 0.000000 1.000000
vn -0.000000 0.000000 1.000000
s off
g panneau_2poutres decor1 obstacle
usemtl lambert2SG
f 17/1/1 18/2/2 25/74/3 26/81/4
f 29/70/5 30/76/6 19/7/7 20/71/8
f 21/9/9 22/10/10 27/80/11 28/79/12
f 23/13/13 24/14/14 31/75/15 32/73/16
f 32/73/17 25/74/18 18/2/19 23/13/20
f 26/81/21 27/80/22 22/10/23 17/1/24
f 24/14/25 19/7/26 30/76/27 31/75/28
f 20/8/29 21/9/30 28/79/31 29/77/32
f 6/94/33 10/90/34 9/83/35 1/99/36
f 6/94/37 5/95/38 11/89/39 10/90/40
f 12/72/41 11/89/42 5/95/43 8/91/44
f 8/67/45 7/93/46 13/86/47 12/87/48
f 4/96/49 14/85/50 13/86/51 7/93/52
f 15/84/53 14/85/54 4/96/55 3/97/56
f 2/98/57 16/82/58 15/84/59 3/97/60
f 9/83/61 16/82/62 2/98/63 1/99/64
s 1
f 15/29/65 16/119/66 18/2/67 17/1/68
f 11/22/69 12/88/70 20/71/71 19/7/72
f 13/26/73 14/116/74 22/10/75 21/9/76
f 9/19/77 10/114/78 24/14/79 23/13/80
f 16/32/66 9/115/77 23/13/80 18/2/67
f 14/28/74 15/120/65 17/1/68 22/10/75
f 10/18/78 11/118/69 19/7/72 24/14/79
f 12/23/70 13/117/73 21/9/76 20/8/71
s off
f 34/33/81 33/34/82 35/35/83 36/36/84
f 36/36/85 37/37/86 38/38/87 34/33/88
f 39/39/89 38/38/90 37/37/91 40/40/92
f 41/68/93 39/39/94 40/40/95 42/42/96
f 43/43/97 44/44/98 41/41/99 42/69/100
f 45/45/101 44/44/102 43/43/103 46/46/104
f 47/47/105 45/45/106 46/46/107 48/48/108
f 48/48/109 35/35/110 33/34/111 47/47/112
s 3
f 26/4/113 25/113/114 33/34/115 34/33/116
f 27/11/117 26/112/113 34/33/116 38/38/118
f 28/12/119 27/111/117 38/38/118 39/39/120
f 29/5/121 28/110/119 39/39/120 41/68/122
f 30/6/123 29/78/121 41/41/122 44/44/124
f 31/15/125 30/109/123 44/44/124 45/45/126
f 32/16/127 31/108/125 45/45/126 47/47/128
f 25/3/114 32/107/127 47/47/128 33/34/115
s off
f 6/17/129 1/106/130 49/49/131 50/50/132
f 2/31/133 3/103/134 52/51/135 51/52/136
f 4/27/137 7/101/138 54/53/139 53/54/140
f 8/24/141 5/100/142 55/55/143 56/56/144
f 1/20/145 2/104/146 51/52/147 49/49/148
f 3/30/149 4/102/150 53/54/151 52/51/152
f 5/21/153 6/105/154 50/50/155 55/55/156
f 7/25/157 8/92/158 56/65/159 54/53/160
f 50/50/161 49/49/162 57/57/163 58/58/164
f 51/52/165 52/51/166 60/59/167 59/60/168
f 53/54/169 54/53/170 62/61/171 61/62/172
f 56/56/173 55/55/174 63/63/175 64/64/176
f 49/49/177 51/52/178 59/60/179 57/57/180
f 52/51/181 53/54/182 61/62/183 60/59/184
f 55/55/185 50/50/186 58/58/187 63/63/188
f 54/53/189 56/65/190 64/66/191 62/61/192
f 81/121/193 82/122/194 89/123/195 90/124/196
f 93/125/197 94/126/198 83/127/199 84/128/200
f 85/129/201 86/130/202 91/131/203 92/132/204
f 87/133/205 88/134/206 95/135/207 96/136/208
f 96/136/209 89/123/210 82/122/211 87/133/212
f 90/124/213 91/131/214 86/130/215 81/121/216
f 88/134/217 83/127/218 94/126/219 95/135/220
f 84/137/221 85/129/222 92/132/223 93/138/224
f 70/139/225 74/140/226 73/141/227 65/142/228
f 70/139/229 69/143/230 75/144/231 74/140/232
f 76/145/233 75/144/234 69/143/235 72/146/236
f 72/147/237 71/148/238 77/149/239 76/150/240
f 68/151/241 78/152/242 77/149/243 71/148/244
f 79/153/245 78/152/246 68/151/247 67/154/248
f 66/155/249 80/156/250 79/153/251 67/154/252
f 73/141/253 80/156/254 66/155/255 65/142/256
s 4
f 79/157/257 80/158/258 82/122/259 81/121/260
f 75/159/261 76/160/262 84/128/263 83/127/264
f 77/161/265 78/162/266 86/130/267 85/129/268
f 73/163/269 74/164/270 88/134/271 87/133/272
f 80/165/258 73/166/269 87/133/272 82/122/259
f 78/167/266 79/168/257 81/121/260 86/130/267
f 74/169/270 75/170/261 83/127/264 88/134/271
f 76/171/262 77/172/265 85/129/268 84/137/263
s off
f 98/173/273 97/174/274 99/175/275 100/176/276
f 100/176/277 101/177/278 102/178/279 98/173/280
f 103/179/281 102/178/282 101/177/283 104/180/284
f 105/181/285 103/179/286 104/180/287 106/182/288
f 107/183/289 108/184/290 105/185/291 106/186/292
f 109/187/293 108/184/294 107/183/295 110/188/296
f 111/189/297 109/187/298 110/188/299 112/190/300
f 112/190/301 99/175/302 97/174/303 111/189/304
s 6
f 90/191/305 89/192/306 97/174/307 98/173/308
f 91/193/309 90/194/305 98/173/308 102/178/310
f 92/195/311 91/196/309 102/178/310 103/179/312
f 93/197/313 92/198/311 103/179/312 105/181/314
f 94/199/315 93/200/313 105/185/314 108/184/316
f 95/201/317 94/202/315 108/184/316 109/187/318
f 96/203/319 95/204/317 109/187/318 111/189/320
f 89/205/306 96/206/319 111/189/320 97/174/307
s off
f 70/207/321 65/208/322 113/209/323 114/210/324
f 66/211/325 67/212/326 116/213/327 115/214/328
f 68/215/329 71/216/330 118/217/331 117/218/332
f 72/219/333 69/220/334 119/221/335 120/222/336
f 65/223/337 66/224/338 115/214/339 113/209/340
f 67/225/341 68/226/342 117/218/343 116/213/344
f 69/227/345 70/228/346 114/210/347 119/221/348
f 71/229/349 72/230/350 120/231/351 118/217/352
f 114/210/353 113/209/354 121/232/355 122/233/356
f 115/214/357 116/213/358 124/234/359 123/235/360
f 117/218/361 118/217/362 126/236/363 125/237/364
f 120/222/365 119/221/366 127/238/367 128/239/368
f 113/209/369 115/214/370 123/235/371 121/232/372
f 116/213/373 117/218/374 125/237/375 124/234/376
f 119/221/377 114/210/378 122/233/379 127/238/380
f 118/217/381 120/231/382 128/240/383 126/236/384
s 7
f 165/246/385 164/243/386 163/244/387 166/245/388
s 8
f 129/268/389 130/249/390 152/287/391 151/275/392
s off
f 130/249/393 129/268/394 132/295/395 131/304/396
s 9
f 131/304/397 132/295/398 154/296/399 153/252/400
s 8
f 133/254/401 134/253/402 150/285/403 149/274/404
s off
f 134/253/405 133/254/406 136/301/407 135/294/408
s 9
f 135/294/409 136/301/410 156/302/411 155/278/412
s 8
f 137/257/413 138/272/414 146/281/415 145/276/416
s off
f 138/272/417 137/257/418 140/299/419 139/292/420
s 9
f 139/292/421 140/299/422 160/300/423 159/280/424
s 8
f 141/271/425 142/260/426 148/283/427 147/273/428
s off
f 142/260/429 141/271/430 144/289/431 143/298/432
s 9
f 143/298/433 144/289/434 158/290/435 157/279/436
s off
f 145/276/437 146/281/438 162/282/439 161/264/440
f 147/273/441 148/283/442 163/284/443 164/265/444
f 149/274/445 150/285/446 165/286/447 166/266/448
f 151/275/449 152/287/450 167/288/451 168/267/452
f 129/268/453 134/253/454 135/269/455 132/277/456
f 139/270/457 144/262/458 141/271/459 138/272/460
f 142/260/461 143/261/462 136/255/463 133/254/464
f 140/258/465 137/257/466 130/249/467 131/250/468
s 8
f 138/272/414 141/271/425 147/273/428 146/281/415
f 142/260/426 133/254/401 149/274/404 148/283/427
f 134/253/402 129/268/389 151/275/392 150/285/403
f 130/249/390 137/257/413 145/276/416 152/287/391
s 9
f 132/277/398 135/269/409 155/293/412 154/251/399
f 136/255/410 143/261/433 157/297/436 156/256/411
f 144/262/434 139/270/421 159/291/424 158/263/435
f 140/258/422 131/250/397 153/303/400 160/259/423
s off
f 146/281/469 147/273/470 164/265/471 162/282/472
f 148/283/473 149/274/474 166/266/475 163/284/476
f 150/285/477 151/275/478 168/267/479 165/286/480
f 152/287/481 145/276/482 161/264/483 167/288/484
s 7
f 168/247/485 162/242/486 164/243/386 165/246/385
f 161/241/487 162/242/486 168/247/485 167/248/488
