# This file uses centimeters as units for non-parametric coordinates.

mtllib bloc_2x2.mtl
g default
v -0.400000 0.000000 0.500000
v 0.400000 0.000000 0.500000
v -0.400000 0.200000 0.500000
v 0.400000 0.200000 0.500000
v -0.400000 0.400000 0.500000
v 0.400000 0.400000 0.500000
v -0.400000 0.600000 0.500000
v 0.400000 0.600000 0.500000
v -0.400000 0.800000 0.500000
v 0.400000 0.800000 0.500000
v -0.400000 1.000000 0.500000
v 0.400000 1.000000 0.500000
v -0.400000 1.000000 -1.500000
v 0.400000 1.000000 -1.500000
v -0.400000 0.800000 -1.500000
v 0.400000 0.800000 -1.500000
v -0.400000 0.600000 -1.500000
v 0.400000 0.600000 -1.500000
v -0.400000 0.400000 -1.500000
v 0.400000 0.400000 -1.500000
v -0.400000 0.200000 -1.500000
v 0.400000 0.200000 -1.500000
v -0.400000 0.000000 -1.500000
v 0.400000 0.000000 -1.500000
v -0.325000 0.200001 0.425000
v 0.325000 0.200001 0.425000
v 0.325000 0.400001 0.425000
v -0.325000 0.400001 0.425000
v -0.325000 0.400001 -1.425000
v 0.325000 0.400001 -1.425000
v 0.325000 0.200001 -1.425000
v -0.325000 0.200001 -1.425000
v -0.325000 0.600000 0.425000
v 0.325000 0.600000 0.425000
v 0.325000 0.800000 0.425000
v -0.325000 0.800000 0.425000
v -0.325000 0.800000 -1.425000
v 0.325000 0.800000 -1.425000
v 0.325000 0.600000 -1.425000
v -0.325000 0.600000 -1.425000
v -0.400000 1.871475 0.500000
v 0.400000 1.871475 0.500000
v -0.400000 2.071475 0.500000
v 0.400000 2.071475 0.500000
v -0.400000 2.071475 -1.500000
v 0.400000 2.071475 -1.500000
v -0.400000 1.871475 -1.500000
v 0.400000 1.871475 -1.500000
v -0.238873 0.974205 0.312372
v 0.238873 0.974205 0.312372
v 0.238873 1.871475 0.312372
v -0.238873 1.871475 0.312372
v -0.238873 1.871475 -1.312372
v 0.238873 1.871475 -1.312372
v 0.238873 0.974205 -1.312372
v -0.238873 0.974205 -1.312372
vt 0.091761 0.710730
vt 0.138986 0.712863
vt 0.616184 0.961035
vt 0.752716 0.928787
vt 0.885824 0.945613
vt 0.606849 0.951699
vt 0.902549 0.932555
vt 0.606848 0.951699
vt 0.616184 0.961035
vt 0.752716 0.928787
vt 0.616184 0.961035
vt 0.752716 0.928787
vt 0.904008 0.945803
vt 0.606849 0.951699
vt 0.920733 0.932744
vt 0.606849 0.951699
vt 0.616184 0.961035
vt 0.752716 0.928787
vt 0.066866 0.461784
vt 0.793286 0.367227
vt 0.066866 0.710730
vt 0.238565 0.712863
vt 0.616184 0.961035
vt 0.752716 0.928787
vt 0.920733 0.982969
vt 0.606849 0.951699
vt 0.904008 0.895578
vt 0.606849 0.951699
vt 0.616184 0.961035
vt 0.752716 0.928787
vt 0.616184 0.961035
vt 0.752716 0.928787
vt 0.902549 0.982780
vt 0.606849 0.951699
vt 0.885824 0.895388
vt 0.606849 0.951699
vt 0.616184 0.961035
vt 0.752716 0.928787
vt 0.091761 0.710730
vt 0.238565 0.687968
vt 0.743380 0.919451
vt 0.920733 0.945803
vt 0.904008 0.882519
vt 0.743380 0.919451
vt 0.920733 0.895578
vt 0.743380 0.919451
vt 0.743380 0.919451
vt 0.904008 0.932744
vt 0.743380 0.919451
vt 0.902549 0.945613
vt 0.885824 0.882330
vt 0.743380 0.919451
vt 0.902549 0.895388
vt 0.743380 0.919451
vt 0.743380 0.919451
vt 0.885824 0.932555
vt 0.138986 0.687968
vt 0.662472 0.919451
vt 0.091761 0.461784
vt 0.376573 0.951699
vt 0.238565 0.712863
vt 0.662472 0.919451
vt 0.091761 0.461784
vt 0.376573 0.951699
vt 0.920733 0.882519
vt 0.662472 0.919451
vt 0.904008 0.982969
vt 0.238565 0.712863
vt 0.902549 0.882330
vt 0.376573 0.951699
vt 0.885824 0.982780
vt 0.091761 0.461784
vt 0.091761 0.461784
vt 0.138986 0.687968
vt 0.091761 0.461784
vt 0.238565 0.712863
vt 0.376573 0.951699
vt 0.376573 0.951699
vt 0.662472 0.919451
vt 0.066866 0.461784
vt 0.653136 0.928787
vt 0.138986 0.712863
vt 0.066866 0.710729
vt 0.367237 0.961035
vt 0.091761 0.710730
vt 0.653136 0.928787
vt 0.238565 0.687968
vt 0.367237 0.961035
vt 0.091761 0.710730
vt 0.653136 0.928787
vt 0.138986 0.712863
vt 0.367237 0.961035
vt 0.066866 0.461784
vt 0.138986 0.687968
vt 0.653136 0.928787
vt 0.238565 0.687968
vt 0.066866 0.710730
vt 0.367237 0.961035
vt 0.662472 0.919451
vt 0.662472 0.919451
vt 0.376573 0.951699
vt 0.662472 0.919451
vt 0.376573 0.951699
vt 0.376573 0.951699
vt 0.662472 0.919451
vt 0.066866 0.461784
vt 0.238565 0.712863
vt 0.653136 0.928787
vt 0.138986 0.712863
vt 0.066866 0.710730
vt 0.367237 0.961035
vt 0.091761 0.710729
vt 0.138986 0.687968
vt 0.653136 0.928787
vt 0.238565 0.687968
vt 0.367237 0.961035
vt 0.091761 0.710730
vt 0.238565 0.712863
vt 0.653136 0.928787
vt 0.138986 0.712863
vt 0.091761 0.461784
vt 0.367237 0.961035
vt 0.066866 0.461784
vt 0.138986 0.687968
vt 0.653136 0.928787
vt 0.238565 0.687968
vt 0.066866 0.710730
vt 0.367237 0.961035
vt 0.544339 0.466806
vt 0.138986 0.712863
vt 0.544339 0.367227
vt 0.066866 0.461784
vt 0.138986 0.687968
vt 0.793286 0.466806
vt 0.238565 0.687968
vt 0.066866 0.710730
vt 0.922231 0.945117
vt 0.922231 0.935519
vt 0.997266 0.935519
vt 0.997266 0.945117
vt 0.238565 0.712863
vt 0.138986 0.712863
vt 0.138986 0.687968
vt 0.238565 0.687968
vt 0.793286 0.367227
vt 0.793286 0.466806
vt 0.544339 0.466806
vt 0.544339 0.367227
vt 0.238565 0.712863
vt 0.138986 0.712863
vt 0.138986 0.687968
vt 0.238565 0.687968
vt 0.997266 0.893280
vt 0.997266 0.902878
vt 0.922231 0.902878
vt 0.922231 0.893280
vt 0.091761 0.461784
vt 0.091761 0.710730
vt 0.066866 0.710730
vt 0.066866 0.461784
vt 0.922231 0.977758
vt 0.997266 0.977758
vt 0.091761 0.461784
vt 0.091761 0.710729
vt 0.066866 0.710729
vt 0.066866 0.461784
vt 0.627612 0.929871
vt 0.528033 0.929871
vt 0.548092 0.906516
vt 0.607559 0.906516
vt 0.627612 0.929871
vt 0.528033 0.929871
vt 0.548092 0.906516
vt 0.607559 0.906516
vt 0.638570 0.851631
vt 0.389624 0.851631
vt 0.412979 0.831575
vt 0.615215 0.831575
vt 0.638570 0.851631
vt 0.389624 0.851631
vt 0.412979 0.831575
vt 0.615215 0.831575
vn 0.000000 0.000000 1.000000
vn 0.000000 0.000000 1.000000
vn 0.000000 0.000000 1.000000
vn 0.000000 0.000000 1.000000
vn 0.000000 0.000000 1.000000
vn 0.000000 0.000000 1.000000
vn 0.000000 0.000000 1.000000
vn 0.000000 0.000000 1.000000
vn 0.000000 0.000000 1.000000
vn 0.000000 0.000000 1.000000
vn 0.000000 0.000000 1.000000
vn 0.000000 0.000000 1.000000
vn 0.000000 0.000000 1.000000
vn 0.000000 0.000000 1.000000
vn 0.000000 0.000000 1.000000
vn 0.000000 0.000000 1.000000
vn 0.000000 0.000000 1.000000
vn 0.000000 0.000000 1.000000
vn 0.000000 0.000000 1.000000
vn 0.000000 0.000000 1.000000
vn 0.000000 1.000000 0.000000
vn 0.000000 1.000000 0.000000
vn 0.000000 1.000000 0.000000
vn 0.000000 1.000000 0.000000
vn 0.000000 0.000000 -1.000000
vn 0.000000 0.000000 -1.000000
vn 0.000000 0.000000 -1.000000
vn 0.000000 0.000000 -1.000000
vn 0.000000 0.000000 -1.000000
vn 0.000000 0.000000 -1.000000
vn 0.000000 0.000000 -1.000000
vn 0.000000 0.000000 -1.000000
vn 0.000000 0.000000 -1.000000
vn 0.000000 0.000000 -1.000000
vn 0.000000 0.000000 -1.000000
vn 0.000000 0.000000 -1.000000
vn 0.000000 0.000000 -1.000000
vn 0.000000 0.000000 -1.000000
vn 0.000000 0.000000 -1.000000
vn 0.000000 0.000000 -1.000000
vn 0.000000 0.000000 -1.000000
vn 0.000000 0.000000 -1.000000
vn 0.000000 0.000000 -1.000000
vn 0.000000 0.000000 -1.000000
vn 1.000000 0.000000 0.000000
vn 1.000000 0.000000 0.000000
vn 1.000000 0.000000 0.000000
vn 1.000000 0.000000 0.000000
vn 1.000000 -0.000001 0.000000
vn 1.000000 -0.000001 0.000000
vn 1.000000 -0.000001 0.000000
vn 1.000000 -0.000001 0.000000
vn 1.000000 0.000000 0.000000
vn 1.000000 0.000000 0.000000
vn 1.000000 0.000000 0.000000
vn 1.000000 0.000000 0.000000
vn 1.000000 0.000000 0.000000
vn 1.000000 0.000000 0.000000
vn 1.000000 0.000000 0.000000
vn 1.000000 0.000000 0.000000
vn 1.000000 0.000000 0.000000
vn 1.000000 0.000000 0.000000
vn 1.000000 0.000000 0.000000
vn 1.000000 0.000000 0.000000
vn -1.000000 0.000000 0.000000
vn -1.000000 0.000000 0.000000
vn -1.000000 0.000000 0.000000
vn -1.000000 0.000000 0.000000
vn -1.000000 -0.000001 0.000000
vn -1.000000 -0.000001 0.000000
vn -1.000000 -0.000001 0.000000
vn -1.000000 -0.000001 0.000000
vn -1.000000 0.000000 0.000000
vn -1.000000 0.000000 0.000000
vn -1.000000 0.000000 0.000000
vn -1.000000 0.000000 0.000000
vn -1.000000 0.000000 0.000000
vn -1.000000 0.000000 0.000000
vn -1.000000 0.000000 0.000000
vn -1.000000 0.000000 0.000000
vn -1.000000 0.000000 0.000000
vn -1.000000 0.000000 0.000000
vn -1.000000 0.000000 0.000000
vn -1.000000 0.000000 0.000000
vn -0.000008 1.000000 0.000003
vn 0.000008 1.000000 0.000003
vn 0.000008 1.000000 0.000003
vn -0.000008 1.000000 0.000003
vn -0.000008 -1.000000 -0.000003
vn 0.000008 -1.000000 -0.000003
vn 0.000008 -1.000000 -0.000003
vn -0.000008 -1.000000 -0.000003
vn 0.000008 -1.000000 0.000003
vn -0.000008 -1.000000 0.000003
vn -0.000008 -1.000000 0.000003
vn 0.000008 -1.000000 0.000003
vn 0.000008 1.000000 -0.000003
vn -0.000008 1.000000 -0.000003
vn -0.000008 1.000000 -0.000003
vn 0.000008 1.000000 -0.000003
vn 0.000000 1.000000 0.000000
vn 0.000000 1.000000 0.000000
vn 0.000000 1.000000 0.000000
vn 0.000000 1.000000 0.000000
vn -0.000002 -1.000000 -0.000001
vn 0.000002 -1.000000 -0.000001
vn 0.000002 -1.000000 -0.000001
vn -0.000002 -1.000000 -0.000001
vn 0.000002 -1.000000 0.000001
vn -0.000002 -1.000000 0.000001
vn -0.000002 -1.000000 0.000001
vn 0.000002 -1.000000 0.000001
vn 0.000000 1.000000 -0.000000
vn 0.000000 1.000000 -0.000000
vn 0.000000 1.000000 -0.000000
vn 0.000000 1.000000 -0.000000
vn 0.000000 0.000000 1.000000
vn 0.000000 0.000000 1.000000
vn 0.000000 0.000000 1.000000
vn 0.000000 0.000000 1.000000
vn 0.000000 0.000000 1.000000
vn 0.000000 0.000000 1.000000
vn 0.000000 0.000000 1.000000
vn 0.000000 0.000000 1.000000
vn 0.000000 1.000000 0.000000
vn 0.000000 1.000000 0.000000
vn 0.000000 1.000000 0.000000
vn 0.000000 1.000000 0.000000
vn 0.000000 0.000000 -1.000000
vn 0.000000 0.000000 -1.000000
vn 0.000000 0.000000 -1.000000
vn 0.000000 0.000000 -1.000000
vn 0.000000 0.000000 -1.000000
vn 0.000000 0.000000 -1.000000
vn 0.000000 0.000000 -1.000000
vn 0.000000 0.000000 -1.000000
vn 1.000000 0.000000 0.000000
vn 1.000000 0.000000 0.000000
vn 1.000000 0.000000 0.000000
vn 1.000000 0.000000 0.000000
vn 1.000000 0.000000 0.000000
vn 1.000000 0.000000 0.000000
vn 1.000000 0.000000 0.000000
vn 1.000000 0.000000 0.000000
vn -1.000000 0.000000 0.000000
vn -1.000000 0.000000 0.000000
vn -1.000000 0.000000 0.000000
vn -1.000000 0.000000 0.000000
vn -1.000000 0.000000 0.000000
vn -1.000000 0.000000 0.000000
vn -1.000000 0.000000 0.000000
vn -1.000000 0.000000 0.000000
vn 0.000001 -1.000000 0.000001
vn -0.000001 -1.000000 0.000001
vn -0.000002 -1.000000 0.000000
vn 0.000002 -1.000000 0.000000
vn -0.000001 -1.000000 -0.000001
vn 0.000001 -1.000000 -0.000001
vn 0.000002 -1.000000 -0.000000
vn -0.000002 -1.000000 -0.000000
s off
g bloc_2x2 BLOC_H2 bloc group1
usemtl lambert2SG
f 1/76/1 2/2/2 4/124/3 3/126/4
f 25/5/5 26/56/6 27/7/7 28/50/8
f 5/118/9 6/120/10 8/94/11 7/96/12
f 33/13/13 34/48/14 35/15/15 36/42/16
f 9/61/17 10/91/18 12/133/19 11/135/20
f 11/20/21 12/134/22 14/129/23 13/131/24
f 13/22/25 14/130/26 16/57/27 15/87/28
f 37/65/29 38/45/30 39/27/31 40/43/32
f 17/68/33 18/82/34 20/113/35 19/115/36
f 29/69/37 30/53/38 31/35/39 32/51/40
f 21/107/41 22/109/42 24/74/43 23/40/44
f 2/75/45 24/39/46 22/110/47 4/123/48
f 26/56/49 31/35/50 30/53/51 27/7/52
f 6/121/53 20/112/54 18/83/55 8/93/56
f 34/48/57 39/27/58 38/45/59 35/15/60
f 10/63/61 16/85/62 14/21/63 12/19/64
f 23/73/65 1/1/66 3/127/67 21/106/68
f 32/71/69 25/5/70 28/50/71 29/33/72
f 19/72/73 5/117/74 7/97/75 17/80/76
f 40/67/77 33/13/78 36/42/79 37/25/80
f 15/59/81 9/89/82 11/136/83 13/132/84
s 1
f 3/4/85 4/125/86 26/105/87 25/52/88
s 2
f 6/10/89 5/119/90 28/99/91 27/54/92
f 19/32/93 20/114/94 30/102/95 29/49/96
s 1
f 22/38/97 21/108/98 32/100/99 31/55/100
f 4/3/86 22/111/97 31/104/100 26/6/87
s 2
f 20/31/94 6/122/89 27/103/92 30/34/95
s 1
f 21/37/98 3/128/85 25/101/88 32/36/99
s 2
f 5/9/90 19/116/93 29/70/96 28/8/91
s 3
f 7/12/101 8/95/102 34/79/103 33/44/104
s 4
f 10/18/105 9/90/106 36/62/107 35/46/108
f 15/24/109 16/86/110 38/58/111 37/41/112
s 3
f 18/30/113 17/81/114 40/66/115 39/47/116
f 8/11/102 18/84/113 39/78/116 34/14/103
s 4
f 16/23/110 10/92/105 35/64/108 38/26/111
s 3
f 17/29/114 7/98/101 33/77/104 40/28/115
s 4
f 9/17/106 15/88/109 37/60/112 36/16/107
s off
f 49/137/117 50/138/118 51/139/119 52/140/120
f 41/141/121 42/142/122 44/143/123 43/144/124
f 43/145/125 44/146/126 46/147/127 45/148/128
f 45/149/129 46/150/130 48/151/131 47/152/132
f 53/153/133 54/154/134 55/155/135 56/156/136
f 50/138/137 55/155/138 54/154/139 51/139/140
f 42/157/141 48/158/142 46/159/143 44/160/144
f 56/161/145 49/137/146 52/140/147 53/162/148
f 47/163/149 41/164/150 43/165/151 45/166/152
s 5
f 42/167/153 41/168/154 52/169/155 51/170/156
f 47/171/157 48/172/158 54/173/159 53/174/160
f 48/175/158 42/176/153 51/177/156 54/178/159
f 41/179/154 47/180/157 53/181/160 52/182/155
