# This file uses centimeters as units for non-parametric coordinates.

mtllib bloc_2x3.mtl
g default
v -0.400002 1.871475 0.500001
v 0.400002 1.871475 0.500001
v -0.400002 2.071472 0.500001
v 0.400002 2.071472 0.500001
v -0.400002 2.071472 -2.500003
v 0.400002 2.071472 -2.500003
v -0.400002 1.871475 -2.500003
v 0.400002 1.871475 -2.500003
v -0.238873 0.974205 0.312373
v 0.238873 0.974205 0.312373
v 0.238873 1.871475 0.312373
v -0.238873 1.871475 0.312373
v -0.238873 1.871475 -2.312381
v 0.238873 1.871475 -2.312381
v 0.238873 0.974205 -2.312381
v -0.238873 0.974205 -2.312381
v -0.400002 0.000000 0.500001
v 0.400002 0.000000 0.500001
v -0.400002 0.200001 0.500001
v 0.400002 0.200001 0.500001
v -0.400002 0.400002 0.500001
v 0.400002 0.400002 0.500001
v -0.400002 0.599998 0.500001
v 0.400002 0.599998 0.500001
v -0.400002 0.800003 0.500001
v 0.400002 0.800003 0.500001
v -0.400002 1.000000 0.500001
v 0.400002 1.000000 0.500001
v -0.400002 1.000000 -2.500003
v 0.400002 1.000000 -2.500003
v -0.400002 0.800003 -2.500003
v 0.400002 0.800003 -2.500003
v -0.400002 0.599998 -2.500003
v 0.400002 0.599998 -2.500003
v -0.400002 0.400002 -2.500003
v 0.400002 0.400002 -2.500003
v -0.400002 0.200001 -2.500003
v 0.400002 0.200001 -2.500003
v -0.400002 0.000000 -2.500003
v 0.400002 0.000000 -2.500003
v -0.325001 0.200008 0.425000
v 0.325001 0.200008 0.425000
v 0.325005 0.399864 0.425000
v -0.325005 0.399864 0.425000
v -0.325005 0.399864 -2.425006
v 0.325005 0.399864 -2.425006
v 0.325001 0.200008 -2.425006
v -0.325001 0.200008 -2.425006
v -0.325001 0.599998 0.425000
v 0.325001 0.599998 0.425000
v 0.325001 0.800018 0.425000
v -0.325001 0.800018 0.425000
v -0.325001 0.800018 -2.425006
v 0.325001 0.800018 -2.425006
v 0.325001 0.599998 -2.425006
v -0.325001 0.599998 -2.425006
vt 0.922231 0.945117
vt 0.922231 0.935519
vt 0.997266 0.935519
vt 0.997266 0.945117
vt 0.238565 0.712863
vt 0.138986 0.712863
vt 0.138986 0.687968
vt 0.238565 0.687968
vt 0.628877 0.613914
vt 0.628877 0.713492
vt 0.255458 0.713492
vt 0.255458 0.613914
vt 0.238565 0.712863
vt 0.138986 0.712863
vt 0.138986 0.687968
vt 0.238565 0.687968
vt 0.997266 0.873190
vt 0.997266 0.882787
vt 0.922231 0.882787
vt 0.922231 0.873190
vt 0.046669 0.335589
vt 0.046669 0.709009
vt 0.021775 0.709009
vt 0.021775 0.335589
vt 0.922231 0.997848
vt 0.997266 0.997848
vt 0.046670 0.335589
vt 0.046669 0.709009
vt 0.021775 0.709009
vt 0.021775 0.335589
vt 0.627612 0.929871
vt 0.528033 0.929871
vt 0.548092 0.906516
vt 0.607559 0.906516
vt 0.627612 0.929871
vt 0.528032 0.929871
vt 0.548092 0.906517
vt 0.607559 0.906517
vt 0.754688 0.890663
vt 0.381267 0.890663
vt 0.404621 0.870607
vt 0.731334 0.870607
vt 0.754688 0.890664
vt 0.381267 0.890664
vt 0.404621 0.870607
vt 0.731333 0.870607
vt 0.238565 0.712863
vt 0.138986 0.712863
vt 0.138986 0.687968
vt 0.238565 0.687968
vt 0.885824 0.946386
vt 0.885824 0.934772
vt 0.902549 0.934772
vt 0.902549 0.946386
vt 0.238565 0.712863
vt 0.138986 0.712863
vt 0.138986 0.687968
vt 0.238565 0.687968
vt 0.904008 0.946555
vt 0.904008 0.934941
vt 0.920733 0.934941
vt 0.920733 0.946555
vt 0.238565 0.712863
vt 0.138986 0.712863
vt 0.138986 0.687968
vt 0.238565 0.687968
vt 0.628877 0.613914
vt 0.628877 0.713492
vt 0.255458 0.713492
vt 0.255458 0.613914
vt 0.238565 0.712863
vt 0.138986 0.712863
vt 0.138986 0.687968
vt 0.238565 0.687968
vt 0.920733 0.872402
vt 0.920733 0.884016
vt 0.904008 0.884016
vt 0.904008 0.872402
vt 0.238565 0.712863
vt 0.138986 0.712863
vt 0.138986 0.687968
vt 0.238565 0.687968
vt 0.902549 0.872234
vt 0.902549 0.883848
vt 0.885824 0.883848
vt 0.885824 0.872234
vt 0.238565 0.712863
vt 0.138986 0.712863
vt 0.138986 0.687968
vt 0.238565 0.687968
vt 0.046670 0.335590
vt 0.046670 0.709009
vt 0.021775 0.709009
vt 0.021775 0.335590
vt 0.046669 0.335589
vt 0.046669 0.709009
vt 0.021775 0.709009
vt 0.021775 0.335589
vt 0.046669 0.335589
vt 0.046669 0.709009
vt 0.021775 0.709009
vt 0.021775 0.335589
vt 0.046670 0.335590
vt 0.046670 0.709009
vt 0.021775 0.709009
vt 0.021775 0.335590
vt 0.885824 0.997310
vt 0.902549 0.997310
vt 0.046669 0.335589
vt 0.046669 0.709009
vt 0.021775 0.709009
vt 0.021775 0.335589
vt 0.904008 0.997479
vt 0.920733 0.997479
vt 0.046669 0.335589
vt 0.046669 0.709009
vt 0.021775 0.709009
vt 0.021775 0.335589
vt 0.752716 0.928787
vt 0.653136 0.928787
vt 0.662472 0.919451
vt 0.743380 0.919451
vt 0.752716 0.928787
vt 0.653136 0.928787
vt 0.662471 0.919451
vt 0.743380 0.919451
vt 0.752716 0.928787
vt 0.653136 0.928787
vt 0.662471 0.919452
vt 0.743381 0.919452
vt 0.752716 0.928787
vt 0.653136 0.928787
vt 0.662472 0.919452
vt 0.743381 0.919452
vt 0.745896 0.983966
vt 0.372477 0.983966
vt 0.381812 0.974630
vt 0.736561 0.974630
vt 0.745896 0.983966
vt 0.372477 0.983966
vt 0.381812 0.974630
vt 0.736561 0.974630
vt 0.745896 0.983966
vt 0.372477 0.983966
vt 0.381812 0.974630
vt 0.736561 0.974630
vt 0.745896 0.983966
vt 0.372477 0.983966
vt 0.381812 0.974630
vt 0.736561 0.974630
vt 0.752716 0.928787
vt 0.653136 0.928787
vt 0.662472 0.919451
vt 0.743380 0.919451
vt 0.752716 0.928787
vt 0.653136 0.928787
vt 0.662472 0.919451
vt 0.743380 0.919451
vt 0.752716 0.928787
vt 0.653136 0.928787
vt 0.662472 0.919452
vt 0.743381 0.919452
vt 0.752716 0.928787
vt 0.653136 0.928787
vt 0.662472 0.919452
vt 0.743381 0.919452
vt 0.745896 0.983966
vt 0.372477 0.983966
vt 0.381812 0.974630
vt 0.736561 0.974630
vt 0.745896 0.983966
vt 0.372477 0.983966
vt 0.381813 0.974630
vt 0.736561 0.974630
vt 0.745896 0.983966
vt 0.372477 0.983966
vt 0.381813 0.974630
vt 0.736561 0.974630
vt 0.745896 0.983966
vt 0.372477 0.983966
vt 0.381812 0.974630
vt 0.736561 0.974630
vn 0.000000 0.000000 1.000000
vn 0.000000 0.000000 1.000000
vn 0.000000 0.000000 1.000000
vn 0.000000 0.000000 1.000000
vn 0.000000 0.000000 1.000000
vn 0.000000 0.000000 1.000000
vn 0.000000 0.000000 1.000000
vn 0.000000 0.000000 1.000000
vn 0.000000 1.000000 0.000000
vn 0.000000 1.000000 0.000000
vn 0.000000 1.000000 0.000000
vn 0.000000 1.000000 0.000000
vn 0.000000 0.000000 -1.000000
vn 0.000000 0.000000 -1.000000
vn 0.000000 0.000000 -1.000000
vn 0.000000 0.000000 -1.000000
vn 0.000000 0.000000 -1.000000
vn 0.000000 0.000000 -1.000000
vn 0.000000 0.000000 -1.000000
vn 0.000000 0.000000 -1.000000
vn 1.000000 0.000000 0.000000
vn 1.000000 0.000000 0.000000
vn 1.000000 0.000000 0.000000
vn 1.000000 0.000000 0.000000
vn 1.000000 0.000000 0.000000
vn 1.000000 0.000000 0.000000
vn 1.000000 0.000000 0.000000
vn 1.000000 0.000000 0.000000
vn -1.000000 0.000000 0.000000
vn -1.000000 0.000000 0.000000
vn -1.000000 0.000000 0.000000
vn -1.000000 0.000000 0.000000
vn -1.000000 0.000000 0.000000
vn -1.000000 0.000000 0.000000
vn -1.000000 0.000000 0.000000
vn -1.000000 0.000000 0.000000
vn 0.000000 -1.000000 0.000000
vn 0.000000 -1.000000 0.000000
vn 0.000000 -1.000000 0.000000
vn 0.000000 -1.000000 0.000000
vn 0.000000 -1.000000 -0.000000
vn 0.000000 -1.000000 -0.000000
vn 0.000000 -1.000000 -0.000000
vn 0.000000 -1.000000 -0.000000
vn 0.000000 0.000000 1.000000
vn 0.000000 0.000000 1.000000
vn 0.000000 0.000000 1.000000
vn 0.000000 0.000000 1.000000
vn 0.000000 0.000000 1.000000
vn 0.000000 0.000000 1.000000
vn 0.000000 0.000000 1.000000
vn 0.000000 0.000000 1.000000
vn 0.000000 0.000000 1.000000
vn 0.000000 0.000000 1.000000
vn 0.000000 0.000000 1.000000
vn 0.000000 0.000000 1.000000
vn 0.000000 0.000000 1.000000
vn 0.000000 0.000000 1.000000
vn 0.000000 0.000000 1.000000
vn 0.000000 0.000000 1.000000
vn 0.000000 0.000000 1.000000
vn 0.000000 0.000000 1.000000
vn 0.000000 0.000000 1.000000
vn 0.000000 0.000000 1.000000
vn 0.000000 1.000000 0.000000
vn 0.000000 1.000000 0.000000
vn 0.000000 1.000000 0.000000
vn 0.000000 1.000000 0.000000
vn 0.000000 0.000000 -1.000000
vn 0.000000 0.000000 -1.000000
vn 0.000000 0.000000 -1.000000
vn 0.000000 0.000000 -1.000000
vn 0.000000 0.000000 -1.000000
vn 0.000000 0.000000 -1.000000
vn 0.000000 0.000000 -1.000000
vn 0.000000 0.000000 -1.000000
vn 0.000000 0.000000 -1.000000
vn 0.000000 0.000000 -1.000000
vn 0.000000 0.000000 -1.000000
vn 0.000000 0.000000 -1.000000
vn 0.000000 0.000000 -1.000000
vn 0.000000 0.000000 -1.000000
vn 0.000000 0.000000 -1.000000
vn 0.000000 0.000000 -1.000000
vn 0.000000 0.000000 -1.000000
vn 0.000000 0.000000 -1.000000
vn 0.000000 0.000000 -1.000000
vn 0.000000 0.000000 -1.000000
vn 1.000000 0.000000 0.000000
vn 1.000000 0.000000 0.000000
vn 1.000000 0.000000 0.000000
vn 1.000000 0.000000 0.000000
vn 1.000000 -0.000019 0.000000
vn 1.000000 -0.000019 0.000000
vn 1.000000 -0.000019 0.000000
vn 1.000000 -0.000019 0.000000
vn 1.000000 0.000000 0.000000
vn 1.000000 0.000000 0.000000
vn 1.000000 0.000000 0.000000
vn 1.000000 0.000000 0.000000
vn 1.000000 0.000000 0.000000
vn 1.000000 0.000000 0.000000
vn 1.000000 0.000000 0.000000
vn 1.000000 0.000000 0.000000
vn 1.000000 0.000000 0.000000
vn 1.000000 0.000000 0.000000
vn 1.000000 0.000000 0.000000
vn 1.000000 0.000000 0.000000
vn -1.000000 0.000000 0.000000
vn -1.000000 0.000000 0.000000
vn -1.000000 0.000000 0.000000
vn -1.000000 0.000000 0.000000
vn -1.000000 -0.000019 0.000000
vn -1.000000 -0.000019 0.000000
vn -1.000000 -0.000019 0.000000
vn -1.000000 -0.000019 0.000000
vn -1.000000 0.000000 0.000000
vn -1.000000 0.000000 0.000000
vn -1.000000 0.000000 0.000000
vn -1.000000 0.000000 0.000000
vn -1.000000 0.000000 0.000000
vn -1.000000 0.000000 0.000000
vn -1.000000 0.000000 0.000000
vn -1.000000 0.000000 0.000000
vn -1.000000 0.000000 0.000000
vn -1.000000 0.000000 0.000000
vn -1.000000 0.000000 0.000000
vn -1.000000 0.000000 0.000000
vn -0.000082 1.000000 0.000020
vn 0.000082 1.000000 0.000020
vn 0.000082 1.000000 0.000020
vn -0.000082 1.000000 0.000020
vn 0.001467 -0.999999 0.000364
vn -0.001467 -0.999999 0.000364
vn -0.001467 -0.999999 0.000364
vn 0.001467 -0.999999 0.000364
vn -0.001467 -0.999999 -0.000364
vn 0.001467 -0.999999 -0.000364
vn 0.001467 -0.999999 -0.000364
vn -0.001467 -0.999999 -0.000364
vn 0.000082 1.000000 -0.000020
vn -0.000082 1.000000 -0.000020
vn -0.000082 1.000000 -0.000020
vn 0.000082 1.000000 -0.000020
vn 0.000000 1.000000 0.000000
vn 0.000000 1.000000 0.000000
vn 0.000000 1.000000 0.000000
vn 0.000000 1.000000 0.000000
vn -0.000163 -1.000000 -0.000040
vn 0.000163 -1.000000 -0.000040
vn 0.000163 -1.000000 -0.000040
vn -0.000163 -1.000000 -0.000040
vn 0.000163 -1.000000 0.000040
vn -0.000163 -1.000000 0.000040
vn -0.000163 -1.000000 0.000040
vn 0.000163 -1.000000 0.000040
vn 0.000000 1.000000 0.000000
vn 0.000000 1.000000 0.000000
vn 0.000000 1.000000 0.000000
vn 0.000000 1.000000 0.000000
s off
g bloc_3x2 BLOC_H2 bloc group1
usemtl lambert2SG
f 9/1/1 10/2/2 11/3/3 12/4/4
f 1/5/5 2/6/6 4/7/7 3/8/8
f 3/9/9 4/10/10 6/11/11 5/12/12
f 5/13/13 6/14/14 8/15/15 7/16/16
f 13/17/17 14/18/18 15/19/19 16/20/20
f 10/2/21 15/19/22 14/18/23 11/3/24
f 2/21/25 8/22/26 6/23/27 4/24/28
f 16/25/29 9/1/30 12/4/31 13/26/32
f 7/27/33 1/28/34 3/29/35 5/30/36
s 1
f 2/31/37 1/32/38 12/33/39 11/34/40
f 7/35/41 8/36/42 14/37/43 13/38/44
f 8/39/42 2/40/37 11/41/40 14/42/43
f 1/43/38 7/44/41 13/45/44 12/46/39
s off
f 17/47/45 18/48/46 20/49/47 19/50/48
f 41/51/49 42/52/50 43/53/51 44/54/52
f 21/55/53 22/56/54 24/57/55 23/58/56
f 49/59/57 50/60/58 51/61/59 52/62/60
f 25/63/61 26/64/62 28/65/63 27/66/64
f 27/67/65 28/68/66 30/69/67 29/70/68
f 29/71/69 30/72/70 32/73/71 31/74/72
f 53/75/73 54/76/74 55/77/75 56/78/76
f 33/79/77 34/80/78 36/81/79 35/82/80
f 45/83/81 46/84/82 47/85/83 48/86/84
f 37/87/85 38/88/86 40/89/87 39/90/88
f 18/91/89 40/92/90 38/93/91 20/94/92
f 42/52/93 47/85/94 46/84/95 43/53/96
f 22/95/97 36/96/98 34/97/99 24/98/100
f 50/60/101 55/77/102 54/76/103 51/61/104
f 26/99/105 32/100/106 30/101/107 28/102/108
f 39/103/109 17/104/110 19/105/111 37/106/112
f 48/107/113 41/51/114 44/54/115 45/108/116
f 35/109/117 21/110/118 23/111/119 33/112/120
f 56/113/121 49/59/122 52/62/123 53/114/124
f 31/115/125 25/116/126 27/117/127 29/118/128
s 2
f 19/119/129 20/120/130 42/121/131 41/122/132
s 3
f 22/123/133 21/124/134 44/125/135 43/126/136
f 35/127/137 36/128/138 46/129/139 45/130/140
s 2
f 38/131/141 37/132/142 48/133/143 47/134/144
f 20/135/130 38/136/141 47/137/144 42/138/131
s 3
f 36/139/138 22/140/133 43/141/136 46/142/139
s 2
f 37/143/142 19/144/129 41/145/132 48/146/143
s 3
f 21/147/134 35/148/137 45/149/140 44/150/135
s 4
f 23/151/145 24/152/146 50/153/147 49/154/148
s 5
f 26/155/149 25/156/150 52/157/151 51/158/152
f 31/159/153 32/160/154 54/161/155 53/162/156
s 4
f 34/163/157 33/164/158 56/165/159 55/166/160
f 24/167/146 34/168/157 55/169/160 50/170/147
s 5
f 32/171/154 26/172/149 51/173/152 54/174/155
s 4
f 33/175/158 23/176/145 49/177/148 56/178/159
s 5
f 25/179/150 31/180/153 53/181/156 52/182/151
