# This file uses centimeters as units for non-parametric coordinates.

mtllib bloc_3x1.mtl
g default
v -0.400000 0.000000 0.500000
v 0.400000 0.000000 0.500000
v -0.400000 0.200000 0.500000
v 0.400000 0.200000 0.500000
v -0.400000 0.400000 0.500000
v 0.400000 0.400000 0.500000
v -0.400000 0.600000 0.500000
v 0.400000 0.600000 0.500000
v -0.400000 0.800000 0.500000
v 0.400000 0.800000 0.500000
v -0.400000 1.000000 0.500000
v 0.400000 1.000000 0.500000
v -0.400000 1.000000 -2.500000
v 0.400000 1.000000 -2.500000
v -0.400000 0.800000 -2.500000
v 0.400000 0.800000 -2.500000
v -0.400000 0.600000 -2.500000
v 0.400000 0.600000 -2.500000
v -0.400000 0.400000 -2.500000
v 0.400000 0.400000 -2.500000
v -0.400000 0.200000 -2.500000
v 0.400000 0.200000 -2.500000
v -0.400000 0.000000 -2.500000
v 0.400000 0.000000 -2.500000
v -0.325000 0.200002 0.425000
v 0.325000 0.200002 0.425000
v 0.325000 0.400002 0.425000
v -0.325000 0.400002 0.425000
v -0.325000 0.400002 -2.425000
v 0.325000 0.400002 -2.425000
v 0.325000 0.200002 -2.425000
v -0.325000 0.200002 -2.425000
v -0.325000 0.600000 0.425000
v 0.325000 0.600000 0.425000
v 0.325000 0.800000 0.425000
v -0.325000 0.800000 0.425000
v -0.325000 0.800000 -2.425000
v 0.325000 0.800000 -2.425000
v 0.325000 0.600000 -2.425000
v -0.325000 0.600000 -2.425000
vt 0.046670 0.709009
vt 0.138986 0.712863
vt 0.745896 0.983966
vt 0.752716 0.928787
vt 0.885824 0.946386
vt 0.736561 0.974630
vt 0.902549 0.934772
vt 0.736561 0.974630
vt 0.745896 0.983966
vt 0.752716 0.928787
vt 0.745896 0.983966
vt 0.752716 0.928787
vt 0.904008 0.946555
vt 0.736561 0.974630
vt 0.920733 0.934940
vt 0.736561 0.974630
vt 0.745896 0.983966
vt 0.752716 0.928787
vt 0.021775 0.335590
vt 0.628877 0.613914
vt 0.021775 0.709009
vt 0.238565 0.712863
vt 0.745896 0.983966
vt 0.752716 0.928787
vt 0.920733 0.997479
vt 0.736561 0.974630
vt 0.904008 0.884016
vt 0.736561 0.974630
vt 0.745896 0.983966
vt 0.752716 0.928787
vt 0.745896 0.983966
vt 0.752716 0.928787
vt 0.902549 0.997310
vt 0.736560 0.974630
vt 0.885824 0.883848
vt 0.736560 0.974630
vt 0.745896 0.983966
vt 0.752716 0.928787
vt 0.046670 0.709009
vt 0.238565 0.687968
vt 0.743379 0.919451
vt 0.920733 0.946555
vt 0.904008 0.872402
vt 0.743380 0.919451
vt 0.920733 0.884016
vt 0.743380 0.919451
vt 0.743380 0.919451
vt 0.904008 0.934940
vt 0.743380 0.919451
vt 0.902549 0.946386
vt 0.885824 0.872234
vt 0.743380 0.919451
vt 0.902549 0.883848
vt 0.743380 0.919451
vt 0.743380 0.919451
vt 0.885824 0.934772
vt 0.138986 0.687968
vt 0.662471 0.919451
vt 0.046670 0.335590
vt 0.381812 0.974630
vt 0.238565 0.712863
vt 0.662472 0.919451
vt 0.046669 0.335589
vt 0.381812 0.974630
vt 0.920733 0.872402
vt 0.662472 0.919451
vt 0.904008 0.997479
vt 0.238565 0.712863
vt 0.902549 0.872234
vt 0.381812 0.974630
vt 0.885824 0.997310
vt 0.046669 0.335590
vt 0.046670 0.335590
vt 0.138986 0.687968
vt 0.046670 0.335590
vt 0.238565 0.712863
vt 0.381812 0.974630
vt 0.381812 0.974630
vt 0.662472 0.919451
vt 0.021775 0.335590
vt 0.653136 0.928787
vt 0.138987 0.712863
vt 0.021775 0.709009
vt 0.372477 0.983966
vt 0.046669 0.709009
vt 0.653136 0.928787
vt 0.238565 0.687968
vt 0.372477 0.983966
vt 0.046670 0.709009
vt 0.653136 0.928787
vt 0.138987 0.712863
vt 0.372477 0.983966
vt 0.021775 0.335590
vt 0.138986 0.687968
vt 0.653136 0.928787
vt 0.238565 0.687968
vt 0.021775 0.709009
vt 0.372477 0.983966
vt 0.662471 0.919451
vt 0.662472 0.919451
vt 0.381812 0.974630
vt 0.662472 0.919451
vt 0.381812 0.974630
vt 0.381812 0.974630
vt 0.662472 0.919451
vt 0.021775 0.335590
vt 0.238565 0.712863
vt 0.653136 0.928787
vt 0.138987 0.712863
vt 0.021775 0.709009
vt 0.372477 0.983966
vt 0.046669 0.709009
vt 0.138987 0.687968
vt 0.653136 0.928787
vt 0.238565 0.687968
vt 0.372477 0.983966
vt 0.046669 0.709009
vt 0.238565 0.712863
vt 0.653136 0.928787
vt 0.138987 0.712863
vt 0.046670 0.335590
vt 0.372477 0.983966
vt 0.021775 0.335590
vt 0.138986 0.687968
vt 0.653136 0.928787
vt 0.238565 0.687968
vt 0.021775 0.709009
vt 0.372477 0.983966
vt 0.255458 0.713492
vt 0.138986 0.712863
vt 0.255458 0.613914
vt 0.021775 0.335590
vt 0.138986 0.687968
vt 0.628877 0.713492
vt 0.238565 0.687968
vt 0.021775 0.709009
vn 0.000000 0.000000 1.000000
vn 0.000000 0.000000 1.000000
vn 0.000000 0.000000 1.000000
vn 0.000000 0.000000 1.000000
vn 0.000000 0.000000 1.000000
vn 0.000000 0.000000 1.000000
vn 0.000000 0.000000 1.000000
vn 0.000000 0.000000 1.000000
vn 0.000000 0.000000 1.000000
vn 0.000000 0.000000 1.000000
vn 0.000000 0.000000 1.000000
vn 0.000000 0.000000 1.000000
vn 0.000000 0.000000 1.000000
vn 0.000000 0.000000 1.000000
vn 0.000000 0.000000 1.000000
vn 0.000000 0.000000 1.000000
vn 0.000000 0.000000 1.000000
vn 0.000000 0.000000 1.000000
vn 0.000000 0.000000 1.000000
vn 0.000000 0.000000 1.000000
vn 0.000000 1.000000 0.000000
vn 0.000000 1.000000 0.000000
vn 0.000000 1.000000 0.000000
vn 0.000000 1.000000 0.000000
vn 0.000000 0.000000 -1.000000
vn 0.000000 0.000000 -1.000000
vn 0.000000 0.000000 -1.000000
vn 0.000000 0.000000 -1.000000
vn 0.000000 0.000000 -1.000000
vn 0.000000 0.000000 -1.000000
vn 0.000000 0.000000 -1.000000
vn 0.000000 0.000000 -1.000000
vn 0.000000 0.000000 -1.000000
vn 0.000000 0.000000 -1.000000
vn 0.000000 0.000000 -1.000000
vn 0.000000 0.000000 -1.000000
vn 0.000000 0.000000 -1.000000
vn 0.000000 0.000000 -1.000000
vn 0.000000 0.000000 -1.000000
vn 0.000000 0.000000 -1.000000
vn 0.000000 0.000000 -1.000000
vn 0.000000 0.000000 -1.000000
vn 0.000000 0.000000 -1.000000
vn 0.000000 0.000000 -1.000000
vn 1.000000 0.000000 0.000000
vn 1.000000 0.000000 0.000000
vn 1.000000 0.000000 0.000000
vn 1.000000 0.000000 0.000000
vn 1.000000 -0.000002 0.000000
vn 1.000000 -0.000002 0.000000
vn 1.000000 -0.000002 0.000000
vn 1.000000 -0.000002 0.000000
vn 1.000000 0.000000 0.000000
vn 1.000000 0.000000 0.000000
vn 1.000000 0.000000 0.000000
vn 1.000000 0.000000 0.000000
vn 1.000000 0.000000 0.000000
vn 1.000000 0.000000 0.000000
vn 1.000000 0.000000 0.000000
vn 1.000000 0.000000 0.000000
vn 1.000000 0.000000 0.000000
vn 1.000000 0.000000 0.000000
vn 1.000000 0.000000 0.000000
vn 1.000000 0.000000 0.000000
vn -1.000000 0.000000 0.000000
vn -1.000000 0.000000 0.000000
vn -1.000000 0.000000 0.000000
vn -1.000000 0.000000 0.000000
vn -1.000000 -0.000002 0.000000
vn -1.000000 -0.000002 0.000000
vn -1.000000 -0.000002 0.000000
vn -1.000000 -0.000002 0.000000
vn -1.000000 0.000000 0.000000
vn -1.000000 0.000000 0.000000
vn -1.000000 0.000000 0.000000
vn -1.000000 0.000000 0.000000
vn -1.000000 0.000000 0.000000
vn -1.000000 0.000000 0.000000
vn -1.000000 0.000000 0.000000
vn -1.000000 0.000000 0.000000
vn -1.000000 0.000000 0.000000
vn -1.000000 0.000000 0.000000
vn -1.000000 0.000000 0.000000
vn -1.000000 0.000000 0.000000
vn -0.000017 1.000000 0.000004
vn 0.000017 1.000000 0.000004
vn 0.000017 1.000000 0.000004
vn -0.000017 1.000000 0.000004
vn -0.000017 -1.000000 -0.000004
vn 0.000017 -1.000000 -0.000004
vn 0.000017 -1.000000 -0.000004
vn -0.000017 -1.000000 -0.000004
vn 0.000017 -1.000000 0.000004
vn -0.000017 -1.000000 0.000004
vn -0.000017 -1.000000 0.000004
vn 0.000017 -1.000000 0.000004
vn 0.000017 1.000000 -0.000004
vn -0.000017 1.000000 -0.000004
vn -0.000017 1.000000 -0.000004
vn 0.000017 1.000000 -0.000004
vn 0.000000 1.000000 0.000000
vn 0.000000 1.000000 0.000000
vn 0.000000 1.000000 0.000000
vn 0.000000 1.000000 0.000000
vn 0.000000 -1.000000 0.000000
vn 0.000000 -1.000000 0.000000
vn 0.000000 -1.000000 0.000000
vn 0.000000 -1.000000 0.000000
vn 0.000000 -1.000000 -0.000000
vn 0.000000 -1.000000 -0.000000
vn 0.000000 -1.000000 -0.000000
vn 0.000000 -1.000000 -0.000000
vn 0.000000 1.000000 -0.000000
vn 0.000000 1.000000 -0.000000
vn 0.000000 1.000000 -0.000000
vn 0.000000 1.000000 -0.000000
s off
g bloc_3x1 BLOC_H1 bloc group1
usemtl lambert2SG
f 1/76/1 2/2/2 4/124/3 3/126/4
f 25/5/5 26/56/6 27/7/7 28/50/8
f 5/118/9 6/120/10 8/94/11 7/96/12
f 33/13/13 34/48/14 35/15/15 36/42/16
f 9/61/17 10/91/18 12/133/19 11/135/20
f 11/20/21 12/134/22 14/129/23 13/131/24
f 13/22/25 14/130/26 16/57/27 15/87/28
f 37/65/29 38/45/30 39/27/31 40/43/32
f 17/68/33 18/82/34 20/113/35 19/115/36
f 29/69/37 30/53/38 31/35/39 32/51/40
f 21/107/41 22/109/42 24/74/43 23/40/44
f 2/75/45 24/39/46 22/110/47 4/123/48
f 26/56/49 31/35/50 30/53/51 27/7/52
f 6/121/53 20/112/54 18/83/55 8/93/56
f 34/48/57 39/27/58 38/45/59 35/15/60
f 10/63/61 16/85/62 14/21/63 12/19/64
f 23/73/65 1/1/66 3/127/67 21/106/68
f 32/71/69 25/5/70 28/50/71 29/33/72
f 19/72/73 5/117/74 7/97/75 17/80/76
f 40/67/77 33/13/78 36/42/79 37/25/80
f 15/59/81 9/89/82 11/136/83 13/132/84
s 1
f 3/4/85 4/125/86 26/105/87 25/52/88
s 2
f 6/10/89 5/119/90 28/99/91 27/54/92
f 19/32/93 20/114/94 30/102/95 29/49/96
s 1
f 22/38/97 21/108/98 32/100/99 31/55/100
f 4/3/86 22/111/97 31/104/100 26/6/87
s 2
f 20/31/94 6/122/89 27/103/92 30/34/95
s 1
f 21/37/98 3/128/85 25/101/88 32/36/99
s 2
f 5/9/90 19/116/93 29/70/96 28/8/91
s 3
f 7/12/101 8/95/102 34/79/103 33/44/104
s 4
f 10/18/105 9/90/106 36/62/107 35/46/108
f 15/24/109 16/86/110 38/58/111 37/41/112
s 3
f 18/30/113 17/81/114 40/66/115 39/47/116
f 8/11/102 18/84/113 39/78/116 34/14/103
s 4
f 16/23/110 10/92/105 35/64/108 38/26/111
s 3
f 17/29/114 7/98/101 33/77/104 40/28/115
s 4
f 9/17/106 15/88/109 37/60/112 36/16/107
