# This file uses centimeters as units for non-parametric coordinates.

mtllib floor.mtl
g default
v -1.500000 -1.000000 0.500000
v 1.500000 -1.000000 0.500000
v -1.500000 0.000000 0.500000
v 1.500000 0.000000 0.500000
v -1.500000 0.000000 -0.500000
v 1.500000 0.000000 -0.500000
v -1.500000 -1.000000 -0.500000
v 1.500000 -1.000000 -0.500000
vt 0.199268 0.261370
vt 0.257229 0.338198
vt 0.382848 0.261337
vt 0.382859 0.322530
vt 0.257241 0.399392
vt 0.444052 0.322519
vt 0.444041 0.261325
vt 0.138075 0.261381
vt 0.440820 0.399358
vt 0.138086 0.322575
vt 0.440809 0.338165
vt 0.199279 0.322563
vn 0.000000 0.000000 1.000000
vn 0.000000 0.000000 1.000000
vn 0.000000 0.000000 1.000000
vn 0.000000 0.000000 1.000000
vn 0.000000 1.000000 0.000000
vn 0.000000 1.000000 0.000000
vn 0.000000 1.000000 0.000000
vn 0.000000 1.000000 0.000000
vn 1.000000 -0.000000 -0.000000
vn 1.000000 -0.000000 -0.000000
vn 1.000000 -0.000000 -0.000000
vn 1.000000 -0.000000 -0.000000
vn -1.000000 0.000000 0.000000
vn -1.000000 0.000000 0.000000
vn -1.000000 0.000000 0.000000
vn -1.000000 0.000000 0.000000
s off
g floor group1
usemtl lambert2SG
f 3/12/1 1/1/2 2/3/3 4/4/4
f 6/9/5 5/5/6 3/2/7 4/11/8
f 2/3/9 8/7/10 6/6/11 4/4/12
f 7/8/13 1/1/14 3/12/15 5/10/16
