# This file uses centimeters as units for non-parametric coordinates.

mtllib long_sign_2.mtl
g default
v -0.450000 0.000000 -0.030000
v -0.480000 0.000000 -0.000000
v -0.450000 0.000000 0.030000
v -0.420000 0.000000 0.000000
v -0.450000 1.924740 -0.030000
v -0.480000 1.924740 -0.000000
v -0.450000 1.924740 0.030000
v -0.420000 1.924740 0.000000
v 0.450000 0.000000 -0.030000
v 0.420000 0.000000 -0.000000
v 0.450000 0.000000 0.030000
v 0.480000 0.000000 0.000000
v 0.450000 1.924740 -0.030000
v 0.420000 1.924740 -0.000000
v 0.450000 1.924740 0.030000
v 0.480000 1.924740 0.000000
v -1.550000 0.840006 0.050000
v -1.490006 0.900000 0.050000
v -1.550000 0.840006 -0.050000
v -1.490006 0.900000 -0.050000
v 1.490006 0.900000 0.050000
v 1.550000 0.840006 0.050000
v 1.550000 0.840006 -0.050000
v 1.490006 0.900000 -0.050000
v -1.490006 0.600000 0.050000
v -1.550000 0.659994 0.050000
v -1.550000 0.659994 -0.050000
v -1.490006 0.600000 -0.050000
v 1.550000 0.659994 0.050000
v 1.490006 0.600000 0.050000
v 1.490006 0.600000 -0.050000
v 1.550000 0.659994 -0.050000
v -1.473437 0.860000 -0.050000
v -1.510000 0.823437 -0.050000
v 1.473438 0.860000 -0.050000
v 1.510000 0.823437 -0.050000
v 1.510000 0.676562 -0.050000
v 1.473438 0.640000 -0.050000
v -1.473437 0.640000 -0.050000
v -1.510000 0.676562 -0.050000
v -1.473437 0.640000 0.050000
v -1.510000 0.676562 0.050000
v 1.473438 0.640000 0.050000
v 1.510000 0.676562 0.050000
v 1.510000 0.823437 0.050000
v 1.473438 0.860000 0.050000
v -1.473437 0.860000 0.050000
v -1.510000 0.823437 0.050000
v -1.550000 1.840006 0.050000
v -1.490006 1.900000 0.050000
v -1.550000 1.840006 -0.050000
v -1.490006 1.900000 -0.050000
v 1.490006 1.900000 0.050000
v 1.550000 1.840006 0.050000
v 1.550000 1.840006 -0.050000
v 1.490006 1.900000 -0.050000
v -1.490006 1.600000 0.050000
v -1.550000 1.659994 0.050000
v -1.550000 1.659994 -0.050000
v -1.490006 1.600000 -0.050000
v 1.550000 1.659994 0.050000
v 1.490006 1.600000 0.050000
v 1.490006 1.600000 -0.050000
v 1.550000 1.659994 -0.050000
v -1.473437 1.860000 -0.050000
v -1.510000 1.823437 -0.050000
v 1.473438 1.860000 -0.050000
v 1.510000 1.823437 -0.050000
v 1.510000 1.676563 -0.050000
v 1.473438 1.640000 -0.050000
v -1.473437 1.640000 -0.050000
v -1.510000 1.676563 -0.050000
v -1.473437 1.640000 0.050000
v -1.510000 1.676563 0.050000
v 1.473438 1.640000 0.050000
v 1.510000 1.676563 0.050000
v 1.510000 1.823437 0.050000
v 1.473438 1.860000 0.050000
v -1.473437 1.860000 0.050000
v -1.510000 1.823437 0.050000
v -1.550000 1.340006 0.050000
v -1.490006 1.400000 0.050000
v -1.550000 1.340006 -0.050000
v -1.490006 1.400000 -0.050000
v 1.490006 1.400000 0.050000
v 1.550000 1.340006 0.050000
v 1.550000 1.340006 -0.050000
v 1.490006 1.400000 -0.050000
v -1.490006 1.100000 0.050000
v -1.550000 1.159994 0.050000
v -1.550000 1.159994 -0.050000
v -1.490006 1.100000 -0.050000
v 1.550000 1.159994 0.050000
v 1.490006 1.100000 0.050000
v 1.490006 1.100000 -0.050000
v 1.550000 1.159994 -0.050000
v -1.473437 1.360000 -0.050000
v -1.510000 1.323437 -0.050000
v 1.473438 1.360000 -0.050000
v 1.510000 1.323437 -0.050000
v 1.510000 1.176563 -0.050000
v 1.473438 1.140000 -0.050000
v -1.473437 1.140000 -0.050000
v -1.510000 1.176563 -0.050000
v -1.473437 1.140000 0.050000
v -1.510000 1.176563 0.050000
v 1.473438 1.140000 0.050000
v 1.510000 1.176563 0.050000
v 1.510000 1.323437 0.050000
v 1.473438 1.360000 0.050000
v -1.473437 1.360000 0.050000
v -1.510000 1.323437 0.050000
vt 0.067507 0.435225
vt 0.072651 0.435225
vt 0.072651 0.357422
vt 0.067507 0.357422
vt 0.070936 0.435225
vt 0.070936 0.357422
vt 0.069222 0.435225
vt 0.069222 0.357422
vt 0.074367 0.435225
vt 0.070936 0.355707
vt 0.072651 0.355707
vt 0.074367 0.357422
vt 0.074367 0.435225
vt 0.072651 0.435225
vt 0.072651 0.357422
vt 0.074367 0.357422
vt 0.070936 0.435225
vt 0.070936 0.357422
vt 0.069222 0.435225
vt 0.069222 0.357422
vt 0.067507 0.435225
vt 0.067507 0.357422
vt 0.070936 0.355707
vt 0.072651 0.355707
vt 0.028737 0.798441
vt 0.035963 0.787789
vt 0.407252 0.787289
vt 0.414492 0.798433
vt 0.036096 0.748909
vt 0.028867 0.737756
vt 0.414509 0.737753
vt 0.407291 0.748413
vt 0.412526 0.756643
vt 0.422212 0.752489
vt 0.421309 0.782849
vt 0.413119 0.779722
vt 0.022017 0.753305
vt 0.030197 0.756463
vt 0.030737 0.779545
vt 0.021032 0.783674
vt 0.450618 0.044870
vt 0.450615 0.012574
vt 0.455983 0.017941
vt 0.455985 0.039502
vt 0.020666 0.793563
vt 0.016894 0.782924
vt 0.412392 0.803736
vt 0.030923 0.803745
vt 0.425825 0.782577
vt 0.422745 0.793562
vt 0.426353 0.753224
vt 0.422579 0.742610
vt 0.030968 0.732453
vt 0.412324 0.732449
vt 0.017502 0.753554
vt 0.020612 0.742585
vt 0.038346 0.754076
vt 0.034011 0.758806
vt 0.405137 0.753606
vt 0.408773 0.758573
vt 0.409295 0.777394
vt 0.404981 0.782123
vt 0.038132 0.782596
vt 0.034497 0.777624
vt 0.012647 0.017975
vt 0.018014 0.012607
vt 0.018017 0.044903
vt 0.012649 0.039536
vt 0.028737 0.798441
vt 0.035963 0.787789
vt 0.407252 0.787289
vt 0.414492 0.798433
vt 0.036096 0.748909
vt 0.028868 0.737756
vt 0.414509 0.737753
vt 0.407291 0.748413
vt 0.412526 0.756643
vt 0.422212 0.752489
vt 0.421309 0.782849
vt 0.413120 0.779722
vt 0.022017 0.753305
vt 0.030197 0.756463
vt 0.030737 0.779545
vt 0.021032 0.783674
vt 0.450618 0.115292
vt 0.450615 0.082996
vt 0.455983 0.088363
vt 0.455985 0.109924
vt 0.020666 0.793563
vt 0.016894 0.782924
vt 0.412392 0.803736
vt 0.030923 0.803745
vt 0.425825 0.782577
vt 0.422745 0.793562
vt 0.426353 0.753224
vt 0.422579 0.742610
vt 0.030968 0.732453
vt 0.412324 0.732449
vt 0.017502 0.753554
vt 0.020612 0.742585
vt 0.038346 0.754077
vt 0.034011 0.758806
vt 0.405137 0.753606
vt 0.408774 0.758573
vt 0.409295 0.777394
vt 0.404981 0.782123
vt 0.038132 0.782596
vt 0.034497 0.777624
vt 0.012647 0.088398
vt 0.018014 0.083030
vt 0.018017 0.115326
vt 0.012649 0.109959
vt 0.028737 0.798441
vt 0.035963 0.787789
vt 0.407252 0.787289
vt 0.414492 0.798433
vt 0.036095 0.748909
vt 0.028868 0.737756
vt 0.414509 0.737753
vt 0.407291 0.748413
vt 0.412526 0.756643
vt 0.422212 0.752489
vt 0.421309 0.782849
vt 0.413120 0.779722
vt 0.022018 0.753305
vt 0.030197 0.756463
vt 0.030737 0.779545
vt 0.021032 0.783674
vt 0.450618 0.079963
vt 0.450615 0.047667
vt 0.455983 0.053034
vt 0.455985 0.074595
vt 0.020666 0.793563
vt 0.016894 0.782924
vt 0.412392 0.803736
vt 0.030923 0.803745
vt 0.425825 0.782577
vt 0.422745 0.793562
vt 0.426353 0.753224
vt 0.422579 0.742610
vt 0.030968 0.732453
vt 0.412324 0.732449
vt 0.017502 0.753554
vt 0.020612 0.742585
vt 0.038346 0.754077
vt 0.034011 0.758806
vt 0.405137 0.753606
vt 0.408774 0.758573
vt 0.409295 0.777394
vt 0.404981 0.782123
vt 0.038132 0.782596
vt 0.034497 0.777624
vt 0.012647 0.053069
vt 0.018014 0.047701
vt 0.018017 0.079997
vt 0.012649 0.074630
vn -0.707107 0.000000 -0.707107
vn -0.707107 0.000000 -0.707107
vn -0.707107 0.000000 -0.707107
vn -0.707107 0.000000 -0.707107
vn -0.707107 0.000000 0.707107
vn -0.707107 0.000000 0.707107
vn -0.707107 0.000000 0.707107
vn -0.707107 0.000000 0.707107
vn 0.707107 0.000000 0.707107
vn 0.707107 0.000000 0.707107
vn 0.707107 0.000000 0.707107
vn 0.707107 0.000000 0.707107
vn 0.707107 0.000000 -0.707107
vn 0.707107 0.000000 -0.707107
vn 0.707107 0.000000 -0.707107
vn 0.707107 0.000000 -0.707107
vn 0.000000 1.000000 0.000000
vn 0.000000 1.000000 0.000000
vn 0.000000 1.000000 0.000000
vn 0.000000 1.000000 0.000000
vn -0.707107 0.000000 -0.707107
vn -0.707107 0.000000 -0.707107
vn -0.707107 0.000000 -0.707107
vn -0.707107 0.000000 -0.707107
vn -0.707107 0.000000 0.707107
vn -0.707107 0.000000 0.707107
vn -0.707107 0.000000 0.707107
vn -0.707107 0.000000 0.707107
vn 0.707107 0.000000 0.707107
vn 0.707107 0.000000 0.707107
vn 0.707107 0.000000 0.707107
vn 0.707107 0.000000 0.707107
vn 0.707107 0.000000 -0.707107
vn 0.707107 0.000000 -0.707107
vn 0.707107 0.000000 -0.707107
vn 0.707107 0.000000 -0.707107
vn 0.000000 1.000000 0.000000
vn 0.000000 1.000000 0.000000
vn 0.000000 1.000000 0.000000
vn 0.000000 1.000000 0.000000
vn 0.000000 1.000000 0.000000
vn 0.000000 1.000000 0.000000
vn 0.000000 1.000000 0.000000
vn 0.000000 1.000000 0.000000
vn 0.000000 -1.000000 0.000000
vn 0.000000 -1.000000 0.000000
vn 0.000000 -1.000000 0.000000
vn 0.000000 -1.000000 0.000000
vn 1.000000 0.000000 0.000000
vn 1.000000 0.000000 0.000000
vn 1.000000 0.000000 0.000000
vn 1.000000 0.000000 0.000000
vn -1.000000 0.000000 0.000000
vn -1.000000 0.000000 0.000000
vn -1.000000 0.000000 0.000000
vn -1.000000 0.000000 0.000000
vn 0.000000 0.000000 1.000000
vn 0.000000 0.000000 1.000000
vn 0.000000 0.000000 1.000000
vn 0.000000 0.000000 1.000000
vn -0.707107 0.707107 0.000000
vn -0.707107 0.707107 0.000000
vn -0.707107 0.707107 0.000000
vn -0.707107 0.707107 0.000000
vn 0.707108 0.707106 0.000000
vn 0.707108 0.707106 0.000000
vn 0.707108 0.707106 0.000000
vn 0.707108 0.707106 0.000000
vn -0.707107 -0.707107 0.000000
vn -0.707107 -0.707107 0.000000
vn -0.707107 -0.707107 0.000000
vn -0.707107 -0.707107 0.000000
vn 0.707108 -0.707106 0.000000
vn 0.707108 -0.707106 0.000000
vn 0.707108 -0.707106 0.000000
vn 0.707108 -0.707106 0.000000
vn -0.000000 0.000000 -1.000000
vn 0.000000 0.000000 -1.000000
vn 0.000000 0.000000 -1.000000
vn -0.000000 0.000000 -1.000000
vn -0.000000 0.000000 -1.000000
vn -0.000000 0.000000 -1.000000
vn 0.000000 0.000000 -1.000000
vn 0.000000 0.000000 -1.000000
vn 0.000000 0.000000 -1.000000
vn 0.000000 0.000000 -1.000000
vn -0.000000 0.000000 -1.000000
vn -0.000000 0.000000 -1.000000
vn 0.000000 0.000000 -1.000000
vn 0.000000 0.000000 -1.000000
vn -0.000000 0.000000 -1.000000
vn -0.000000 0.000000 -1.000000
vn -0.000000 0.000000 1.000000
vn 0.000000 0.000000 1.000000
vn -0.000000 0.000000 1.000000
vn -0.000000 0.000000 1.000000
vn -0.000000 0.000000 1.000000
vn 0.000000 0.000000 1.000000
vn 0.000000 0.000000 1.000000
vn -0.000000 0.000000 1.000000
vn 0.000000 0.000000 1.000000
vn -0.000000 0.000000 1.000000
vn -0.000000 0.000000 1.000000
vn -0.000000 0.000000 1.000000
vn 0.000000 1.000000 0.000000
vn 0.000000 1.000000 0.000000
vn 0.000000 1.000000 0.000000
vn 0.000000 1.000000 0.000000
vn 0.000000 -1.000000 0.000000
vn 0.000000 -1.000000 0.000000
vn 0.000000 -1.000000 0.000000
vn 0.000000 -1.000000 0.000000
vn 1.000000 0.000000 0.000000
vn 1.000000 0.000000 0.000000
vn 1.000000 0.000000 0.000000
vn 1.000000 0.000000 0.000000
vn -1.000000 0.000000 0.000000
vn -1.000000 0.000000 0.000000
vn -1.000000 0.000000 0.000000
vn -1.000000 0.000000 0.000000
vn -0.000000 0.000000 1.000000
vn -0.000000 0.000000 1.000000
vn -0.000000 0.000000 1.000000
vn -0.000000 0.000000 1.000000
vn -0.707107 0.707107 0.000000
vn -0.707107 0.707107 0.000000
vn -0.707107 0.707107 0.000000
vn -0.707107 0.707107 0.000000
vn 0.707108 0.707106 0.000000
vn 0.707108 0.707106 0.000000
vn 0.707108 0.707106 0.000000
vn 0.707108 0.707106 0.000000
vn -0.707107 -0.707107 0.000000
vn -0.707107 -0.707107 0.000000
vn -0.707107 -0.707107 0.000000
vn -0.707107 -0.707107 0.000000
vn 0.707108 -0.707106 0.000000
vn 0.707108 -0.707106 0.000000
vn 0.707108 -0.707106 0.000000
vn 0.707108 -0.707106 0.000000
vn 0.000000 0.000000 -1.000000
vn 0.000000 0.000000 -1.000000
vn 0.000000 0.000000 -1.000000
vn 0.000000 0.000000 -1.000000
vn 0.000000 0.000000 -1.000000
vn 0.000000 0.000000 -1.000000
vn -0.000000 0.000000 -1.000000
vn -0.000000 0.000000 -1.000000
vn -0.000000 0.000000 -1.000000
vn -0.000000 0.000000 -1.000000
vn -0.000000 0.000000 -1.000000
vn -0.000000 0.000000 -1.000000
vn 0.000000 0.000000 -1.000000
vn 0.000000 0.000000 -1.000000
vn 0.000000 0.000000 -1.000000
vn 0.000000 0.000000 -1.000000
vn 0.000000 0.000000 1.000000
vn 0.000000 0.000000 1.000000
vn 0.000000 0.000000 1.000000
vn 0.000000 0.000000 1.000000
vn 0.000000 0.000000 1.000000
vn -0.000000 0.000000 1.000000
vn -0.000000 0.000000 1.000000
vn -0.000000 0.000000 1.000000
vn 0.000000 0.000000 1.000000
vn 0.000000 0.000000 1.000000
vn 0.000000 0.000000 1.000000
vn 0.000000 0.000000 1.000000
vn 0.000000 1.000000 0.000000
vn 0.000000 1.000000 0.000000
vn 0.000000 1.000000 0.000000
vn 0.000000 1.000000 0.000000
vn 0.000000 -1.000000 0.000000
vn 0.000000 -1.000000 0.000000
vn 0.000000 -1.000000 0.000000
vn 0.000000 -1.000000 0.000000
vn 1.000000 0.000000 0.000000
vn 1.000000 0.000000 0.000000
vn 1.000000 0.000000 0.000000
vn 1.000000 0.000000 0.000000
vn -1.000000 0.000000 0.000000
vn -1.000000 0.000000 0.000000
vn -1.000000 0.000000 0.000000
vn -1.000000 0.000000 0.000000
vn -0.000000 0.000000 1.000000
vn -0.000000 0.000000 1.000000
vn -0.000000 0.000000 1.000000
vn -0.000000 0.000000 1.000000
vn -0.707107 0.707107 0.000000
vn -0.707107 0.707107 0.000000
vn -0.707107 0.707107 0.000000
vn -0.707107 0.707107 0.000000
vn 0.707108 0.707106 0.000000
vn 0.707108 0.707106 0.000000
vn 0.707108 0.707106 0.000000
vn 0.707108 0.707106 0.000000
vn -0.707107 -0.707107 0.000000
vn -0.707107 -0.707107 0.000000
vn -0.707107 -0.707107 0.000000
vn -0.707107 -0.707107 0.000000
vn 0.707108 -0.707106 0.000000
vn 0.707108 -0.707106 0.000000
vn 0.707108 -0.707106 0.000000
vn 0.707108 -0.707106 0.000000
vn 0.000000 0.000000 -1.000000
vn 0.000000 0.000000 -1.000000
vn 0.000000 0.000000 -1.000000
vn 0.000000 0.000000 -1.000000
vn 0.000000 0.000000 -1.000000
vn 0.000000 0.000000 -1.000000
vn -0.000000 0.000000 -1.000000
vn -0.000000 0.000000 -1.000000
vn -0.000000 0.000000 -1.000000
vn -0.000000 0.000000 -1.000000
vn -0.000000 0.000000 -1.000000
vn -0.000000 0.000000 -1.000000
vn 0.000000 0.000000 -1.000000
vn 0.000000 0.000000 -1.000000
vn 0.000000 0.000000 -1.000000
vn 0.000000 0.000000 -1.000000
vn 0.000000 0.000000 1.000000
vn 0.000000 0.000000 1.000000
vn 0.000000 0.000000 1.000000
vn 0.000000 0.000000 1.000000
vn 0.000000 0.000000 1.000000
vn -0.000000 0.000000 1.000000
vn -0.000000 0.000000 1.000000
vn -0.000000 0.000000 1.000000
vn 0.000000 0.000000 1.000000
vn 0.000000 0.000000 1.000000
vn 0.000000 0.000000 1.000000
vn 0.000000 0.000000 1.000000
s off
g Mini_Panneau_3x2 decor1 group1
usemtl lambert2SG
f 1/9/1 2/2/2 6/3/3 5/12/4
f 2/2/5 3/5/6 7/6/7 6/3/8
f 3/5/9 4/7/10 8/8/11 7/6/12
f 4/7/13 1/1/14 5/4/15 8/8/16
f 6/3/17 7/6/18 8/10/19 5/11/20
f 9/13/21 10/14/22 14/15/23 13/16/24
f 10/14/25 11/17/26 15/18/27 14/15/28
f 11/17/29 12/19/30 16/20/31 15/18/32
f 12/19/33 9/21/34 13/22/35 16/20/36
f 14/15/37 15/18/38 16/23/39 13/24/40
f 20/25/41 18/26/42 21/27/43 24/28/44
f 25/29/45 28/30/46 31/31/47 30/32/48
f 29/33/49 32/34/50 23/35/51 22/36/52
f 27/37/53 26/38/54 17/39/55 19/40/56
s 1
f 46/41/57 43/42/58 44/43/59 45/44/60
s off
f 17/39/61 18/26/62 20/25/63 19/40/64
f 21/27/65 22/36/66 23/35/67 24/28/68
f 25/29/69 26/38/70 27/37/71 28/30/72
f 29/33/73 30/32/74 31/31/75 32/34/76
s 2
f 19/40/77 20/25/78 33/45/79 34/46/80
f 20/25/78 24/28/81 35/47/82 33/48/79
f 24/28/81 23/35/83 36/49/84 35/50/82
f 23/35/83 32/34/85 37/51/86 36/49/84
f 32/34/85 31/31/87 38/52/88 37/51/86
f 31/31/87 28/30/89 39/53/90 38/54/88
f 28/30/89 27/37/91 40/55/92 39/56/90
f 27/37/91 19/40/77 34/46/80 40/55/92
s 1
f 26/38/93 25/29/94 41/57/95 42/58/96
f 25/29/94 30/32/97 43/59/58 41/57/95
f 30/32/97 29/33/98 44/60/59 43/59/58
f 29/33/98 22/36/99 45/61/60 44/60/59
f 22/36/99 21/27/100 46/62/57 45/61/60
f 21/27/100 18/26/101 47/63/102 46/62/57
f 18/26/101 17/39/103 48/64/104 47/63/102
f 17/39/103 26/38/93 42/58/96 48/64/104
f 42/65/96 41/66/95 47/67/102 48/68/104
f 47/67/102 41/66/95 43/42/58 46/41/57
s off
f 52/69/105 50/70/106 53/71/107 56/72/108
f 57/73/109 60/74/110 63/75/111 62/76/112
f 61/77/113 64/78/114 55/79/115 54/80/116
f 59/81/117 58/82/118 49/83/119 51/84/120
s 4
f 78/85/121 75/86/122 76/87/123 77/88/124
s off
f 49/83/125 50/70/126 52/69/127 51/84/128
f 53/71/129 54/80/130 55/79/131 56/72/132
f 57/73/133 58/82/134 59/81/135 60/74/136
f 61/77/137 62/76/138 63/75/139 64/78/140
s 5
f 51/84/141 52/69/142 65/89/143 66/90/144
f 52/69/142 56/72/145 67/91/146 65/92/143
f 56/72/145 55/79/147 68/93/148 67/94/146
f 55/79/147 64/78/149 69/95/150 68/93/148
f 64/78/149 63/75/151 70/96/152 69/95/150
f 63/75/151 60/74/153 71/97/154 70/98/152
f 60/74/153 59/81/155 72/99/156 71/100/154
f 59/81/155 51/84/141 66/90/144 72/99/156
s 4
f 58/82/157 57/73/158 73/101/159 74/102/160
f 57/73/158 62/76/161 75/103/122 73/101/159
f 62/76/161 61/77/162 76/104/123 75/103/122
f 61/77/162 54/80/163 77/105/124 76/104/123
f 54/80/163 53/71/164 78/106/121 77/105/124
f 53/71/164 50/70/165 79/107/166 78/106/121
f 50/70/165 49/83/167 80/108/168 79/107/166
f 49/83/167 58/82/157 74/102/160 80/108/168
f 74/109/160 73/110/159 79/111/166 80/112/168
f 79/111/166 73/110/159 75/86/122 78/85/121
s off
f 84/113/169 82/114/170 85/115/171 88/116/172
f 89/117/173 92/118/174 95/119/175 94/120/176
f 93/121/177 96/122/178 87/123/179 86/124/180
f 91/125/181 90/126/182 81/127/183 83/128/184
s 7
f 110/129/185 107/130/186 108/131/187 109/132/188
s off
f 81/127/189 82/114/190 84/113/191 83/128/192
f 85/115/193 86/124/194 87/123/195 88/116/196
f 89/117/197 90/126/198 91/125/199 92/118/200
f 93/121/201 94/120/202 95/119/203 96/122/204
s 8
f 83/128/205 84/113/206 97/133/207 98/134/208
f 84/113/206 88/116/209 99/135/210 97/136/207
f 88/116/209 87/123/211 100/137/212 99/138/210
f 87/123/211 96/122/213 101/139/214 100/137/212
f 96/122/213 95/119/215 102/140/216 101/139/214
f 95/119/215 92/118/217 103/141/218 102/142/216
f 92/118/217 91/125/219 104/143/220 103/144/218
f 91/125/219 83/128/205 98/134/208 104/143/220
s 7
f 90/126/221 89/117/222 105/145/223 106/146/224
f 89/117/222 94/120/225 107/147/186 105/145/223
f 94/120/225 93/121/226 108/148/187 107/147/186
f 93/121/226 86/124/227 109/149/188 108/148/187
f 86/124/227 85/115/228 110/150/185 109/149/188
f 85/115/228 82/114/229 111/151/230 110/150/185
f 82/114/229 81/127/231 112/152/232 111/151/230
f 81/127/231 90/126/221 106/146/224 112/152/232
f 106/153/224 105/154/223 111/155/230 112/156/232
f 111/155/230 105/154/223 107/130/186 110/129/185
