# This file uses centimeters as units for non-parametric coordinates.

mtllib long_sign_1.mtl
g default
v -0.550000 0.840006 0.050000
v -0.490006 0.900000 0.050000
v -0.550000 0.840006 -0.050000
v -0.490006 0.900000 -0.050000
v 2.490006 0.900000 0.050000
v 2.550000 0.840006 0.050000
v 2.550000 0.840006 -0.050000
v 2.490006 0.900000 -0.050000
v -0.490006 0.600000 0.050000
v -0.550000 0.659994 0.050000
v -0.550000 0.659994 -0.050000
v -0.490006 0.600000 -0.050000
v 2.550000 0.659994 0.050000
v 2.490006 0.600000 0.050000
v 2.490006 0.600000 -0.050000
v 2.550000 0.659994 -0.050000
v -0.473437 0.860000 -0.050000
v -0.510000 0.823437 -0.050000
v 2.473437 0.860000 -0.050000
v 2.510000 0.823437 -0.050000
v 2.510000 0.676562 -0.050000
v 2.473437 0.640000 -0.050000
v -0.473437 0.640000 -0.050000
v -0.510000 0.676562 -0.050000
v -0.473437 0.640000 0.050000
v -0.510000 0.676562 0.050000
v 2.473437 0.640000 0.050000
v 2.510000 0.676562 0.050000
v 2.510000 0.823437 0.050000
v 2.473437 0.860000 0.050000
v -0.473437 0.860000 0.050000
v -0.510000 0.823437 0.050000
v 0.550000 0.000000 -0.030000
v 0.520000 0.000000 -0.000000
v 0.550000 0.000000 0.030000
v 0.580000 0.000000 0.000000
v 0.550000 0.924740 -0.030000
v 0.520000 0.924740 -0.000000
v 0.550000 0.924740 0.030000
v 0.580000 0.924740 0.000000
v 1.450000 0.000000 -0.030000
v 1.420000 0.000000 -0.000000
v 1.450000 0.000000 0.030000
v 1.480000 0.000000 0.000000
v 1.450000 0.924740 -0.030000
v 1.420000 0.924740 -0.000000
v 1.450000 0.924740 0.030000
v 1.480000 0.924740 0.000000
vt 0.028739 0.798458
vt 0.035965 0.787806
vt 0.407254 0.787272
vt 0.414495 0.798415
vt 0.036094 0.748926
vt 0.028865 0.737774
vt 0.414506 0.737736
vt 0.407289 0.748396
vt 0.412525 0.756626
vt 0.422211 0.752470
vt 0.421310 0.782831
vt 0.413121 0.779704
vt 0.022016 0.753323
vt 0.030196 0.756480
vt 0.030738 0.779563
vt 0.021033 0.783693
vt 0.450618 0.044868
vt 0.450615 0.012572
vt 0.408773 0.758556
vt 0.409296 0.777377
vt 0.030926 0.803762
vt 0.016896 0.782943
vt 0.422747 0.793543
vt 0.425826 0.782558
vt 0.426351 0.753206
vt 0.412321 0.732432
vt 0.020610 0.742604
vt 0.017501 0.753573
vt 0.018014 0.012609
vt 0.012647 0.017977
vt 0.018017 0.044905
vt 0.034498 0.777641
vt 0.034010 0.758823
vt 0.012649 0.039538
vt 0.038133 0.782613
vt 0.404983 0.782106
vt 0.455985 0.039500
vt 0.455983 0.017939
vt 0.405136 0.753590
vt 0.038345 0.754093
vt 0.030964 0.732471
vt 0.422577 0.742592
vt 0.412396 0.803719
vt 0.020669 0.793581
vt 0.099943 0.432176
vt 0.096718 0.432176
vt 0.096718 0.361916
vt 0.099943 0.361916
vt 0.093495 0.432176
vt 0.093495 0.361916
vt 0.090273 0.432176
vt 0.090273 0.361916
vt 0.087049 0.432176
vt 0.087049 0.361916
vt 0.093495 0.358691
vt 0.096718 0.358691
vt 0.099943 0.432176
vt 0.096718 0.432176
vt 0.096718 0.361916
vt 0.099943 0.361916
vt 0.093495 0.432176
vt 0.093495 0.361916
vt 0.090273 0.432176
vt 0.090273 0.361916
vt 0.087049 0.432176
vt 0.087049 0.361916
vt 0.093495 0.358691
vt 0.096718 0.358691
vn 0.000000 1.000000 0.000000
vn 0.000000 1.000000 0.000000
vn 0.000000 1.000000 0.000000
vn 0.000000 1.000000 0.000000
vn 0.000000 -1.000000 0.000000
vn 0.000000 -1.000000 0.000000
vn 0.000000 -1.000000 0.000000
vn 0.000000 -1.000000 0.000000
vn 1.000000 0.000000 0.000000
vn 1.000000 0.000000 0.000000
vn 1.000000 0.000000 0.000000
vn 1.000000 0.000000 0.000000
vn -1.000000 0.000000 0.000000
vn -1.000000 0.000000 0.000000
vn -1.000000 0.000000 0.000000
vn -1.000000 0.000000 0.000000
vn 0.000000 0.000000 1.000000
vn 0.000000 0.000000 1.000000
vn 0.000000 0.000000 1.000000
vn 0.000000 0.000000 1.000000
vn -0.707107 0.707107 0.000000
vn -0.707107 0.707107 0.000000
vn -0.707107 0.707107 0.000000
vn -0.707107 0.707107 0.000000
vn 0.707107 0.707107 0.000000
vn 0.707107 0.707107 0.000000
vn 0.707107 0.707107 0.000000
vn 0.707107 0.707107 0.000000
vn -0.707107 -0.707107 0.000000
vn -0.707107 -0.707107 0.000000
vn -0.707107 -0.707107 0.000000
vn -0.707107 -0.707107 0.000000
vn 0.707107 -0.707107 0.000000
vn 0.707107 -0.707107 0.000000
vn 0.707107 -0.707107 0.000000
vn 0.707107 -0.707107 0.000000
vn -0.000000 0.000000 -1.000000
vn 0.000000 0.000000 -1.000000
vn 0.000000 0.000000 -1.000000
vn -0.000000 0.000000 -1.000000
vn -0.000000 0.000000 -1.000000
vn -0.000000 0.000000 -1.000000
vn 0.000000 0.000000 -1.000000
vn 0.000000 0.000000 -1.000000
vn 0.000000 0.000000 -1.000000
vn 0.000000 0.000000 -1.000000
vn -0.000000 0.000000 -1.000000
vn -0.000000 0.000000 -1.000000
vn 0.000000 0.000000 -1.000000
vn 0.000000 0.000000 -1.000000
vn -0.000000 0.000000 -1.000000
vn -0.000000 0.000000 -1.000000
vn -0.000000 0.000000 1.000000
vn 0.000000 0.000000 1.000000
vn -0.000000 0.000000 1.000000
vn -0.000000 0.000000 1.000000
vn -0.000000 0.000000 1.000000
vn 0.000000 0.000000 1.000000
vn 0.000000 0.000000 1.000000
vn -0.000000 0.000000 1.000000
vn 0.000000 0.000000 1.000000
vn -0.000000 0.000000 1.000000
vn -0.000000 0.000000 1.000000
vn -0.000000 0.000000 1.000000
vn -0.707106 0.000000 -0.707107
vn -0.707106 0.000000 -0.707107
vn -0.707106 0.000000 -0.707107
vn -0.707106 0.000000 -0.707107
vn -0.707106 0.000000 0.707107
vn -0.707106 0.000000 0.707107
vn -0.707106 0.000000 0.707107
vn -0.707106 0.000000 0.707107
vn 0.707106 0.000000 0.707107
vn 0.707106 0.000000 0.707107
vn 0.707106 0.000000 0.707107
vn 0.707106 0.000000 0.707107
vn 0.707106 0.000000 -0.707107
vn 0.707106 0.000000 -0.707107
vn 0.707106 0.000000 -0.707107
vn 0.707106 0.000000 -0.707107
vn 0.000000 1.000000 0.000000
vn 0.000000 1.000000 0.000000
vn 0.000000 1.000000 0.000000
vn 0.000000 1.000000 0.000000
vn -0.707106 0.000000 -0.707108
vn -0.707106 0.000000 -0.707108
vn -0.707106 0.000000 -0.707108
vn -0.707106 0.000000 -0.707108
vn -0.707106 0.000000 0.707108
vn -0.707106 0.000000 0.707108
vn -0.707106 0.000000 0.707108
vn -0.707106 0.000000 0.707108
vn 0.707107 0.000000 0.707106
vn 0.707107 0.000000 0.707106
vn 0.707107 0.000000 0.707106
vn 0.707107 0.000000 0.707106
vn 0.707107 0.000000 -0.707106
vn 0.707107 0.000000 -0.707106
vn 0.707107 0.000000 -0.707106
vn 0.707107 0.000000 -0.707106
vn 0.000000 1.000000 -0.000001
vn 0.000000 1.000000 -0.000001
vn 0.000000 1.000000 -0.000001
vn 0.000000 1.000000 -0.000001
s off
g Mini_Panneau_3x1 decor1 obstacle
usemtl lambert2SG
f 4/1/1 2/2/2 5/3/3 8/4/4
f 9/5/5 12/6/6 15/7/7 14/8/8
f 13/9/9 16/10/10 7/11/11 6/12/12
f 11/13/13 10/14/14 1/15/15 3/16/16
s 1
f 30/17/17 27/18/18 28/38/19 29/37/20
s off
f 1/15/21 2/2/22 4/1/23 3/16/24
f 5/3/25 6/12/26 7/11/27 8/4/28
f 9/5/29 10/14/30 11/13/31 12/6/32
f 13/9/33 14/8/34 15/7/35 16/10/36
s 2
f 3/16/37 4/1/38 17/44/39 18/22/40
f 4/1/38 8/4/41 19/43/42 17/21/39
f 8/4/41 7/11/43 20/24/44 19/23/42
f 7/11/43 16/10/45 21/25/46 20/24/44
f 16/10/45 15/7/47 22/42/48 21/25/46
f 15/7/47 12/6/49 23/41/50 22/26/48
f 12/6/49 11/13/51 24/28/52 23/27/50
f 11/13/51 3/16/37 18/22/40 24/28/52
s 1
f 10/14/53 9/5/54 25/40/55 26/33/56
f 9/5/54 14/8/57 27/39/18 25/40/55
f 14/8/57 13/9/58 28/19/19 27/39/18
f 13/9/58 6/12/59 29/20/20 28/19/19
f 6/12/59 5/3/60 30/36/17 29/20/20
f 5/3/60 2/2/61 31/35/62 30/36/17
f 2/2/61 1/15/63 32/32/64 31/35/62
f 1/15/63 10/14/53 26/33/56 32/32/64
f 26/30/56 25/29/55 31/31/62 32/34/64
f 31/31/62 25/29/55 27/18/18 30/17/17
s off
f 33/45/65 34/46/66 38/47/67 37/48/68
f 34/46/69 35/49/70 39/50/71 38/47/72
f 35/49/73 36/51/74 40/52/75 39/50/76
f 36/51/77 33/53/78 37/54/79 40/52/80
f 38/47/81 39/50/82 40/55/83 37/56/84
f 41/57/85 42/58/86 46/59/87 45/60/88
f 42/58/89 43/61/90 47/62/91 46/59/92
f 43/61/93 44/63/94 48/64/95 47/62/96
f 44/63/97 41/65/98 45/66/99 48/64/100
f 46/59/101 47/62/102 48/67/103 45/68/104
