# This file uses centimeters as units for non-parametric coordinates.

mtllib plot.mtl
g default
v -0.500000 0.072695 0.163186
v 0.500000 0.072695 0.163186
v -0.300167 0.580876 0.035914
v 0.300167 0.580876 0.035914
v -0.300167 0.580876 -0.035914
v 0.300167 0.580876 -0.035914
v -0.500000 0.072695 -0.163186
v 0.500000 0.072695 -0.163186
v 0.000000 0.072695 0.163186
v 0.000000 0.072695 -0.163186
v 0.100000 0.072695 0.163186
v 0.060033 0.580876 0.035914
v 0.060033 0.580876 -0.035914
v 0.100000 0.072695 -0.163186
v -0.100000 0.072695 0.163186
v -0.060033 0.580876 0.035914
v -0.060033 0.580876 -0.035914
v -0.100000 0.072695 -0.163186
v -0.374822 0.300187 0.106212
v -0.374822 0.300187 -0.106212
v -0.074964 0.300186 -0.106212
v 0.000000 0.300186 -0.106212
v 0.074964 0.300186 -0.106212
v 0.374822 0.300187 -0.106212
v 0.374822 0.300187 0.106212
v 0.074964 0.300186 0.106212
v 0.000000 0.300187 0.106212
v -0.074964 0.300187 0.106212
v 0.000000 0.533487 0.039715
v 0.000000 0.533487 -0.039715
v 0.057701 0.533487 0.033982
v 0.057701 0.533487 -0.033982
v -0.057701 0.533487 0.033982
v -0.057701 0.533487 -0.033982
v -0.072052 0.300186 -0.075535
v 0.000000 0.300186 -0.088280
v 0.072052 0.300186 -0.075535
v 0.000000 0.300187 0.088280
v 0.072052 0.300186 0.075535
v -0.072052 0.300187 0.075535
v -0.500000 -0.038791 0.163186
v -0.100000 -0.038791 0.163186
v -0.500000 -0.038791 -0.163186
v -0.100000 -0.038791 -0.163186
v 0.500000 -0.038791 -0.163186
v 0.500000 -0.038791 0.163186
v 0.000000 -0.038791 0.163186
v 0.100000 -0.038791 0.163186
v 0.000000 -0.038791 -0.163186
v 0.100000 -0.038791 -0.163186
vt 0.208903 0.596933
vt 0.615668 0.742727
vt 0.616575 0.768995
vt 0.584793 0.761003
vt 0.199479 0.637873
vt 0.602874 0.798824
vt 0.194155 0.655746
vt 0.669432 0.788491
vt 0.666252 0.760879
vt 0.634506 0.768991
vt 0.635332 0.742740
vt 0.676268 0.735701
vt 0.676267 0.735700
vt 0.208903 0.596933
vt 0.204686 0.616257
vt 0.666251 0.760878
vt 0.625500 0.743179
vt 0.635331 0.742740
vt 0.634506 0.768991
vt 0.625539 0.768241
vt 0.920920 0.763916
vt 0.920637 0.783459
vt 0.921112 0.776352
vt 0.606183 0.795016
vt 0.625539 0.768241
vt 0.616575 0.768995
vt 0.625500 0.743179
vt 0.615668 0.742726
vt 0.602874 0.798823
vt 0.194155 0.655746
vt 0.669433 0.788490
vt 0.581789 0.788682
vt 0.921395 0.756808
vt 0.606183 0.795016
vt 0.887580 0.763904
vt 0.632617 0.771917
vt 0.887952 0.772910
vt 0.887297 0.783448
vt 0.632617 0.771917
vt 0.618485 0.771909
vt 0.208894 0.588638
vt 0.616430 0.730943
vt 0.634628 0.730955
vt 0.674859 0.724299
vt 0.674858 0.724298
vt 0.208894 0.588638
vt 0.625528 0.731353
vt 0.634627 0.730955
vt 0.616431 0.730942
vt 0.625529 0.731353
vt 0.574721 0.735800
vt 0.576120 0.724273
vt 0.184620 0.596960
vt 0.184611 0.588665
vt 0.625544 0.769969
vt 0.887670 0.792454
vt 0.935603 0.766371
vt 0.887695 0.774441
vt 0.194302 0.659275
vt 0.199359 0.659270
vt 0.926933 0.780626
vt 0.618485 0.771909
vt 0.625544 0.769969
vt 0.194302 0.659276
vt 0.645076 0.794963
vt 0.887978 0.754897
vt 0.584793 0.761002
vt 0.188881 0.616274
vt 0.184620 0.596960
vt 0.184611 0.588665
vt 0.574721 0.735801
vt 0.576118 0.724274
vt 0.199359 0.659270
vt 0.648410 0.798753
vt 0.199499 0.655740
vt 0.199499 0.655740
vt 0.645077 0.794963
vt 0.648412 0.798752
vt 0.188881 0.616274
vt 0.194135 0.637879
vt 0.204686 0.616257
vt 0.581789 0.788684
vt 0.199479 0.637873
vt 0.194135 0.637879
vt 0.926991 0.766372
vt 0.926545 0.773478
vt 0.921115 0.790605
vt 0.935991 0.773519
vt 0.921397 0.771062
vt 0.935546 0.780624
vn 0.000000 0.242945 0.970040
vn 0.000000 0.242945 0.970040
vn 0.000000 0.242945 0.970040
vn 0.000000 0.242945 0.970040
vn 0.000000 1.000000 0.000000
vn 0.000000 1.000000 0.000000
vn 0.000000 1.000000 0.000000
vn 0.000000 1.000000 0.000000
vn 0.000000 0.242945 -0.970040
vn 0.000000 0.242945 -0.970040
vn 0.000000 0.242945 -0.970040
vn 0.000000 0.242945 -0.970040
vn 0.876122 0.482089 0.000000
vn 0.876122 0.482089 0.000000
vn 0.876122 0.482089 0.000000
vn 0.876122 0.482089 0.000000
vn -0.876122 0.482089 0.000000
vn -0.876122 0.482089 0.000000
vn -0.876122 0.482089 0.000000
vn -0.876122 0.482089 0.000000
vn 0.000000 0.242945 0.970040
vn 0.000000 0.242945 0.970040
vn 0.000000 0.242945 0.970040
vn 0.000000 0.242945 0.970040
vn 0.000000 1.000000 0.000000
vn 0.000000 1.000000 0.000000
vn 0.000000 1.000000 0.000000
vn 0.000000 1.000000 0.000000
vn 0.000000 0.242945 -0.970040
vn 0.000000 0.242945 -0.970040
vn 0.000000 0.242945 -0.970040
vn 0.000000 0.242945 -0.970040
vn 0.000000 0.242945 0.970040
vn 0.000000 0.242945 0.970040
vn 0.000000 0.242945 0.970040
vn 0.000000 0.242945 0.970040
vn 0.000000 1.000000 0.000000
vn 0.000000 1.000000 0.000000
vn 0.000000 1.000000 0.000000
vn 0.000000 1.000000 0.000000
vn 0.000000 0.242945 -0.970040
vn 0.000000 0.242945 -0.970040
vn 0.000000 0.242945 -0.970040
vn 0.000000 0.242945 -0.970040
vn 0.000000 0.242945 0.970040
vn 0.000000 0.242945 0.970040
vn 0.000000 0.242945 0.970040
vn 0.000000 0.242945 0.970040
vn 0.000000 1.000000 0.000000
vn 0.000000 1.000000 0.000000
vn 0.000000 0.242945 -0.970040
vn 0.000000 0.242945 -0.970040
vn 0.000000 0.242945 -0.970040
vn 0.000000 0.242945 -0.970040
vn -0.966402 0.257034 0.000000
vn -0.966402 0.257034 0.000000
vn -0.966402 0.257034 0.000000
vn -0.966402 0.257034 0.000000
vn 0.000000 0.242945 -0.970040
vn 0.000000 0.242945 -0.970040
vn 0.000000 0.242945 -0.970040
vn 0.000000 0.242945 -0.970040
vn 0.000000 0.193775 -0.981046
vn -0.138365 0.191911 -0.971610
vn -0.138365 0.191911 -0.971610
vn 0.000000 0.193775 -0.981046
vn 0.138365 0.191911 -0.971610
vn 0.138365 0.191911 -0.971610
vn -0.000000 0.242945 -0.970040
vn -0.000000 0.242945 -0.970040
vn -0.000000 0.242945 -0.970040
vn -0.000000 0.242945 -0.970040
vn 0.966402 0.257034 0.000000
vn 0.966402 0.257034 0.000000
vn 0.966402 0.257034 0.000000
vn 0.966402 0.257034 0.000000
vn -0.000000 0.242945 0.970040
vn -0.000000 0.242945 0.970040
vn -0.000000 0.242945 0.970040
vn -0.000000 0.242945 0.970040
vn 0.000000 0.193775 0.981046
vn 0.000000 0.193775 0.981046
vn 0.138365 0.191911 0.971610
vn 0.138365 0.191911 0.971610
vn -0.138365 0.191911 0.971610
vn -0.138365 0.191911 0.971610
vn 0.000000 0.242945 0.970040
vn 0.000000 0.242945 0.970040
vn 0.000000 0.242945 0.970040
vn 0.000000 0.242945 0.970040
vn -0.998791 0.049165 0.000000
vn -0.998791 0.049165 0.000000
vn -0.998791 0.049165 0.000000
vn -0.998791 0.049165 0.000000
vn 0.998791 0.049165 0.000000
vn 0.998791 0.049165 0.000000
vn 0.998791 0.049165 0.000000
vn 0.998791 0.049165 0.000000
vn 0.000000 1.000000 -0.000001
vn 0.000000 1.000000 -0.000001
vn 0.000000 1.000000 -0.000001
vn 0.000000 1.000000 -0.000001
vn 0.983162 -0.016405 -0.181998
vn 0.983162 -0.016405 -0.181998
vn 0.983162 -0.016405 -0.181998
vn 0.983162 -0.016405 -0.181998
vn 0.000000 1.000000 -0.000001
vn 0.000000 1.000000 -0.000001
vn 0.000000 1.000000 -0.000001
vn 0.000000 1.000000 -0.000001
vn -0.983162 -0.016405 -0.181998
vn -0.983162 -0.016405 -0.181998
vn -0.983162 -0.016405 -0.181998
vn -0.983162 -0.016405 -0.181998
vn 0.000000 1.000000 -0.000000
vn 0.000000 1.000000 -0.000000
vn 0.000000 1.000000 -0.000000
vn 0.000000 1.000000 -0.000000
vn -0.983162 -0.016405 0.181998
vn -0.983162 -0.016405 0.181998
vn -0.983162 -0.016405 0.181998
vn -0.983162 -0.016405 0.181998
vn 0.983162 -0.016405 0.181998
vn 0.983162 -0.016405 0.181998
vn 0.983162 -0.016405 0.181998
vn 0.983162 -0.016405 0.181998
vn 0.000000 1.000000 -0.000000
vn 0.000000 1.000000 -0.000000
vn 0.000000 1.000000 -0.000000
vn 0.000000 1.000000 -0.000000
vn 0.000000 0.000000 1.000000
vn 0.000000 0.000000 1.000000
vn 0.000000 0.000000 1.000000
vn 0.000000 0.000000 1.000000
vn 0.000000 0.000000 -1.000000
vn 0.000000 0.000000 -1.000000
vn 0.000000 0.000000 -1.000000
vn 0.000000 0.000000 -1.000000
vn -1.000000 0.000000 0.000000
vn -1.000000 0.000000 0.000000
vn -1.000000 0.000000 0.000000
vn -1.000000 0.000000 0.000000
vn 1.000000 0.000000 0.000000
vn 1.000000 0.000000 0.000000
vn 1.000000 0.000000 0.000000
vn 1.000000 0.000000 0.000000
vn 0.000000 0.000000 1.000000
vn 0.000000 0.000000 1.000000
vn 0.000000 0.000000 1.000000
vn 0.000000 0.000000 1.000000
vn 0.000000 0.000000 -1.000000
vn 0.000000 0.000000 -1.000000
vn 0.000000 0.000000 -1.000000
vn 0.000000 0.000000 -1.000000
vn 0.000000 0.000000 1.000000
vn 0.000000 0.000000 1.000000
vn 0.000000 0.000000 1.000000
vn 0.000000 0.000000 1.000000
vn 0.000000 0.000000 -1.000000
vn 0.000000 0.000000 -1.000000
vn 0.000000 0.000000 -1.000000
vn 0.000000 0.000000 -1.000000
vn 0.000000 0.000000 1.000000
vn 0.000000 0.000000 1.000000
vn 0.000000 0.000000 1.000000
vn 0.000000 0.000000 1.000000
vn 0.000000 0.000000 -1.000000
vn 0.000000 0.000000 -1.000000
vn 0.000000 0.000000 -1.000000
vn 0.000000 0.000000 -1.000000
s off
g plot_beton decor1 group1
usemtl lambert2SG
f 15/2/1 28/3/2 19/4/3 1/71/4
f 3/5/5 16/75/6 17/7/7 5/84/8
f 18/11/9 7/12/10 20/9/11 21/10/12
f 2/69/13 8/14/14 24/15/15 25/79/16
f 1/1/17 19/81/18 20/68/19 7/53/20
f 11/18/21 26/19/22 27/20/23 9/17/24
s 1
f 30/86/25 29/88/26 31/90/27 32/61/28
s off
f 14/28/29 10/27/30 22/25/31 23/26/32
f 2/13/33 25/16/34 26/19/35 11/18/36
f 13/76/37 12/30/38 4/80/39 6/83/40
f 8/51/41 14/28/42 23/26/43 24/67/44
f 9/17/45 27/20/46 28/3/47 15/2/48
s 1
f 34/85/49 33/57/50 29/88/26 30/86/25
s off
f 10/27/51 18/11/52 21/10/53 22/25/54
f 20/68/55 19/81/56 3/5/57 5/84/58
f 5/8/59 17/74/60 21/10/61 20/9/62
s 2
f 36/35/63 35/66/64 34/33/65 30/21/66
f 37/37/67 36/35/63 30/21/66 32/89/68
s off
f 24/67/69 23/26/70 13/29/71 6/32/72
f 25/79/73 24/15/74 6/83/75 4/80/76
f 12/78/77 26/19/78 25/16/79 4/31/80
s 3
f 29/22/81 38/38/82 39/58/83 31/23/84
f 33/87/85 40/56/86 38/38/82 29/22/81
s off
f 19/4/87 28/3/88 16/6/89 3/82/90
f 12/30/91 13/76/92 32/60/93 31/59/94
f 17/7/95 16/75/96 33/73/97 34/64/98
f 22/25/99 21/10/100 35/36/101 36/63/102
f 21/10/103 17/74/104 34/65/105 35/36/106
f 23/26/107 22/25/108 36/63/109 37/62/110
f 13/29/111 23/26/112 37/62/113 32/24/114
f 27/20/115 26/19/116 39/39/117 38/55/118
f 26/19/119 12/78/120 31/77/121 39/39/122
f 16/6/123 28/3/124 40/40/125 33/34/126
f 28/3/127 27/20/128 38/55/129 40/40/130
f 15/2/131 1/71/132 41/72/133 42/42/134
f 7/12/135 18/11/136 44/43/137 43/44/138
f 1/1/139 7/53/140 43/54/141 41/41/142
f 8/14/143 2/69/144 46/70/145 45/46/146
f 11/18/147 9/17/148 47/47/149 48/48/150
f 10/27/151 14/28/152 50/49/153 49/50/154
f 2/13/155 11/18/156 48/48/157 46/45/158
f 14/28/159 8/51/160 45/52/161 50/49/162
f 9/17/163 15/2/164 42/42/165 47/47/166
f 18/11/167 10/27/168 49/50/169 44/43/170
