# This file uses centimeters as units for non-parametric coordinates.

mtllib short_sign_2.mtl
g default
v -0.450000 0.000000 -0.030000
v -0.480000 0.000000 -0.000000
v -0.450000 0.000000 0.030000
v -0.420000 0.000000 0.000000
v -0.450000 1.924740 -0.030000
v -0.480000 1.924740 -0.000000
v -0.450000 1.924740 0.030000
v -0.420000 1.924740 0.000000
v -0.550000 0.840006 0.050000
v -0.490006 0.900000 0.050000
v -0.550000 0.840006 -0.050000
v -0.490006 0.900000 -0.050000
v 0.490006 0.900000 0.050000
v 0.550000 0.840006 0.050000
v 0.550000 0.840006 -0.050000
v 0.490006 0.900000 -0.050000
v -0.490006 0.600000 0.050000
v -0.550000 0.659994 0.050000
v -0.550000 0.659994 -0.050000
v -0.490006 0.600000 -0.050000
v 0.550000 0.659994 0.050000
v 0.490006 0.600000 0.050000
v 0.490006 0.600000 -0.050000
v 0.550000 0.659994 -0.050000
v -0.473437 0.860000 -0.050000
v -0.510000 0.823437 -0.050000
v 0.473437 0.860000 -0.050000
v 0.510000 0.823437 -0.050000
v 0.510000 0.676562 -0.050000
v 0.473437 0.640000 -0.050000
v -0.473437 0.640000 -0.050000
v -0.510000 0.676562 -0.050000
v -0.473437 0.640000 0.050000
v -0.510000 0.676562 0.050000
v 0.473437 0.640000 0.050000
v 0.510000 0.676562 0.050000
v 0.510000 0.823437 0.050000
v 0.473437 0.860000 0.050000
v -0.473437 0.860000 0.050000
v -0.510000 0.823437 0.050000
v 0.450000 0.000000 -0.030000
v 0.420000 0.000000 -0.000000
v 0.450000 0.000000 0.030000
v 0.480000 0.000000 0.000000
v 0.450000 1.924740 -0.030000
v 0.420000 1.924740 -0.000000
v 0.450000 1.924740 0.030000
v 0.480000 1.924740 0.000000
v -0.550000 1.840006 0.050000
v -0.490006 1.900000 0.050000
v -0.550000 1.840006 -0.050000
v -0.490006 1.900000 -0.050000
v 0.490006 1.900000 0.050000
v 0.550000 1.840006 0.050000
v 0.550000 1.840006 -0.050000
v 0.490006 1.900000 -0.050000
v -0.490006 1.600000 0.050000
v -0.550000 1.659994 0.050000
v -0.550000 1.659994 -0.050000
v -0.490006 1.600000 -0.050000
v 0.550000 1.659994 0.050000
v 0.490006 1.600000 0.050000
v 0.490006 1.600000 -0.050000
v 0.550000 1.659994 -0.050000
v -0.473437 1.860000 -0.050000
v -0.510000 1.823437 -0.050000
v 0.473437 1.860000 -0.050000
v 0.510000 1.823437 -0.050000
v 0.510000 1.676563 -0.050000
v 0.473437 1.640000 -0.050000
v -0.473437 1.640000 -0.050000
v -0.510000 1.676563 -0.050000
v -0.473437 1.640000 0.050000
v -0.510000 1.676563 0.050000
v 0.473437 1.640000 0.050000
v 0.510000 1.676563 0.050000
v 0.510000 1.823437 0.050000
v 0.473437 1.860000 0.050000
v -0.473437 1.860000 0.050000
v -0.510000 1.823437 0.050000
v -0.550000 1.340006 0.050000
v -0.490006 1.400000 0.050000
v -0.550000 1.340006 -0.050000
v -0.490006 1.400000 -0.050000
v 0.490006 1.400000 0.050000
v 0.550000 1.340006 0.050000
v 0.550000 1.340006 -0.050000
v 0.490006 1.400000 -0.050000
v -0.490006 1.100000 0.050000
v -0.550000 1.159994 0.050000
v -0.550000 1.159994 -0.050000
v -0.490006 1.100000 -0.050000
v 0.550000 1.159994 0.050000
v 0.490006 1.100000 0.050000
v 0.490006 1.100000 -0.050000
v 0.550000 1.159994 -0.050000
v -0.473437 1.360000 -0.050000
v -0.510000 1.323437 -0.050000
v 0.473437 1.360000 -0.050000
v 0.510000 1.323437 -0.050000
v 0.510000 1.176563 -0.050000
v 0.473437 1.140000 -0.050000
v -0.473437 1.140000 -0.050000
v -0.510000 1.176563 -0.050000
v -0.473437 1.140000 0.050000
v -0.510000 1.176563 0.050000
v 0.473437 1.140000 0.050000
v 0.510000 1.176563 0.050000
v 0.510000 1.323437 0.050000
v 0.473437 1.360000 0.050000
v -0.473437 1.360000 0.050000
v -0.510000 1.323437 0.050000
vt 0.067507 0.435225
vt 0.072651 0.435225
vt 0.072651 0.357422
vt 0.067507 0.357422
vt 0.070936 0.435225
vt 0.070936 0.357422
vt 0.069222 0.435225
vt 0.069222 0.357422
vt 0.074367 0.435225
vt 0.070936 0.355707
vt 0.072651 0.355707
vt 0.074367 0.357422
vt 0.032901 0.974639
vt 0.049267 0.953173
vt 0.312862 0.950741
vt 0.330087 0.974605
vt 0.049684 0.870195
vt 0.032565 0.846239
vt 0.329056 0.846301
vt 0.312719 0.867826
vt 0.324317 0.885518
vt 0.345895 0.876615
vt 0.344335 0.941410
vt 0.325723 0.934834
vt 0.018096 0.879244
vt 0.036640 0.886032
vt 0.037720 0.935394
vt 0.016037 0.944131
vt 0.156951 0.150036
vt 0.156951 0.117740
vt 0.162318 0.123107
vt 0.162318 0.144669
vt 0.015251 0.964979
vt 0.006901 0.942628
vt 0.325018 0.986294
vt 0.037916 0.986324
vt 0.354375 0.940711
vt 0.348050 0.964251
vt 0.355045 0.878012
vt 0.346691 0.855814
vt 0.037645 0.834551
vt 0.324078 0.834615
vt 0.008063 0.879786
vt 0.014589 0.856330
vt 0.054669 0.881109
vt 0.045394 0.891185
vt 0.307853 0.879008
vt 0.315924 0.889618
vt 0.316902 0.929780
vt 0.307750 0.939848
vt 0.054213 0.942001
vt 0.046160 0.931348
vt 0.012583 0.123107
vt 0.017950 0.117740
vt 0.017950 0.150036
vt 0.012583 0.144669
vt 0.074367 0.435225
vt 0.072651 0.435225
vt 0.072651 0.357422
vt 0.074367 0.357422
vt 0.070936 0.435225
vt 0.070936 0.357422
vt 0.069222 0.435225
vt 0.069222 0.357422
vt 0.067507 0.435225
vt 0.067507 0.357422
vt 0.070936 0.355707
vt 0.072651 0.355707
vt 0.032901 0.974638
vt 0.049267 0.953172
vt 0.312861 0.950741
vt 0.330087 0.974606
vt 0.049684 0.870195
vt 0.032565 0.846238
vt 0.329056 0.846302
vt 0.312719 0.867826
vt 0.324317 0.885519
vt 0.345895 0.876615
vt 0.344334 0.941410
vt 0.325723 0.934835
vt 0.018096 0.879243
vt 0.036640 0.886032
vt 0.037720 0.935394
vt 0.016037 0.944130
vt 0.157134 0.220019
vt 0.157134 0.187723
vt 0.162502 0.193090
vt 0.162502 0.214651
vt 0.015251 0.964978
vt 0.006901 0.942628
vt 0.325018 0.986295
vt 0.037916 0.986323
vt 0.354374 0.940711
vt 0.348049 0.964251
vt 0.355045 0.878012
vt 0.346691 0.855815
vt 0.037646 0.834550
vt 0.324078 0.834616
vt 0.008063 0.879786
vt 0.014589 0.856329
vt 0.054670 0.881109
vt 0.045394 0.891184
vt 0.307853 0.879008
vt 0.315924 0.889618
vt 0.316902 0.929780
vt 0.307749 0.939848
vt 0.054213 0.942000
vt 0.046160 0.931348
vt 0.012766 0.193090
vt 0.018133 0.187723
vt 0.018133 0.220019
vt 0.012766 0.214652
vt 0.032902 0.974640
vt 0.049267 0.953174
vt 0.312862 0.950740
vt 0.330088 0.974604
vt 0.049684 0.870197
vt 0.032564 0.846240
vt 0.329056 0.846300
vt 0.312719 0.867825
vt 0.324316 0.885517
vt 0.345894 0.876613
vt 0.344335 0.941408
vt 0.325723 0.934833
vt 0.018096 0.879246
vt 0.036640 0.886033
vt 0.037720 0.935396
vt 0.016037 0.944133
vt 0.157001 0.185013
vt 0.157001 0.152717
vt 0.162369 0.158084
vt 0.162369 0.179645
vt 0.015252 0.964981
vt 0.006902 0.942630
vt 0.325019 0.986293
vt 0.037916 0.986325
vt 0.354375 0.940709
vt 0.348050 0.964249
vt 0.355045 0.878011
vt 0.346691 0.855813
vt 0.037645 0.834552
vt 0.324078 0.834614
vt 0.008063 0.879788
vt 0.014589 0.856331
vt 0.054669 0.881110
vt 0.045394 0.891186
vt 0.307853 0.879007
vt 0.315924 0.889617
vt 0.316902 0.929779
vt 0.307750 0.939847
vt 0.054214 0.942002
vt 0.046160 0.931349
vt 0.012633 0.158084
vt 0.018000 0.152717
vt 0.018000 0.185013
vt 0.012633 0.179645
vn -0.707107 0.000000 -0.707107
vn -0.707107 0.000000 -0.707107
vn -0.707107 0.000000 -0.707107
vn -0.707107 0.000000 -0.707107
vn -0.707107 0.000000 0.707107
vn -0.707107 0.000000 0.707107
vn -0.707107 0.000000 0.707107
vn -0.707107 0.000000 0.707107
vn 0.707107 0.000000 0.707107
vn 0.707107 0.000000 0.707107
vn 0.707107 0.000000 0.707107
vn 0.707107 0.000000 0.707107
vn 0.707107 0.000000 -0.707107
vn 0.707107 0.000000 -0.707107
vn 0.707107 0.000000 -0.707107
vn 0.707107 0.000000 -0.707107
vn 0.000000 1.000000 0.000000
vn 0.000000 1.000000 0.000000
vn 0.000000 1.000000 0.000000
vn 0.000000 1.000000 0.000000
vn 0.000000 1.000000 0.000000
vn 0.000000 1.000000 0.000000
vn 0.000000 1.000000 0.000000
vn 0.000000 1.000000 0.000000
vn 0.000000 -1.000000 0.000000
vn 0.000000 -1.000000 0.000000
vn 0.000000 -1.000000 0.000000
vn 0.000000 -1.000000 0.000000
vn 1.000000 0.000000 0.000000
vn 1.000000 0.000000 0.000000
vn 1.000000 0.000000 0.000000
vn 1.000000 0.000000 0.000000
vn -1.000000 0.000000 0.000000
vn -1.000000 0.000000 0.000000
vn -1.000000 0.000000 0.000000
vn -1.000000 0.000000 0.000000
vn 0.000000 0.000000 1.000000
vn 0.000000 0.000000 1.000000
vn 0.000000 0.000000 1.000000
vn 0.000000 0.000000 1.000000
vn -0.707107 0.707107 0.000000
vn -0.707107 0.707107 0.000000
vn -0.707107 0.707107 0.000000
vn -0.707107 0.707107 0.000000
vn 0.707107 0.707107 0.000000
vn 0.707107 0.707107 0.000000
vn 0.707107 0.707107 0.000000
vn 0.707107 0.707107 0.000000
vn -0.707107 -0.707107 0.000000
vn -0.707107 -0.707107 0.000000
vn -0.707107 -0.707107 0.000000
vn -0.707107 -0.707107 0.000000
vn 0.707107 -0.707107 0.000000
vn 0.707107 -0.707107 0.000000
vn 0.707107 -0.707107 0.000000
vn 0.707107 -0.707107 0.000000
vn -0.000000 0.000000 -1.000000
vn 0.000000 0.000000 -1.000000
vn 0.000000 0.000000 -1.000000
vn -0.000000 0.000000 -1.000000
vn -0.000000 0.000000 -1.000000
vn -0.000000 0.000000 -1.000000
vn 0.000000 0.000000 -1.000000
vn 0.000000 0.000000 -1.000000
vn 0.000000 0.000000 -1.000000
vn 0.000000 0.000000 -1.000000
vn -0.000000 0.000000 -1.000000
vn -0.000000 0.000000 -1.000000
vn 0.000000 0.000000 -1.000000
vn 0.000000 0.000000 -1.000000
vn -0.000000 0.000000 -1.000000
vn -0.000000 0.000000 -1.000000
vn -0.000000 0.000000 1.000000
vn 0.000000 0.000000 1.000000
vn -0.000000 0.000000 1.000000
vn -0.000000 0.000000 1.000000
vn -0.000000 0.000000 1.000000
vn 0.000000 0.000000 1.000000
vn 0.000000 0.000000 1.000000
vn -0.000000 0.000000 1.000000
vn 0.000000 0.000000 1.000000
vn -0.000000 0.000000 1.000000
vn -0.000000 0.000000 1.000000
vn -0.000000 0.000000 1.000000
vn -0.707107 0.000000 -0.707107
vn -0.707107 0.000000 -0.707107
vn -0.707107 0.000000 -0.707107
vn -0.707107 0.000000 -0.707107
vn -0.707107 0.000000 0.707107
vn -0.707107 0.000000 0.707107
vn -0.707107 0.000000 0.707107
vn -0.707107 0.000000 0.707107
vn 0.707107 0.000000 0.707107
vn 0.707107 0.000000 0.707107
vn 0.707107 0.000000 0.707107
vn 0.707107 0.000000 0.707107
vn 0.707107 0.000000 -0.707107
vn 0.707107 0.000000 -0.707107
vn 0.707107 0.000000 -0.707107
vn 0.707107 0.000000 -0.707107
vn 0.000000 1.000000 0.000000
vn 0.000000 1.000000 0.000000
vn 0.000000 1.000000 0.000000
vn 0.000000 1.000000 0.000000
vn 0.000000 1.000000 0.000000
vn 0.000000 1.000000 0.000000
vn 0.000000 1.000000 0.000000
vn 0.000000 1.000000 0.000000
vn 0.000000 -1.000000 0.000000
vn 0.000000 -1.000000 0.000000
vn 0.000000 -1.000000 0.000000
vn 0.000000 -1.000000 0.000000
vn 1.000000 0.000000 0.000000
vn 1.000000 0.000000 0.000000
vn 1.000000 0.000000 0.000000
vn 1.000000 0.000000 0.000000
vn -1.000000 0.000000 0.000000
vn -1.000000 0.000000 0.000000
vn -1.000000 0.000000 0.000000
vn -1.000000 0.000000 0.000000
vn -0.000000 0.000000 1.000000
vn -0.000000 0.000000 1.000000
vn -0.000000 0.000000 1.000000
vn -0.000000 0.000000 1.000000
vn -0.707107 0.707107 0.000000
vn -0.707107 0.707107 0.000000
vn -0.707107 0.707107 0.000000
vn -0.707107 0.707107 0.000000
vn 0.707107 0.707107 0.000000
vn 0.707107 0.707107 0.000000
vn 0.707107 0.707107 0.000000
vn 0.707107 0.707107 0.000000
vn -0.707107 -0.707107 0.000000
vn -0.707107 -0.707107 0.000000
vn -0.707107 -0.707107 0.000000
vn -0.707107 -0.707107 0.000000
vn 0.707107 -0.707107 0.000000
vn 0.707107 -0.707107 0.000000
vn 0.707107 -0.707107 0.000000
vn 0.707107 -0.707107 0.000000
vn 0.000000 0.000000 -1.000000
vn 0.000000 0.000000 -1.000000
vn 0.000000 0.000000 -1.000000
vn 0.000000 0.000000 -1.000000
vn 0.000000 0.000000 -1.000000
vn 0.000000 0.000000 -1.000000
vn -0.000000 0.000000 -1.000000
vn -0.000000 0.000000 -1.000000
vn -0.000000 0.000000 -1.000000
vn -0.000000 0.000000 -1.000000
vn -0.000000 0.000000 -1.000000
vn -0.000000 0.000000 -1.000000
vn 0.000000 0.000000 -1.000000
vn 0.000000 0.000000 -1.000000
vn 0.000000 0.000000 -1.000000
vn 0.000000 0.000000 -1.000000
vn 0.000000 0.000000 1.000000
vn 0.000000 0.000000 1.000000
vn 0.000000 0.000000 1.000000
vn 0.000000 0.000000 1.000000
vn 0.000000 0.000000 1.000000
vn -0.000000 0.000000 1.000000
vn -0.000000 0.000000 1.000000
vn -0.000000 0.000000 1.000000
vn 0.000000 0.000000 1.000000
vn 0.000000 0.000000 1.000000
vn 0.000000 0.000000 1.000000
vn 0.000000 0.000000 1.000000
vn 0.000000 1.000000 0.000000
vn 0.000000 1.000000 0.000000
vn 0.000000 1.000000 0.000000
vn 0.000000 1.000000 0.000000
vn 0.000000 -1.000000 0.000000
vn 0.000000 -1.000000 0.000000
vn 0.000000 -1.000000 0.000000
vn 0.000000 -1.000000 0.000000
vn 1.000000 0.000000 0.000000
vn 1.000000 0.000000 0.000000
vn 1.000000 0.000000 0.000000
vn 1.000000 0.000000 0.000000
vn -1.000000 0.000000 0.000000
vn -1.000000 0.000000 0.000000
vn -1.000000 0.000000 0.000000
vn -1.000000 0.000000 0.000000
vn -0.000000 0.000000 1.000000
vn -0.000000 0.000000 1.000000
vn -0.000000 0.000000 1.000000
vn -0.000000 0.000000 1.000000
vn -0.707107 0.707107 0.000000
vn -0.707107 0.707107 0.000000
vn -0.707107 0.707107 0.000000
vn -0.707107 0.707107 0.000000
vn 0.707107 0.707107 0.000000
vn 0.707107 0.707107 0.000000
vn 0.707107 0.707107 0.000000
vn 0.707107 0.707107 0.000000
vn -0.707107 -0.707107 0.000000
vn -0.707107 -0.707107 0.000000
vn -0.707107 -0.707107 0.000000
vn -0.707107 -0.707107 0.000000
vn 0.707107 -0.707107 0.000000
vn 0.707107 -0.707107 0.000000
vn 0.707107 -0.707107 0.000000
vn 0.707107 -0.707107 0.000000
vn 0.000000 0.000000 -1.000000
vn 0.000000 0.000000 -1.000000
vn 0.000000 0.000000 -1.000000
vn 0.000000 0.000000 -1.000000
vn 0.000000 0.000000 -1.000000
vn 0.000000 0.000000 -1.000000
vn -0.000000 0.000000 -1.000000
vn -0.000000 0.000000 -1.000000
vn -0.000000 0.000000 -1.000000
vn -0.000000 0.000000 -1.000000
vn -0.000000 0.000000 -1.000000
vn -0.000000 0.000000 -1.000000
vn 0.000000 0.000000 -1.000000
vn 0.000000 0.000000 -1.000000
vn 0.000000 0.000000 -1.000000
vn 0.000000 0.000000 -1.000000
vn 0.000000 0.000000 1.000000
vn 0.000000 0.000000 1.000000
vn 0.000000 0.000000 1.000000
vn 0.000000 0.000000 1.000000
vn 0.000000 0.000000 1.000000
vn -0.000000 0.000000 1.000000
vn -0.000000 0.000000 1.000000
vn -0.000000 0.000000 1.000000
vn 0.000000 0.000000 1.000000
vn 0.000000 0.000000 1.000000
vn 0.000000 0.000000 1.000000
vn 0.000000 0.000000 1.000000
s off
g Mini_Panneau_1x2 decor1 group1
usemtl lambert2SG
f 1/9/1 2/2/2 6/3/3 5/12/4
f 2/2/5 3/5/6 7/6/7 6/3/8
f 3/5/9 4/7/10 8/8/11 7/6/12
f 4/7/13 1/1/14 5/4/15 8/8/16
f 6/3/17 7/6/18 8/10/19 5/11/20
f 12/13/21 10/14/22 13/15/23 16/16/24
f 17/17/25 20/18/26 23/19/27 22/20/28
f 21/21/29 24/22/30 15/23/31 14/24/32
f 19/25/33 18/26/34 9/27/35 11/28/36
s 1
f 38/29/37 35/30/38 36/31/39 37/32/40
s off
f 9/27/41 10/14/42 12/13/43 11/28/44
f 13/15/45 14/24/46 15/23/47 16/16/48
f 17/17/49 18/26/50 19/25/51 20/18/52
f 21/21/53 22/20/54 23/19/55 24/22/56
s 2
f 11/28/57 12/13/58 25/33/59 26/34/60
f 12/13/58 16/16/61 27/35/62 25/36/59
f 16/16/61 15/23/63 28/37/64 27/38/62
f 15/23/63 24/22/65 29/39/66 28/37/64
f 24/22/65 23/19/67 30/40/68 29/39/66
f 23/19/67 20/18/69 31/41/70 30/42/68
f 20/18/69 19/25/71 32/43/72 31/44/70
f 19/25/71 11/28/57 26/34/60 32/43/72
s 1
f 18/26/73 17/17/74 33/45/75 34/46/76
f 17/17/74 22/20/77 35/47/38 33/45/75
f 22/20/77 21/21/78 36/48/39 35/47/38
f 21/21/78 14/24/79 37/49/40 36/48/39
f 14/24/79 13/15/80 38/50/37 37/49/40
f 13/15/80 10/14/81 39/51/82 38/50/37
f 10/14/81 9/27/83 40/52/84 39/51/82
f 9/27/83 18/26/73 34/46/76 40/52/84
f 34/53/76 33/54/75 39/55/82 40/56/84
f 39/55/82 33/54/75 35/30/38 38/29/37
s off
f 41/57/85 42/58/86 46/59/87 45/60/88
f 42/58/89 43/61/90 47/62/91 46/59/92
f 43/61/93 44/63/94 48/64/95 47/62/96
f 44/63/97 41/65/98 45/66/99 48/64/100
f 46/59/101 47/62/102 48/67/103 45/68/104
f 52/69/105 50/70/106 53/71/107 56/72/108
f 57/73/109 60/74/110 63/75/111 62/76/112
f 61/77/113 64/78/114 55/79/115 54/80/116
f 59/81/117 58/82/118 49/83/119 51/84/120
s 4
f 78/85/121 75/86/122 76/87/123 77/88/124
s off
f 49/83/125 50/70/126 52/69/127 51/84/128
f 53/71/129 54/80/130 55/79/131 56/72/132
f 57/73/133 58/82/134 59/81/135 60/74/136
f 61/77/137 62/76/138 63/75/139 64/78/140
s 5
f 51/84/141 52/69/142 65/89/143 66/90/144
f 52/69/142 56/72/145 67/91/146 65/92/143
f 56/72/145 55/79/147 68/93/148 67/94/146
f 55/79/147 64/78/149 69/95/150 68/93/148
f 64/78/149 63/75/151 70/96/152 69/95/150
f 63/75/151 60/74/153 71/97/154 70/98/152
f 60/74/153 59/81/155 72/99/156 71/100/154
f 59/81/155 51/84/141 66/90/144 72/99/156
s 4
f 58/82/157 57/73/158 73/101/159 74/102/160
f 57/73/158 62/76/161 75/103/122 73/101/159
f 62/76/161 61/77/162 76/104/123 75/103/122
f 61/77/162 54/80/163 77/105/124 76/104/123
f 54/80/163 53/71/164 78/106/121 77/105/124
f 53/71/164 50/70/165 79/107/166 78/106/121
f 50/70/165 49/83/167 80/108/168 79/107/166
f 49/83/167 58/82/157 74/102/160 80/108/168
f 74/109/160 73/110/159 79/111/166 80/112/168
f 79/111/166 73/110/159 75/86/122 78/85/121
s off
f 84/113/169 82/114/170 85/115/171 88/116/172
f 89/117/173 92/118/174 95/119/175 94/120/176
f 93/121/177 96/122/178 87/123/179 86/124/180
f 91/125/181 90/126/182 81/127/183 83/128/184
s 7
f 110/129/185 107/130/186 108/131/187 109/132/188
s off
f 81/127/189 82/114/190 84/113/191 83/128/192
f 85/115/193 86/124/194 87/123/195 88/116/196
f 89/117/197 90/126/198 91/125/199 92/118/200
f 93/121/201 94/120/202 95/119/203 96/122/204
s 8
f 83/128/205 84/113/206 97/133/207 98/134/208
f 84/113/206 88/116/209 99/135/210 97/136/207
f 88/116/209 87/123/211 100/137/212 99/138/210
f 87/123/211 96/122/213 101/139/214 100/137/212
f 96/122/213 95/119/215 102/140/216 101/139/214
f 95/119/215 92/118/217 103/141/218 102/142/216
f 92/118/217 91/125/219 104/143/220 103/144/218
f 91/125/219 83/128/205 98/134/208 104/143/220
s 7
f 90/126/221 89/117/222 105/145/223 106/146/224
f 89/117/222 94/120/225 107/147/186 105/145/223
f 94/120/225 93/121/226 108/148/187 107/147/186
f 93/121/226 86/124/227 109/149/188 108/148/187
f 86/124/227 85/115/228 110/150/185 109/149/188
f 85/115/228 82/114/229 111/151/230 110/150/185
f 82/114/229 81/127/231 112/152/232 111/151/230
f 81/127/231 90/126/221 106/146/224 112/152/232
f 106/153/224 105/154/223 111/155/230 112/156/232
f 111/155/230 105/154/223 107/130/186 110/129/185
