# This file uses centimeters as units for non-parametric coordinates.

mtllib short_sign_1.mtl
g default
v -0.550000 0.840006 0.050000
v -0.490006 0.900000 0.050000
v -0.550000 0.840006 -0.050000
v -0.490006 0.900000 -0.050000
v 0.490006 0.900000 0.050000
v 0.550000 0.840006 0.050000
v 0.550000 0.840006 -0.050000
v 0.490006 0.900000 -0.050000
v -0.490006 0.600000 0.050000
v -0.550000 0.659994 0.050000
v -0.550000 0.659994 -0.050000
v -0.490006 0.600000 -0.050000
v 0.550000 0.659994 0.050000
v 0.490006 0.600000 0.050000
v 0.490006 0.600000 -0.050000
v 0.550000 0.659994 -0.050000
v -0.473437 0.860000 -0.050000
v -0.510000 0.823437 -0.050000
v 0.473437 0.860000 -0.050000
v 0.510000 0.823437 -0.050000
v 0.510000 0.676562 -0.050000
v 0.473437 0.640000 -0.050000
v -0.473437 0.640000 -0.050000
v -0.510000 0.676562 -0.050000
v -0.473437 0.640000 0.050000
v -0.510000 0.676562 0.050000
v 0.473437 0.640000 0.050000
v 0.510000 0.676562 0.050000
v 0.510000 0.823437 0.050000
v 0.473437 0.860000 0.050000
v -0.473437 0.860000 0.050000
v -0.510000 0.823437 0.050000
v -0.450000 0.000000 -0.030000
v -0.480000 0.000000 -0.000000
v -0.450000 0.000000 0.030000
v -0.420000 0.000000 0.000000
v -0.450000 0.924740 -0.030000
v -0.480000 0.924740 -0.000000
v -0.450000 0.924740 0.030000
v -0.420000 0.924740 0.000000
v 0.450000 0.000000 -0.030000
v 0.420000 0.000000 -0.000000
v 0.450000 0.000000 0.030000
v 0.480000 0.000000 0.000000
v 0.450000 0.924740 -0.030000
v 0.420000 0.924740 -0.000000
v 0.450000 0.924740 0.030000
v 0.480000 0.924740 0.000000
vt 0.032901 0.974639
vt 0.049267 0.953173
vt 0.312862 0.950740
vt 0.330087 0.974605
vt 0.049684 0.870196
vt 0.032564 0.846239
vt 0.329056 0.846301
vt 0.312719 0.867826
vt 0.324316 0.885518
vt 0.345894 0.876615
vt 0.344334 0.941409
vt 0.325723 0.934834
vt 0.018096 0.879244
vt 0.036640 0.886032
vt 0.037720 0.935395
vt 0.016037 0.944131
vt 0.156951 0.150036
vt 0.156951 0.117740
vt 0.315924 0.889618
vt 0.316902 0.929780
vt 0.037916 0.986324
vt 0.006901 0.942629
vt 0.348050 0.964250
vt 0.354374 0.940711
vt 0.355045 0.878012
vt 0.324078 0.834615
vt 0.014589 0.856330
vt 0.008063 0.879787
vt 0.017950 0.117740
vt 0.012583 0.123107
vt 0.017950 0.150036
vt 0.046160 0.931349
vt 0.045394 0.891185
vt 0.012583 0.144669
vt 0.054213 0.942001
vt 0.307750 0.939848
vt 0.162318 0.144669
vt 0.162318 0.123107
vt 0.307853 0.879008
vt 0.054669 0.881110
vt 0.037645 0.834551
vt 0.346691 0.855814
vt 0.325018 0.986294
vt 0.015251 0.964980
vt 0.099943 0.432176
vt 0.096718 0.432176
vt 0.096718 0.361916
vt 0.099943 0.361916
vt 0.093495 0.432176
vt 0.093495 0.361916
vt 0.090273 0.432176
vt 0.090273 0.361916
vt 0.087049 0.432176
vt 0.087049 0.361916
vt 0.093495 0.358691
vt 0.096718 0.358691
vt 0.099943 0.432176
vt 0.096718 0.432176
vt 0.096718 0.361916
vt 0.099943 0.361916
vt 0.093495 0.432176
vt 0.093495 0.361916
vt 0.090273 0.432176
vt 0.090273 0.361916
vt 0.087049 0.432176
vt 0.087049 0.361916
vt 0.093495 0.358691
vt 0.096718 0.358691
vn 0.000000 1.000000 0.000000
vn 0.000000 1.000000 0.000000
vn 0.000000 1.000000 0.000000
vn 0.000000 1.000000 0.000000
vn 0.000000 -1.000000 0.000000
vn 0.000000 -1.000000 0.000000
vn 0.000000 -1.000000 0.000000
vn 0.000000 -1.000000 0.000000
vn 1.000000 0.000000 0.000000
vn 1.000000 0.000000 0.000000
vn 1.000000 0.000000 0.000000
vn 1.000000 0.000000 0.000000
vn -1.000000 0.000000 0.000000
vn -1.000000 0.000000 0.000000
vn -1.000000 0.000000 0.000000
vn -1.000000 0.000000 0.000000
vn 0.000000 0.000000 1.000000
vn 0.000000 0.000000 1.000000
vn 0.000000 0.000000 1.000000
vn 0.000000 0.000000 1.000000
vn -0.707107 0.707107 0.000000
vn -0.707107 0.707107 0.000000
vn -0.707107 0.707107 0.000000
vn -0.707107 0.707107 0.000000
vn 0.707107 0.707107 0.000000
vn 0.707107 0.707107 0.000000
vn 0.707107 0.707107 0.000000
vn 0.707107 0.707107 0.000000
vn -0.707107 -0.707107 0.000000
vn -0.707107 -0.707107 0.000000
vn -0.707107 -0.707107 0.000000
vn -0.707107 -0.707107 0.000000
vn 0.707107 -0.707107 0.000000
vn 0.707107 -0.707107 0.000000
vn 0.707107 -0.707107 0.000000
vn 0.707107 -0.707107 0.000000
vn -0.000000 0.000000 -1.000000
vn 0.000000 0.000000 -1.000000
vn 0.000000 0.000000 -1.000000
vn -0.000000 0.000000 -1.000000
vn -0.000000 0.000000 -1.000000
vn -0.000000 0.000000 -1.000000
vn 0.000000 0.000000 -1.000000
vn 0.000000 0.000000 -1.000000
vn 0.000000 0.000000 -1.000000
vn 0.000000 0.000000 -1.000000
vn -0.000000 0.000000 -1.000000
vn -0.000000 0.000000 -1.000000
vn 0.000000 0.000000 -1.000000
vn 0.000000 0.000000 -1.000000
vn -0.000000 0.000000 -1.000000
vn -0.000000 0.000000 -1.000000
vn -0.000000 0.000000 1.000000
vn 0.000000 0.000000 1.000000
vn -0.000000 0.000000 1.000000
vn -0.000000 0.000000 1.000000
vn -0.000000 0.000000 1.000000
vn 0.000000 0.000000 1.000000
vn 0.000000 0.000000 1.000000
vn -0.000000 0.000000 1.000000
vn 0.000000 0.000000 1.000000
vn -0.000000 0.000000 1.000000
vn -0.000000 0.000000 1.000000
vn -0.000000 0.000000 1.000000
vn -0.707107 0.000000 -0.707107
vn -0.707107 0.000000 -0.707107
vn -0.707107 0.000000 -0.707107
vn -0.707107 0.000000 -0.707107
vn -0.707107 0.000000 0.707107
vn -0.707107 0.000000 0.707107
vn -0.707107 0.000000 0.707107
vn -0.707107 0.000000 0.707107
vn 0.707107 0.000000 0.707107
vn 0.707107 0.000000 0.707107
vn 0.707107 0.000000 0.707107
vn 0.707107 0.000000 0.707107
vn 0.707107 0.000000 -0.707107
vn 0.707107 0.000000 -0.707107
vn 0.707107 0.000000 -0.707107
vn 0.707107 0.000000 -0.707107
vn 0.000000 1.000000 0.000000
vn 0.000000 1.000000 0.000000
vn 0.000000 1.000000 0.000000
vn 0.000000 1.000000 0.000000
vn -0.707107 0.000000 -0.707107
vn -0.707107 0.000000 -0.707107
vn -0.707107 0.000000 -0.707107
vn -0.707107 0.000000 -0.707107
vn -0.707107 0.000000 0.707107
vn -0.707107 0.000000 0.707107
vn -0.707107 0.000000 0.707107
vn -0.707107 0.000000 0.707107
vn 0.707107 0.000000 0.707107
vn 0.707107 0.000000 0.707107
vn 0.707107 0.000000 0.707107
vn 0.707107 0.000000 0.707107
vn 0.707107 0.000000 -0.707107
vn 0.707107 0.000000 -0.707107
vn 0.707107 0.000000 -0.707107
vn 0.707107 0.000000 -0.707107
vn 0.000000 1.000000 0.000000
vn 0.000000 1.000000 0.000000
vn 0.000000 1.000000 0.000000
vn 0.000000 1.000000 0.000000
s off
g Mini_Panneau_1x1 decor1 group1
usemtl lambert2SG
f 4/1/1 2/2/2 5/3/3 8/4/4
f 9/5/5 12/6/6 15/7/7 14/8/8
f 13/9/9 16/10/10 7/11/11 6/12/12
f 11/13/13 10/14/14 1/15/15 3/16/16
s 1
f 30/17/17 27/18/18 28/38/19 29/37/20
s off
f 1/15/21 2/2/22 4/1/23 3/16/24
f 5/3/25 6/12/26 7/11/27 8/4/28
f 9/5/29 10/14/30 11/13/31 12/6/32
f 13/9/33 14/8/34 15/7/35 16/10/36
s 2
f 3/16/37 4/1/38 17/44/39 18/22/40
f 4/1/38 8/4/41 19/43/42 17/21/39
f 8/4/41 7/11/43 20/24/44 19/23/42
f 7/11/43 16/10/45 21/25/46 20/24/44
f 16/10/45 15/7/47 22/42/48 21/25/46
f 15/7/47 12/6/49 23/41/50 22/26/48
f 12/6/49 11/13/51 24/28/52 23/27/50
f 11/13/51 3/16/37 18/22/40 24/28/52
s 1
f 10/14/53 9/5/54 25/40/55 26/33/56
f 9/5/54 14/8/57 27/39/18 25/40/55
f 14/8/57 13/9/58 28/19/19 27/39/18
f 13/9/58 6/12/59 29/20/20 28/19/19
f 6/12/59 5/3/60 30/36/17 29/20/20
f 5/3/60 2/2/61 31/35/62 30/36/17
f 2/2/61 1/15/63 32/32/64 31/35/62
f 1/15/63 10/14/53 26/33/56 32/32/64
f 26/30/56 25/29/55 31/31/62 32/34/64
f 31/31/62 25/29/55 27/18/18 30/17/17
s off
f 33/45/65 34/46/66 38/47/67 37/48/68
f 34/46/69 35/49/70 39/50/71 38/47/72
f 35/49/73 36/51/74 40/52/75 39/50/76
f 36/51/77 33/53/78 37/54/79 40/52/80
f 38/47/81 39/50/82 40/55/83 37/56/84
f 41/57/85 42/58/86 46/59/87 45/60/88
f 42/58/89 43/61/90 47/62/91 46/59/92
f 43/61/93 44/63/94 48/64/95 47/62/96
f 44/63/97 41/65/98 45/66/99 48/64/100
f 46/59/101 47/62/102 48/67/103 45/68/104
