# This file uses centimeters as units for non-parametric coordinates.

mtllib spot_light_L.mtl
g default
v -0.160632 2.146472 0.045500
v -0.186773 2.148179 0.019358
v -0.121915 2.149880 0.045500
v -0.095774 2.148179 0.019358
v -0.098122 2.477501 0.045500
v -0.120765 2.491047 0.019358
v -0.065315 2.457877 0.045500
v -0.042672 2.444331 0.019358
v 0.099892 2.693906 0.045500
v 0.087539 2.717222 0.019358
v 0.117788 2.660125 0.045500
v 0.130141 2.636809 0.019358
v 0.328283 2.786645 0.025521
v 0.328283 2.751916 0.059984
v 0.328283 2.689802 0.025521
v 0.328283 2.720006 0.059984
v 0.328283 2.786645 -0.025521
v 0.328283 2.751916 -0.059984
v 0.328283 2.720006 -0.059984
v 0.328283 2.689802 -0.025521
v 0.099892 2.693906 -0.045500
v 0.087539 2.717222 -0.019358
v 0.117788 2.660125 -0.045500
v 0.130141 2.636809 -0.019358
v -0.098122 2.477501 -0.045500
v -0.120765 2.491047 -0.019358
v -0.065315 2.457877 -0.045500
v -0.042672 2.444331 -0.019358
v -0.160632 2.146472 -0.045500
v -0.186773 2.148179 -0.019358
v -0.121915 2.149880 -0.045500
v -0.095774 2.148179 -0.019358
v 0.380492 2.745836 0.130783
v 0.380492 2.790738 0.055642
v 0.380492 2.697760 0.130783
v 0.380492 2.666107 0.090397
v 0.380492 2.666107 -0.090397
v 0.380492 2.697760 -0.130783
v 0.380492 2.745836 -0.130783
v 0.380492 2.790738 -0.055642
v 0.557811 2.745836 0.130783
v 0.557811 2.790738 0.055642
v 0.557811 2.697760 0.130783
v 0.557811 2.666107 0.090397
v 0.557811 2.666107 -0.090397
v 0.557811 2.697760 -0.130783
v 0.557811 2.745836 -0.130783
v 0.557811 2.790738 -0.055642
v 0.690412 2.734318 0.065186
v 0.659460 2.763322 0.027734
v 0.690412 2.692297 0.065186
v 0.659460 2.663293 0.027734
v 0.659460 2.663293 -0.027734
v 0.690412 2.692297 -0.065186
v 0.690412 2.734318 -0.065186
v 0.659460 2.763322 -0.027734
v -0.160632 0.713929 0.045500
v -0.186773 0.714441 0.019358
v -0.186773 0.714441 -0.019358
v -0.160632 0.713929 -0.045500
v -0.121915 0.714951 -0.045500
v -0.095774 0.714441 -0.019358
v -0.095774 0.714441 0.019358
v -0.121915 0.714951 0.045500
v -0.163028 -0.000000 0.115038
v -0.230075 -0.000000 0.047990
v -0.163028 0.643942 0.115038
v -0.230075 0.644454 0.047990
v -0.000000 -0.000000 0.047990
v -0.067047 -0.000000 0.115038
v -0.000000 0.644454 0.047990
v -0.067047 0.644964 0.115038
v -0.230075 0.644454 -0.047990
v -0.163028 0.643942 -0.115037
v -0.163028 -0.000000 -0.115037
v -0.230075 -0.000000 -0.047990
v -0.067047 0.644964 -0.115037
v 0.000000 0.644454 -0.047990
v 0.000000 -0.000000 -0.047990
v -0.067047 -0.000000 -0.115037
v -0.186773 1.546009 0.019358
v -0.160632 1.544804 0.045500
v -0.121915 1.547210 0.045500
v -0.095774 1.546009 0.019358
v -0.095774 1.546009 -0.019358
v -0.121915 1.547210 -0.045500
v -0.160632 1.544804 -0.045500
v -0.186773 1.546009 -0.019358
v -0.186773 1.666443 0.019358
v -0.160632 1.665138 0.045500
v -0.121915 1.667743 0.045500
v -0.095774 1.666443 0.019358
v -0.095774 1.666443 -0.019358
v -0.121915 1.667744 -0.045500
v -0.160632 1.665138 -0.045500
v -0.186773 1.666443 -0.019358
v -0.160632 1.229644 0.045500
v -0.186773 1.230586 0.019358
v -0.186773 1.230586 -0.019358
v -0.160632 1.229644 -0.045500
v -0.121915 1.231525 -0.045500
v -0.095774 1.230586 -0.019358
v -0.095774 1.230586 0.019358
v -0.121915 1.231525 0.045500
vt 0.490022 0.789923
vt 0.494565 0.794988
vt 0.478909 0.794722
vt 0.483578 0.789792
vt 0.661632 0.519704
vt 0.673434 0.519704
vt 0.673434 0.599857
vt 0.661632 0.599921
vt 0.685381 0.519704
vt 0.697184 0.519704
vt 0.697184 0.599921
vt 0.685381 0.599985
vt 0.783310 0.719435
vt 0.788294 0.719435
vt 0.788294 0.758719
vt 0.783310 0.758719
vt 0.792670 0.719435
vt 0.797485 0.719435
vt 0.797485 0.758719
vt 0.792670 0.758719
vt 0.788294 0.792627
vt 0.783310 0.792627
vt 0.797485 0.792627
vt 0.792670 0.792627
vt 0.498726 0.748146
vt 0.490900 0.748558
vt 0.543305 0.755940
vt 0.537714 0.753624
vt 0.483245 0.748832
vt 0.475575 0.748257
vt 0.811641 0.792627
vt 0.777799 0.792627
vt 0.471473 0.746383
vt 0.549873 0.755845
vt 0.802464 0.792627
vt 0.807252 0.792627
vt 0.811641 0.758719
vt 0.777799 0.758719
vt 0.802464 0.758719
vt 0.807252 0.758719
vt 0.811641 0.719435
vt 0.816474 0.719435
vt 0.802464 0.719435
vt 0.807252 0.719435
vt 0.649685 0.599921
vt 0.732880 0.599857
vt 0.732880 0.519704
vt 0.744683 0.519704
vt 0.720933 0.599985
vt 0.709131 0.599921
vt 0.709131 0.519704
vt 0.720933 0.519704
vt 0.505384 0.757342
vt 0.494429 0.755404
vt 0.529371 0.762305
vt 0.535563 0.763202
vt 0.557593 0.763253
vt 0.462921 0.756553
vt 0.468683 0.757292
vt 0.479703 0.755586
vt 0.504180 0.779531
vt 0.493631 0.777443
vt 0.528780 0.785501
vt 0.535257 0.785205
vt 0.558061 0.785044
vt 0.463840 0.781546
vt 0.469601 0.779120
vt 0.480189 0.777265
vt 0.538198 0.802614
vt 0.543315 0.797519
vt 0.550148 0.797566
vt 0.476932 0.799397
vt 0.658068 0.610165
vt 0.667536 0.610633
vt 0.743380 0.610689
vt 0.732620 0.612139
vt 0.719614 0.613974
vt 0.705567 0.614686
vt 0.691303 0.613926
vt 0.678514 0.612244
vt 0.905413 0.846758
vt 0.905414 0.851748
vt 0.905413 0.841269
vt 0.905412 0.835593
vt 0.905411 0.830135
vt 0.905411 0.825130
vt 0.905410 0.819621
vt 0.905414 0.857430
vt 0.802464 0.820407
vt 0.807252 0.820407
vt 0.811641 0.820407
vt 0.777799 0.820407
vt 0.792670 0.820407
vt 0.797485 0.820407
vt 0.788294 0.820407
vt 0.783310 0.820407
vt 0.649685 0.519704
vt 0.744682 0.599921
vt 0.905415 0.863712
vt 0.653249 0.610165
vt 0.777799 0.719435
vt 0.816474 0.758719
vt 0.816474 0.792627
vt 0.816474 0.820407
vt 0.496523 0.799345
vt 0.555356 0.802495
vt 0.564428 0.785263
vt 0.509628 0.782005
vt 0.563933 0.762381
vt 0.511477 0.756801
vt 0.555542 0.753628
vt 0.502926 0.746391
vt 0.715012 0.613926
vt 0.727800 0.612244
vt 0.738778 0.610633
vt 0.686701 0.613974
vt 0.700747 0.614686
vt 0.662934 0.610689
vt 0.673694 0.612139
vt 0.975877 0.856753
vt 0.710582 0.841584
vt 0.975876 0.846081
vt 0.719705 0.841584
vt 0.975875 0.834916
vt 0.729399 0.841584
vt 0.975874 0.824453
vt 0.738553 0.841584
vt 0.975878 0.863035
vt 0.783310 0.660134
vt 0.987752 0.851068
vt 0.987752 0.846079
vt 0.987751 0.840589
vt 0.987750 0.834913
vt 0.987750 0.829455
vt 0.987749 0.824450
vt 0.987749 0.818941
vt 0.987753 0.863032
vt 0.956309 0.851737
vt 0.705635 0.803043
vt 0.738553 0.803043
vt 0.700165 0.803043
vt 0.733757 0.803043
vt 0.729399 0.803043
vt 0.724647 0.803043
vt 0.719705 0.803043
vt 0.714926 0.803043
vt 0.956309 0.846747
vt 0.710582 0.803043
vt 0.956308 0.841258
vt 0.956307 0.835582
vt 0.956307 0.830124
vt 0.956306 0.825119
vt 0.956310 0.863701
vt 0.956306 0.819610
vt 0.956310 0.857419
vt 0.816474 0.660134
vt 0.777799 0.660134
vt 0.987753 0.856750
vt 0.811641 0.660134
vt 0.807252 0.660134
vt 0.802464 0.660134
vt 0.797485 0.660134
vt 0.792670 0.660134
vt 0.788294 0.660134
vt 0.975873 0.818944
vt 0.700165 0.841584
vt 0.705635 0.841584
vt 0.733757 0.841584
vt 0.975874 0.829457
vt 0.724647 0.841584
vt 0.975875 0.840592
vt 0.714926 0.841584
vt 0.975877 0.851071
vn 0.683762 0.729705 0.000000
vn 0.683762 0.729705 0.000000
vn 0.683762 0.729705 0.000000
vn 0.683762 0.729705 0.000000
vn -0.707107 0.000000 0.707107
vn -0.707107 0.000000 0.707107
vn -0.707107 0.000000 0.707107
vn -0.707107 0.000000 0.707107
vn 0.707107 0.000000 0.707107
vn 0.707107 0.000000 0.707107
vn 0.707107 0.000000 0.707107
vn 0.707107 0.000000 0.707107
vn -0.704657 0.134384 0.696706
vn -0.704657 0.134384 0.696706
vn -0.704657 0.134384 0.696706
vn -0.704657 0.134384 0.696706
vn 0.706181 -0.128229 0.696323
vn 0.706181 -0.128229 0.696323
vn 0.706181 -0.128229 0.696323
vn 0.706181 -0.128229 0.696323
vn -0.528787 0.485464 0.696211
vn -0.528787 0.485464 0.696211
vn -0.528787 0.485464 0.696211
vn -0.528787 0.485464 0.696211
vn 0.533289 -0.480855 0.695976
vn 0.533289 -0.480855 0.695976
vn 0.533289 -0.480855 0.695976
vn 0.533289 -0.480855 0.695976
vn -0.216173 0.682738 0.697953
vn -0.216173 0.682738 0.697953
vn -0.216173 0.682738 0.697953
vn -0.216173 0.682738 0.697953
vn 0.165566 -0.722234 0.671540
vn 0.165566 -0.722234 0.671540
vn 0.165566 -0.722234 0.671540
vn 0.165566 -0.722234 0.671540
vn -0.216172 0.682736 -0.697955
vn -0.216172 0.682736 -0.697955
vn -0.216172 0.682736 -0.697955
vn -0.216172 0.682736 -0.697955
vn 0.165566 -0.722235 -0.671539
vn 0.165566 -0.722235 -0.671539
vn 0.165566 -0.722235 -0.671539
vn 0.165566 -0.722235 -0.671539
vn -0.528786 0.485463 -0.696212
vn -0.528786 0.485463 -0.696212
vn -0.528786 0.485463 -0.696212
vn -0.528786 0.485463 -0.696212
vn 0.533290 -0.480856 -0.695974
vn 0.533290 -0.480856 -0.695974
vn 0.533290 -0.480856 -0.695974
vn 0.533290 -0.480856 -0.695974
vn -0.704659 0.134384 -0.696704
vn -0.704659 0.134384 -0.696704
vn -0.704659 0.134384 -0.696704
vn -0.704659 0.134384 -0.696704
vn 0.706183 -0.128229 -0.696321
vn 0.706183 -0.128229 -0.696321
vn 0.706183 -0.128229 -0.696321
vn 0.706183 -0.128229 -0.696321
vn -0.707107 0.000000 -0.707107
vn -0.707107 0.000000 -0.707107
vn -0.707107 0.000000 -0.707107
vn -0.707107 0.000000 -0.707107
vn 0.707107 0.000000 -0.707107
vn 0.707107 0.000000 -0.707107
vn 0.707107 0.000000 -0.707107
vn 0.707107 0.000000 -0.707107
vn 0.000000 0.000000 1.000000
vn 0.000000 0.000000 1.000000
vn 0.000000 0.000000 1.000000
vn 0.000000 0.000000 1.000000
vn 0.000000 0.000000 1.000000
vn 0.000000 0.000000 1.000000
vn 0.000000 0.000000 1.000000
vn 0.000000 0.000000 1.000000
vn -0.000000 0.000000 1.000000
vn -0.000000 0.000000 1.000000
vn -0.000000 0.000000 1.000000
vn -0.000000 0.000000 1.000000
vn -0.061380 -0.016722 0.997974
vn -0.061380 -0.016722 0.997974
vn -0.061380 -0.016722 0.997974
vn -0.061380 -0.016722 0.997975
vn -0.061379 -0.016721 -0.997975
vn -0.061379 -0.016721 -0.997974
vn -0.061379 -0.016721 -0.997974
vn -0.061379 -0.016721 -0.997975
vn -0.000000 0.000000 -1.000000
vn -0.000000 0.000000 -1.000000
vn -0.000000 0.000000 -1.000000
vn -0.000000 0.000000 -1.000000
vn 0.000000 0.000000 -1.000000
vn 0.000000 0.000000 -1.000000
vn 0.000000 0.000000 -1.000000
vn 0.000000 0.000000 -1.000000
vn 0.000000 0.000000 -1.000000
vn 0.000000 0.000000 -1.000000
vn 0.000000 0.000000 -1.000000
vn 0.000000 0.000000 -1.000000
vn 1.000000 0.000000 0.000000
vn 1.000000 0.000000 0.000000
vn 1.000000 0.000000 0.000000
vn 1.000000 0.000000 0.000000
vn 0.984302 -0.176492 0.000000
vn 0.984302 -0.176492 0.000000
vn 0.984302 -0.176492 0.000000
vn 0.984302 -0.176492 0.000000
vn 0.744097 -0.668072 0.000000
vn 0.744097 -0.668072 0.000000
vn 0.744097 -0.668072 0.000000
vn 0.744097 -0.668072 0.000000
vn 0.258369 -0.966046 0.000000
vn 0.258369 -0.966046 0.000000
vn 0.258369 -0.966046 0.000000
vn 0.258369 -0.966046 0.000000
vn -1.000000 0.000000 0.000000
vn -1.000000 0.000000 0.000000
vn -1.000000 0.000000 0.000000
vn -1.000000 0.000000 0.000000
vn -0.981968 0.189046 0.000000
vn -0.981968 0.189046 0.000000
vn -0.981968 0.189046 0.000000
vn -0.981968 0.189046 0.000000
vn -0.735568 0.677451 0.000000
vn -0.735568 0.677451 0.000000
vn -0.735568 0.677451 0.000000
vn -0.735568 0.677451 0.000000
vn -0.277079 0.960847 0.000000
vn -0.277079 0.960847 0.000000
vn -0.277079 0.960847 0.000000
vn -0.277079 0.960847 0.000000
vn -0.483732 0.708071 0.514431
vn -0.483732 0.708071 0.514431
vn -0.483732 0.708071 0.514431
vn -0.483732 0.708071 0.514431
vn -0.804833 0.000001 0.593502
vn -0.804833 0.000001 0.593502
vn -0.804833 0.000001 0.593502
vn -0.804833 0.000001 0.593502
vn -0.759311 -0.501610 0.414530
vn -0.759311 -0.501610 0.414530
vn -0.759311 -0.501610 0.414530
vn -0.759311 -0.501610 0.414530
vn -0.413282 -0.910603 0.000000
vn -0.413282 -0.910603 0.000000
vn -0.413282 -0.910603 0.000000
vn -0.413282 -0.910603 0.000000
vn -0.759310 -0.501610 -0.414530
vn -0.759310 -0.501610 -0.414530
vn -0.759310 -0.501610 -0.414530
vn -0.759310 -0.501610 -0.414530
vn -0.804833 -0.000001 -0.593501
vn -0.804833 -0.000001 -0.593501
vn -0.804833 -0.000001 -0.593501
vn -0.804833 -0.000001 -0.593501
vn -0.483732 0.708069 -0.514433
vn -0.483733 0.708069 -0.514433
vn -0.483733 0.708069 -0.514433
vn -0.483733 0.708069 -0.514433
vn -0.078160 0.996941 0.000000
vn -0.078160 0.996941 0.000000
vn -0.078160 0.996941 0.000000
vn -0.078160 0.996941 0.000000
vn 0.000000 0.858411 0.512963
vn 0.000000 0.858411 0.512963
vn 0.000000 0.858411 0.512963
vn 0.000000 0.858411 0.512963
vn 0.000000 0.000000 1.000000
vn 0.000000 0.000000 1.000000
vn 0.000000 0.000000 1.000000
vn 0.000000 0.000000 1.000000
vn 0.000000 -0.787072 0.616861
vn 0.000000 -0.787072 0.616861
vn 0.000000 -0.787072 0.616861
vn 0.000000 -0.787072 0.616861
vn 0.000000 -1.000000 0.000000
vn 0.000000 -1.000000 0.000000
vn 0.000000 -1.000000 0.000000
vn 0.000000 -1.000000 0.000000
vn 0.000000 -0.787071 -0.616863
vn 0.000000 -0.787071 -0.616863
vn 0.000000 -0.787071 -0.616863
vn 0.000000 -0.787071 -0.616863
vn 0.000000 -0.000003 -1.000000
vn 0.000000 -0.000003 -1.000000
vn 0.000000 -0.000003 -1.000000
vn 0.000000 -0.000003 -1.000000
vn 0.000000 0.858409 -0.512966
vn 0.000000 0.858409 -0.512966
vn 0.000000 0.858409 -0.512966
vn 0.000000 0.858409 -0.512966
vn 0.000000 1.000000 0.000000
vn 0.000000 1.000000 0.000000
vn 0.000000 1.000000 0.000000
vn 0.000000 1.000000 0.000000
vn 0.320259 0.829955 0.456738
vn 0.320259 0.829955 0.456738
vn 0.320259 0.829955 0.456738
vn 0.320259 0.829955 0.456738
vn 0.443407 0.000000 0.896321
vn 0.443407 0.000000 0.896321
vn 0.443407 0.000000 0.896321
vn 0.443407 0.000000 0.896321
vn 0.260007 -0.809063 0.527080
vn 0.260007 -0.809063 0.527080
vn 0.260007 -0.809063 0.527080
vn 0.260007 -0.809063 0.527080
vn -0.027674 -0.999617 0.000000
vn -0.027674 -0.999617 0.000000
vn -0.027674 -0.999617 0.000000
vn -0.027674 -0.999617 0.000000
vn 0.260008 -0.809062 -0.527081
vn 0.260008 -0.809062 -0.527081
vn 0.260008 -0.809062 -0.527081
vn 0.260008 -0.809062 -0.527081
vn 0.443404 -0.000003 -0.896322
vn 0.443404 -0.000003 -0.896322
vn 0.443404 -0.000003 -0.896322
vn 0.443404 -0.000003 -0.896322
vn 0.320260 0.829955 -0.456737
vn 0.320260 0.829955 -0.456737
vn 0.320260 0.829955 -0.456737
vn 0.320260 0.829955 -0.456737
vn 0.260407 0.965499 0.000000
vn 0.260407 0.965499 0.000000
vn 0.260407 0.965499 0.000000
vn 0.260407 0.965499 0.000000
vn 1.000000 -0.000001 0.000000
vn 1.000000 -0.000001 0.000000
vn 1.000000 -0.000001 0.000000
vn 1.000000 -0.000001 0.000000
vn 0.683765 -0.729702 0.000000
vn 0.683765 -0.729703 0.000000
vn 0.683765 -0.729703 0.000000
vn 0.683765 -0.729702 0.000000
vn -0.707111 0.000000 0.707103
vn -0.707111 0.000000 0.707103
vn -0.707111 0.000000 0.707103
vn -0.707111 0.000000 0.707103
vn -1.000000 0.000000 0.000000
vn -1.000000 0.000000 0.000000
vn -1.000000 0.000000 0.000000
vn -1.000000 0.000000 0.000000
vn -0.707112 0.000000 -0.707101
vn -0.707112 0.000000 -0.707101
vn -0.707113 0.000000 -0.707101
vn -0.707112 0.000000 -0.707101
vn 0.000000 0.000000 -1.000000
vn 0.000000 0.000000 -1.000000
vn 0.000000 0.000000 -1.000000
vn 0.000000 0.000000 -1.000000
vn 0.707112 0.000000 -0.707101
vn 0.707112 0.000000 -0.707101
vn 0.707112 0.000000 -0.707101
vn 0.707112 0.000000 -0.707101
vn 1.000000 0.000000 0.000000
vn 1.000000 0.000000 0.000000
vn 1.000000 0.000000 0.000000
vn 1.000000 0.000000 0.000000
vn 0.707111 0.000000 0.707103
vn 0.707111 0.000000 0.707103
vn 0.707111 0.000000 0.707103
vn 0.707111 0.000000 0.707103
vn 0.000000 0.000000 1.000000
vn 0.000000 0.000000 1.000000
vn 0.000000 0.000000 1.000000
vn 0.000000 0.000000 1.000000
vn -0.568349 0.588698 0.574817
vn -0.568349 0.588698 0.574817
vn -0.568349 0.588698 0.574817
vn -0.568349 0.588698 0.574817
vn 0.443963 0.783157 0.435387
vn 0.443963 0.783157 0.435387
vn 0.443963 0.783157 0.435387
vn 0.443963 0.783157 0.435387
vn -0.568349 0.588697 -0.574817
vn -0.568349 0.588697 -0.574817
vn -0.568349 0.588697 -0.574817
vn -0.568349 0.588697 -0.574817
vn 0.443964 0.783157 -0.435387
vn 0.443964 0.783157 -0.435387
vn 0.443964 0.783157 -0.435387
vn 0.443964 0.783157 -0.435387
vn -0.010667 0.702771 0.711336
vn -0.010667 0.702771 0.711336
vn -0.010667 0.702771 0.711336
vn -0.010667 0.702771 0.711336
vn -0.010667 0.702770 -0.711337
vn -0.010667 0.702770 -0.711337
vn -0.010667 0.702770 -0.711337
vn -0.010667 0.702770 -0.711337
vn 0.590007 0.807398 0.000000
vn 0.590007 0.807398 0.000000
vn 0.590007 0.807398 0.000000
vn 0.590007 0.807398 0.000000
vn -0.850391 0.526151 0.000000
vn -0.850391 0.526151 0.000000
vn -0.850391 0.526151 0.000000
vn -0.850391 0.526151 0.000000
vn -0.707111 -0.000000 0.707103
vn -0.707111 -0.000000 0.707103
vn -0.707111 -0.000000 0.707103
vn -0.707111 -0.000000 0.707103
vn -0.000000 -0.000000 1.000000
vn -0.000000 0.000000 1.000000
vn 0.000000 0.000000 1.000000
vn 0.000000 0.000000 1.000000
vn 0.707111 0.000000 0.707103
vn 0.707111 0.000000 0.707103
vn 0.707111 -0.000000 0.707103
vn 0.707111 -0.000000 0.707103
vn 1.000000 -0.000000 0.000000
vn 1.000000 -0.000000 0.000000
vn 1.000000 -0.000000 0.000000
vn 1.000000 -0.000000 0.000000
vn 0.707112 0.000000 -0.707101
vn 0.707112 0.000000 -0.707101
vn 0.707112 0.000000 -0.707101
vn 0.707112 0.000000 -0.707101
vn 0.000000 0.000000 -1.000000
vn 0.000000 0.000000 -1.000000
vn 0.000000 0.000000 -1.000000
vn 0.000000 0.000000 -1.000000
vn -0.707112 0.000000 -0.707101
vn -0.707112 0.000000 -0.707101
vn -0.707112 0.000000 -0.707101
vn -0.707112 0.000000 -0.707101
vn -1.000000 0.000000 0.000000
vn -1.000000 0.000000 0.000000
vn -1.000000 0.000000 0.000000
vn -1.000000 0.000000 0.000000
vn -0.707111 0.000000 0.707102
vn -0.707111 0.000000 0.707102
vn -0.000000 -0.000000 1.000000
vn -0.000000 -0.000000 1.000000
vn 0.707111 -0.000000 0.707103
vn 0.707111 -0.000000 0.707103
vn 1.000000 0.000000 0.000000
vn 1.000000 0.000000 0.000000
vn 0.707112 0.000000 -0.707101
vn 0.707112 0.000000 -0.707101
vn 0.000000 0.000000 -1.000000
vn 0.000000 0.000000 -1.000000
vn -0.707113 0.000000 -0.707101
vn -0.707113 0.000000 -0.707101
vn -1.000000 -0.000000 0.000000
vn -1.000000 -0.000000 0.000000
s off
g lampadaire_L decor1 group1
usemtl lambert2SG
f 50/1/1 49/2/2 55/3/3 56/4/4
f 66/5/5 65/6/6 67/7/7 68/8/8
f 70/9/9 69/10/10 71/11/11 72/12/12
f 2/13/13 1/14/14 5/15/15 6/16/16
f 3/17/17 4/18/18 8/19/19 7/20/20
f 6/16/21 5/15/22 9/21/23 10/22/24
f 7/20/25 8/19/26 12/23/27 11/24/28
f 10/22/29 9/21/30 14/95/31 13/96/32
f 11/24/33 12/23/34 15/94/35 16/93/36
f 17/104/37 18/91/38 21/31/39 22/103/40
f 19/90/41 20/89/42 24/35/43 23/36/44
f 22/103/45 21/31/46 25/37/47 26/102/48
f 23/36/49 24/35/50 28/39/51 27/40/52
f 26/102/53 25/37/54 29/41/55 30/42/56
f 27/40/57 28/39/58 32/43/59 31/44/60
f 73/98/61 74/46/62 75/47/63 76/48/64
f 77/49/65 78/50/66 79/51/67 80/52/68
f 72/12/69 67/7/70 65/6/71 70/9/72
f 5/15/73 1/14/74 3/17/75 7/20/76
f 9/21/77 5/15/78 7/20/79 11/24/80
f 14/95/81 9/21/82 11/24/83 16/93/84
f 21/31/85 18/91/86 19/90/87 23/36/88
f 25/37/89 21/31/90 23/36/91 27/40/92
f 29/41/93 25/37/94 27/40/95 31/44/96
f 75/47/97 74/46/98 77/49/99 80/52/100
f 78/50/101 71/11/102 69/10/103 79/51/104
f 8/19/105 4/18/106 32/43/107 28/39/108
f 12/23/109 8/19/110 28/39/111 24/35/112
f 15/94/113 12/23/114 24/35/115 20/89/116
f 68/8/117 73/45/118 76/97/119 66/5/120
f 26/38/121 30/101/122 2/13/123 6/16/124
f 22/32/125 26/38/126 6/16/127 10/22/128
f 17/92/129 22/32/130 10/22/131 13/96/132
f 13/26/133 14/25/134 33/53/135 34/54/136
f 14/25/137 16/112/138 35/110/139 33/53/140
f 16/28/141 15/27/142 36/56/143 35/55/144
f 15/27/145 20/34/146 37/57/147 36/56/148
f 20/34/149 19/111/150 38/109/151 37/57/152
f 19/33/153 18/30/154 39/59/155 38/58/156
f 18/30/157 17/29/158 40/60/159 39/59/160
f 17/29/161 13/26/162 34/54/163 40/60/164
f 34/54/165 33/53/166 41/61/167 42/62/168
f 33/53/169 35/110/170 43/108/171 41/61/172
f 35/55/173 36/56/174 44/64/175 43/63/176
f 36/56/177 37/57/178 45/65/179 44/64/180
f 37/57/181 38/109/182 46/107/183 45/65/184
f 38/58/185 39/59/186 47/67/187 46/66/188
f 39/59/189 40/60/190 48/68/191 47/67/192
f 40/60/193 34/54/194 42/62/195 48/68/196
f 42/62/197 41/61/198 49/2/199 50/1/200
f 41/61/201 43/108/202 51/105/203 49/2/204
f 43/63/205 44/64/206 52/70/207 51/69/208
f 44/64/209 45/65/210 53/71/211 52/70/212
f 45/65/213 46/107/214 54/106/215 53/71/216
f 46/66/217 47/67/218 55/3/219 54/72/220
f 47/67/221 48/68/222 56/4/223 55/3/224
f 48/68/225 42/62/226 50/1/227 56/4/228
f 55/3/229 49/2/230 51/105/231 54/72/232
f 54/106/233 51/69/234 52/70/235 53/71/236
s 1
f 89/129/237 90/164/238 1/14/239 2/13/240
s 2
f 30/101/241 96/157/242 89/129/243 2/13/244
s 3
f 30/42/245 29/41/246 95/159/247 96/156/248
s 4
f 94/160/249 95/159/250 29/41/251 31/44/252
s 5
f 31/44/253 32/43/254 93/161/255 94/160/256
s 6
f 4/18/257 92/162/258 93/161/259 32/43/260
s 7
f 91/163/261 92/162/262 4/18/263 3/17/264
s 8
f 1/14/265 90/164/266 91/163/267 3/17/268
s off
f 57/74/269 58/118/270 68/8/271 67/7/272
f 63/79/273 64/116/274 72/12/275 71/11/276
f 59/75/277 60/115/278 74/46/279 73/98/280
f 61/77/281 62/113/282 78/50/283 77/49/284
f 64/80/285 57/119/286 67/7/287 72/12/288
f 60/76/289 61/114/290 77/49/291 74/46/292
f 62/78/293 63/117/294 71/11/295 78/50/296
f 58/73/297 59/100/298 73/45/299 68/8/300
s 1
f 58/88/301 57/82/302 97/138/303 98/155/304
s 8
f 104/147/305 97/138/306 57/82/307 64/81/308
s 7
f 64/81/309 63/83/310 103/149/311 104/147/312
s 6
f 102/150/313 103/149/314 63/83/315 62/84/316
s 5
f 101/151/317 102/150/318 62/84/319 61/85/320
s 4
f 61/85/321 60/86/322 100/152/323 101/151/324
s 3
f 99/154/325 100/152/326 60/86/327 59/87/328
s 2
f 98/155/329 99/153/330 59/99/331 58/88/332
s 1
f 82/121/333 81/167/334 98/139/304 97/148/303
s 8
f 104/146/305 83/172/335 82/121/336 97/148/306
s 7
f 84/123/337 83/172/338 104/146/312 103/145/311
s 6
f 102/144/313 85/170/339 84/123/340 103/145/314
s 5
f 86/125/341 85/170/342 102/144/318 101/143/317
s 4
f 100/142/323 87/168/343 86/125/344 101/143/324
s 3
f 88/127/345 87/168/346 100/142/326 99/140/325
s 2
f 98/139/329 81/167/347 88/166/348 99/141/330
s 1
f 81/120/334 82/173/333 90/130/238 89/158/237
s 8
f 91/131/267 90/130/266 82/173/336 83/122/335
s 7
f 83/122/338 84/171/337 92/132/262 91/131/261
s 6
f 93/133/259 92/132/258 84/171/340 85/124/339
s 5
f 94/134/256 93/133/255 85/124/342 86/169/341
s 4
f 86/169/344 87/126/343 95/135/250 94/134/249
s 3
f 96/136/248 95/135/247 87/126/346 88/165/345
s 2
f 89/158/243 96/137/242 88/128/348 81/120/347
